<svg width="132" height="140" viewBox="0 0 132 140" fill="none" xmlns="http://www.w3.org/2000/svg">
<path d="M132 72.2944C132 110.16 127.349 129.567 101.141 137.98C95.5477 139.776 89.6247 140.293 83.7696 139.851C44.2271 136.869 0 114.187 0 75.4376C0 33.7745 33.6105 0 75.0711 0C116.532 0 132 30.6313 132 72.2944Z" fill="#7FC3E9" fill-opacity="0.18"/>
<path d="M44.4458 96.8484C43.1705 95.1113 42.3031 93.3578 42.9314 91.2316C43.4542 89.457 45.0764 88.3388 46.8136 88.5146C48.485 88.6834 49.7744 90.0853 50.0042 91.895C50.2573 93.897 49.554 95.5614 48.2131 97.0078C52.0976 99.0332 57.8036 97.6689 60.0706 94.1947C56.5823 92.2209 53.455 89.7782 50.759 86.8104C46.6729 82.3118 43.6277 77.2435 42.6126 71.1579C41.6022 65.0981 43.1518 59.7931 47.552 55.4164C49.3032 53.6746 51.5209 53.4074 53.6495 54.6615C56.5682 56.3798 58.8937 58.703 60.6098 61.6239C61.9929 63.9799 61.5287 66.3499 59.3931 68.0659C57.4942 69.592 56.7839 71.5846 57.445 73.9053C58.7085 78.3406 61.6272 81.2029 66.0814 82.4337C68.2569 83.0338 70.0713 82.3258 71.5576 80.6802C73.9887 77.9937 76.0141 77.7288 79.0383 79.7284C81.5186 81.3694 83.5346 83.4651 85.0819 86.0063C86.4486 88.2497 86.172 90.5635 84.3153 92.4014C79.7181 96.9539 74.1762 98.2526 67.9404 97.1227C67.2277 96.9937 66.6229 96.6819 66.8479 95.8005C67.0519 94.9941 67.7013 94.9964 68.3577 95.1324C72.5 95.9927 76.4197 95.4723 80.0627 93.2429C80.2948 93.0999 80.5222 92.9476 80.7426 92.7882C80.8317 92.7225 80.8973 92.6217 81.0427 92.4623C79.7228 90.247 78.0302 88.3365 76.1618 86.5619C75.5781 86.0086 74.495 85.4765 75.3695 84.5083C76.2486 83.5331 76.9519 84.5247 77.484 85.0967C79.05 86.7799 80.5339 88.5381 82.0413 90.2751C82.2664 90.533 82.4492 90.8237 82.6555 91.105C84.0668 89.8977 84.3341 88.7022 83.4831 87.2534C81.9312 84.6091 79.8283 82.4946 77.1816 80.9427C75.7703 80.1152 74.5021 80.352 73.426 81.5898C70.8403 84.5646 67.9193 85.4577 64.302 84.0113C59.4235 82.0609 56.1861 78.5844 55.2788 73.249C55.0069 71.6525 55.3796 70.1335 56.2025 68.7574C56.5377 68.1995 56.5729 67.7963 56.1368 67.311C54.3153 65.2856 52.5196 63.2391 50.6934 61.216C50.1894 60.6604 49.2376 60.1986 50.0088 59.3242C50.8082 58.4193 51.5162 59.1953 52.0695 59.7649C54.1512 61.9146 56.1908 64.1064 58.2748 66.3147C59.3345 65.6255 59.7822 64.3081 59.086 63.0258C57.4825 60.072 55.1827 57.7723 52.2219 56.1759C51.1529 55.5992 49.9596 55.8594 49.0055 56.7971C45.2616 60.4752 43.6956 64.9902 44.5068 70.1194C46.0376 79.8175 51.9007 86.5548 59.869 91.7379C60.3917 92.0779 60.9473 92.3639 61.4959 92.6616C62.8486 93.3977 62.9494 93.7938 62.089 95.0058C58.7648 99.6919 52.475 101.338 47.2871 98.8433C46.6143 98.5198 46.0704 98.48 45.3484 98.7542C41.7686 100.119 38.1514 98.7589 36.3205 95.4676C35.9595 94.8159 35.7555 94.1806 36.5268 93.7657C37.209 93.3977 37.6544 93.8149 38.0389 94.4198C39.6822 96.9937 42.0101 97.8822 44.4458 96.8484ZM46.4361 95.8849C47.6599 94.7198 48.3725 93.5055 47.9599 91.8716C47.7466 91.023 47.2473 90.4791 46.3025 90.5658C45.3296 90.6549 44.8701 91.2761 44.7904 92.1974C44.6638 93.6673 45.2593 94.8347 46.4361 95.8849Z" fill="#2B2D42"/>
<path d="M79.2698 41.9988C73.0387 41.9707 67.9891 45.4777 66.0246 50.7709C64.0905 55.9751 65.6401 61.9787 69.9114 65.5232C70.7202 66.1937 70.9312 66.8243 70.4811 67.7315C70.1693 68.3597 69.8997 69.0067 69.5738 69.6256C69.255 70.2304 69.3535 70.568 69.9911 70.9314C70.3474 71.1353 70.4811 71.7307 70.7155 72.148C70.2302 72.352 69.7051 72.7903 69.2667 72.7177C67.6843 72.4551 66.8919 70.5493 67.621 69.0138C68.5001 67.1642 68.4673 67.1923 67.1569 65.6639C63.2278 61.0739 62.0979 55.8251 64.1608 50.1685C66.2004 44.5751 70.3263 41.1291 76.2644 40.2008C86.3684 38.6208 94.9016 46.9639 93.9217 57.1379C93.1668 64.9794 88.1782 70.0452 80.2779 72.0707C79.6379 72.2348 78.9909 72.3824 78.3368 72.4903C77.6406 72.6051 76.8435 72.7763 76.6419 71.7894C76.4379 70.8024 77.2303 70.6899 77.9172 70.4883C79.8161 69.9304 81.7853 69.5272 83.588 68.7465C93.2606 64.5597 94.0905 52.4893 88.6728 46.5419C85.9792 43.5859 82.6574 42.048 79.2698 41.9988Z" fill="#2B2D42"/>
<path d="M74.9617 52.8424C75.6088 48.9369 76.0776 48.3719 78.661 48.379C81.139 48.3837 81.6102 48.9721 82.2314 52.9151C83.5747 53.0182 85.1618 52.7299 86.0127 54.12C86.4699 54.8655 86.709 55.8524 86.7278 56.7362C86.7723 58.9562 85.8158 59.6102 82.1517 60.0603C82.0532 61.4223 82.3861 63.082 80.9327 63.9119C80.1145 64.3784 79.0314 64.5401 78.0656 64.5542C76.08 64.5847 75.4845 63.6399 74.9641 59.99C73.6302 59.8985 72.0407 60.2197 71.1827 58.8296C70.742 58.1146 70.5146 57.1605 70.5005 56.3095C70.4583 54.0145 71.2906 53.4214 74.9617 52.8424ZM84.7046 56.4431C84.6976 55.2452 84.4608 54.9967 83.277 54.9756C82.6909 54.9639 82.1048 54.9452 81.5211 54.9803C80.5036 55.0389 80.1004 54.5302 80.1121 53.5738C80.1192 52.9104 80.1145 52.247 80.1028 51.5835C80.0864 50.5357 79.4323 50.3012 78.5321 50.3177C77.6577 50.3364 77.0997 50.6247 77.1372 51.614C77.1607 52.1977 77.1466 52.7861 77.1372 53.3698C77.1161 54.6686 76.8325 54.9592 75.5666 54.9733C74.943 54.9803 74.317 54.9756 73.6935 54.9756C72.7886 54.9756 72.4838 55.482 72.4721 56.3259C72.4604 57.1863 72.5565 57.9317 73.6255 57.9903C74.3663 58.0302 75.1094 58.0255 75.8502 57.9997C76.7621 57.9669 77.1208 58.4475 77.1349 59.2843C77.1466 60.0251 77.0294 60.7917 77.1865 61.4997C77.2779 61.9099 77.7421 62.4491 78.1336 62.5475C79.5354 62.8968 80.1145 62.3975 80.1028 60.9558C80.0746 57.4957 80.1614 58.0372 83.1082 58.0044C84.4608 57.9856 84.714 57.7325 84.7046 56.4431Z" fill="#2B2D42"/>
<path d="M46.4365 95.8835C45.2596 94.8331 44.6641 93.6679 44.7907 92.1956C44.8704 91.2742 45.3322 90.6552 46.3029 90.5638C47.2477 90.477 47.7447 91.0186 47.9604 91.8697C48.3731 93.5014 47.6603 94.7182 46.4365 95.8835Z" fill="white"/>
<path d="M84.7043 56.4437C84.7113 57.733 84.4582 57.9862 83.1125 58.0003C80.1634 58.0331 80.079 57.4916 80.1071 60.9516C80.1189 62.3933 79.5398 62.8927 78.1379 62.5434C77.7464 62.4449 77.2823 61.9081 77.1908 61.4955C77.0338 60.7875 77.151 60.021 77.1393 59.2802C77.1275 58.4433 76.7665 57.9627 75.8546 57.9956C75.1138 58.0237 74.3706 58.026 73.6298 57.9862C72.5585 57.9276 72.4647 57.1821 72.4764 56.3218C72.4882 55.4779 72.7906 54.9715 73.6978 54.9715C74.3214 54.9715 74.9473 54.9762 75.5709 54.9692C76.8368 54.9551 77.1205 54.6667 77.1416 53.3657C77.151 52.7796 77.165 52.1936 77.1416 51.6099C77.1017 50.6206 77.662 50.3323 78.5365 50.3135C79.4367 50.2948 80.0907 50.5315 80.1071 51.5794C80.1165 52.2428 80.1235 52.9062 80.1165 53.5696C80.1048 54.5261 80.508 55.0371 81.5254 54.9762C82.1092 54.941 82.6976 54.9621 83.2813 54.9715C84.4628 54.9973 84.6973 55.2458 84.7043 56.4437Z" fill="#94DAFF"/>
</svg>
