<svg width="132" height="140" viewBox="0 0 132 140" fill="none" xmlns="http://www.w3.org/2000/svg">
<path d="M132 72.2944C132 110.16 127.349 129.567 101.141 137.98C95.5477 139.776 89.6247 140.293 83.7696 139.851C44.2271 136.869 0 114.187 0 75.4376C0 33.7745 33.6105 0 75.0711 0C116.532 0 132 30.6313 132 72.2944Z" fill="#7FC3E9" fill-opacity="0.18"/>
<path d="M74.7083 81.9631C77.9578 81.9631 80.9563 81.9725 83.9548 81.9608C89.2057 81.9396 88.4385 81.7191 90.8059 86.1164C92.3778 89.0354 93.917 91.9732 95.4608 94.9087C96.7372 97.3326 95.6861 99.1183 92.9574 99.1183C74.9734 99.1253 56.9894 99.1253 39.0055 99.1183C36.3425 99.116 35.2749 97.3279 36.5138 94.9744C38.4752 91.2458 40.4813 87.5407 42.4169 83.7981C43.0926 82.4934 44.0734 81.9396 45.5163 81.9537C48.9958 81.9889 52.4753 81.9654 55.9547 81.9631C56.3278 81.9631 56.7008 81.9302 57.2147 81.9068C55.875 80.0976 54.5986 78.434 53.3926 76.7257C50.8399 73.1121 48.4866 69.3742 47.2877 65.0637C45.216 57.6159 48.7659 49.1146 55.706 44.7102C67.3856 37.3 82.9061 44.3535 85.0576 58.0218C85.6371 61.7082 84.9848 65.1528 83.4645 68.5013C81.3482 73.1638 78.3497 77.2513 75.2362 81.2662C75.1189 81.4164 75.0063 81.5689 74.7083 81.9631ZM66.0061 89.6572C68.3218 86.8133 70.5437 84.1406 72.7022 81.4187C76.1489 77.073 79.5017 72.6616 81.808 67.5627C83.0562 64.8009 83.7249 61.9358 83.3049 58.9159C81.8854 48.7039 72.7562 42.1197 62.597 43.9312C54.9412 45.2968 48.8175 52.5029 48.604 60.2604C48.5125 63.5877 49.6058 66.5443 51.0863 69.4047C53.341 73.7598 56.2903 77.6502 59.3427 81.4633C61.5107 84.1711 63.7185 86.8462 66.0061 89.6572ZM49.275 97.2411C50.7367 97.2411 52.0553 97.2012 53.3692 97.2575C54.0918 97.288 54.3804 97.0112 54.5963 96.3424C55.4526 93.6721 56.37 91.0206 57.271 88.362C57.8083 86.7758 58.3432 86.6444 59.5445 87.7824C62.6627 90.7413 65.7808 93.7026 68.9107 96.6521C69.1571 96.8844 69.4715 97.1918 69.7624 97.2012C71.3766 97.2552 72.9955 97.227 74.9429 97.227C73.2301 95.5986 71.7379 94.2399 70.3278 92.7992C69.9431 92.4073 69.8046 91.7714 69.5536 91.2482C70.1003 91.044 70.6446 90.6686 71.1936 90.6639C77.329 90.6217 83.4668 90.6381 89.6046 90.6381C90.0222 90.6381 90.4398 90.6381 90.8903 90.6381C90.1935 88.3338 90.1536 88.301 88.0373 88.301C83.1125 88.301 78.1784 88.4699 73.2653 88.2353C70.5296 88.1039 68.5846 88.7515 67.1815 91.1754C66.4518 92.4355 65.7339 92.3487 64.8236 91.2247C63.0029 88.9791 61.1845 86.7312 59.3521 84.4973C59.1433 84.2415 58.8383 83.8919 58.5708 83.8849C57.0106 83.8426 55.4503 83.8896 53.8877 83.906C53.4818 84.9502 53.0759 85.9944 52.67 87.0409C52.6418 87.1137 52.6301 87.1911 52.6137 87.2685C52.4401 88.0335 51.9755 88.3291 51.1778 88.3174C48.7166 88.2822 46.253 88.3057 43.7895 88.3057C41.9946 88.3057 41.5582 88.6881 41.1898 90.6428C43.8176 90.6428 46.4337 90.6428 49.0497 90.6428C51.1426 90.6428 51.3796 90.9807 50.7015 93.0033C50.244 94.3596 49.7865 95.7182 49.275 97.2411ZM72.7327 92.52C74.5018 94.1954 76.0081 95.6502 77.559 97.0534C77.7725 97.2458 78.2183 97.2294 78.5585 97.2317C80.9047 97.2458 83.2486 97.2388 85.5949 97.2388C88.096 97.2388 90.597 97.2528 93.1005 97.2294C94.1727 97.22 94.3628 96.8821 93.8818 95.9341C93.4055 94.9955 92.9363 94.0475 92.3778 93.1559C92.1925 92.8579 91.7444 92.5458 91.4135 92.5434C85.3157 92.5106 79.2201 92.52 72.7327 92.52ZM48.8456 92.52C46.9639 92.52 45.2911 92.52 43.6182 92.52C39.7797 92.52 39.7797 92.52 38.1256 95.9388C38.1092 95.974 38.0975 96.0116 38.0787 96.0467C37.6353 96.8469 37.9309 97.2317 38.7849 97.2364C41.3939 97.2481 44.0053 97.2552 46.6143 97.2223C46.8912 97.2176 47.33 96.9947 47.4144 96.7695C47.9189 95.4296 48.3388 94.0616 48.8456 92.52ZM71.1326 86.3628C77.1226 86.3628 82.8803 86.3628 88.9969 86.3628C87.9411 85.4664 88.2344 83.8192 86.4864 83.8333C82.3054 83.8685 78.1244 83.8262 73.9434 83.8708C73.5187 83.8755 73.0237 84.1782 72.6952 84.4879C72.1626 84.9924 71.745 85.6119 71.1326 86.3628ZM58.8031 89.676C57.9514 92.2243 57.1419 94.6459 56.309 97.1355C59.7885 97.1355 63.1343 97.1355 66.6841 97.1355C63.9812 94.5778 61.4379 92.1703 58.8031 89.676ZM43.2944 86.2548C43.4281 86.3323 43.4868 86.398 43.5478 86.398C45.2582 86.4097 46.971 86.4191 48.6814 86.4214C51.0347 86.4238 51.0347 86.4214 51.6447 84.136C51.6611 84.0749 51.6048 83.9928 51.5602 83.8497C49.4463 83.8497 47.3088 83.8262 45.1737 83.8755C44.8547 83.8825 44.4394 84.1571 44.2517 84.434C43.8645 84.9948 43.6041 85.6424 43.2944 86.2548Z" fill="#2B2D42"/>
<path d="M66.0061 89.655C63.7185 86.8439 61.5107 84.1689 59.3428 81.4611C56.2926 77.648 53.3434 73.7576 51.0863 69.4025C49.6035 66.5421 48.5125 63.5855 48.604 60.2582C48.8175 52.5007 54.9389 45.2946 62.597 43.9289C72.7562 42.1151 81.8855 48.7017 83.305 58.9136C83.7249 61.9336 83.0563 64.7987 81.808 67.5605C79.5017 72.6617 76.1512 77.0732 72.7023 81.4165C70.5437 84.1384 68.3218 86.8111 66.0061 89.655ZM66.0554 72.8659C72.6155 72.8283 77.8945 67.5276 77.871 61.002C77.8452 54.4858 72.5122 49.1499 66.0155 49.1405C59.4835 49.1311 54.0637 54.5914 54.1435 61.1006C54.2232 67.6778 59.514 72.9034 66.0554 72.8659Z" fill="white"/>
<path d="M49.2751 97.2429C49.7866 95.7201 50.2441 94.3615 50.7016 93.0028C51.3797 90.9802 51.1427 90.6423 49.0499 90.6423C46.4338 90.6423 43.8177 90.6423 41.1899 90.6423C41.5583 88.69 41.9947 88.3052 43.7896 88.3052C46.2531 88.3052 48.7143 88.2817 51.1779 88.3169C51.9733 88.3286 52.4378 88.0353 52.6138 87.268C52.6302 87.1929 52.642 87.1131 52.6701 87.0404C53.0737 85.9962 53.4819 84.952 53.8878 83.9055C55.4481 83.8891 57.0107 83.8421 58.5709 83.8844C58.8384 83.8914 59.1434 84.241 59.3522 84.4968C61.187 86.7307 63.003 88.9809 64.8237 91.2242C65.734 92.3458 66.4543 92.435 67.1816 91.1749C68.5847 88.751 70.5297 88.1034 73.2655 88.2348C78.1785 88.4718 83.1126 88.3005 88.0374 88.3005C90.1537 88.3005 90.1936 88.3333 90.8904 90.6376C90.44 90.6376 90.0223 90.6376 89.6047 90.6376C83.4669 90.6376 77.3315 90.6211 71.1937 90.6634C70.6447 90.6681 70.1004 91.0435 69.5537 91.2477C69.8047 91.7709 69.9432 92.4045 70.328 92.7987C71.738 94.2371 73.2303 95.5981 74.943 97.2265C72.9956 97.2265 71.3791 97.2547 69.7625 97.2007C69.4716 97.1913 69.1572 96.8839 68.9108 96.6516C65.7833 93.7021 62.6651 90.7408 59.5446 87.7819C58.3433 86.6438 57.8107 86.7752 57.2711 88.3615C56.3701 91.0177 55.4504 93.6692 54.5964 96.3419C54.3829 97.0106 54.0943 97.2875 53.3693 97.257C52.0531 97.2007 50.7345 97.2429 49.2751 97.2429Z" fill="white"/>
<path d="M72.7329 92.5207C79.2203 92.5207 85.3158 92.5113 91.4114 92.5465C91.7422 92.5488 92.1903 92.8609 92.3757 93.1588C92.9341 94.0504 93.4033 94.996 93.8796 95.9368C94.3606 96.8847 94.1706 97.2225 93.0983 97.2319C90.5972 97.2554 88.0961 97.2413 85.5927 97.2413C83.2464 97.2413 80.9025 97.2484 78.5563 97.2343C78.2161 97.2319 77.7703 97.2507 77.5568 97.056C76.0083 95.6529 74.502 94.1982 72.7329 92.5207Z" fill="white"/>
<path d="M48.8458 92.5219C48.339 94.0634 47.919 95.4312 47.4169 96.7686C47.3324 96.9938 46.8937 97.2167 46.6168 97.2214C44.0078 97.2543 41.3964 97.2472 38.7874 97.2355C37.9334 97.2308 37.6377 96.8484 38.0812 96.0459C38.1 96.0131 38.1117 95.9732 38.1281 95.938C39.7822 92.5195 39.7822 92.5195 43.6207 92.5195C45.2912 92.5219 46.9641 92.5219 48.8458 92.5219Z" fill="white"/>
<path d="M71.1328 86.3653C71.7452 85.6145 72.1652 84.9927 72.6954 84.4906C73.0215 84.1809 73.5189 83.8783 73.9436 83.8736C78.1246 83.829 82.3056 83.8689 86.4866 83.836C88.2369 83.8219 87.9413 85.469 88.9971 86.3653C82.8781 86.3653 77.1204 86.3653 71.1328 86.3653Z" fill="white"/>
<path d="M58.8031 89.6758C61.4403 92.1722 63.9813 94.5771 66.6842 97.1345C63.1343 97.1345 59.7886 97.1345 56.3091 97.1345C57.142 94.6428 57.9491 92.2238 58.8031 89.6758Z" fill="white"/>
<path d="M43.2944 86.2566C43.6041 85.6442 43.8646 84.9966 44.2494 84.4335C44.4371 84.1567 44.8523 83.8822 45.1714 83.8751C47.3065 83.8259 49.4439 83.8493 51.5579 83.8493C51.6025 83.9925 51.6588 84.0746 51.6424 84.1356C51.0323 86.4232 51.0323 86.4255 48.6791 86.4208C46.9687 86.4185 45.2559 86.4091 43.5455 86.3974C43.4868 86.3997 43.4258 86.334 43.2944 86.2566Z" fill="white"/>
<path d="M66.0553 72.8699C59.5163 72.9075 54.2232 67.6818 54.1434 61.1046C54.0637 54.5954 59.4835 49.1375 66.0154 49.1445C72.5122 49.1539 77.8452 54.4875 77.871 61.0061C77.8945 67.5317 72.6154 72.8324 66.0553 72.8699ZM66.0084 70.988C71.5268 70.9833 75.9893 66.525 75.987 61.0225C75.9823 55.5458 71.4681 51.0264 66.0014 51.0264C60.5323 51.0288 56.0251 55.5481 56.0251 61.0295C56.0251 66.5391 60.49 70.9927 66.0084 70.988Z" fill="#2B2D42"/>
<path d="M66.0087 70.9851C60.4903 70.9897 56.0254 66.5361 56.0254 61.0265C56.0254 55.5451 60.5325 51.0258 66.0016 51.0234C71.4684 51.0211 75.9825 55.5404 75.9872 61.0195C75.9896 66.522 71.527 70.9827 66.0087 70.9851Z" fill="#94DAFF"/>
</svg>
