<svg width="132" height="140" viewBox="0 0 132 140" fill="none" xmlns="http://www.w3.org/2000/svg">
<path d="M132 72.2944C132 110.16 127.349 129.567 101.141 137.98C95.5477 139.776 89.6247 140.293 83.7696 139.851C44.2271 136.869 0 114.187 0 75.4376C0 33.7745 33.6105 0 75.0711 0C116.532 0 132 30.6313 132 72.2944Z" fill="#7FC3E9" fill-opacity="0.18"/>
<path d="M88.2028 53.9217C88.1256 54.3431 88.1677 54.8324 87.9476 55.1274C87.6854 55.4809 87.1798 55.8977 86.8145 55.8672C86.454 55.8391 85.8664 55.3053 85.843 54.9612C85.7376 53.3692 85.7282 51.7632 85.843 50.1736C85.8687 49.8154 86.5055 49.2441 86.8941 49.2137C88.3667 49.099 89.8627 49.0779 91.3329 49.2207C91.7567 49.2628 92.349 49.9301 92.4239 50.3819C92.4731 50.6863 91.8082 51.2645 91.354 51.4518C90.8951 51.6391 90.3005 51.494 89.5958 51.494C89.8721 51.9177 90.043 52.208 90.2396 52.4796C102.99 70.2208 93.1216 95.1774 71.672 99.4383C55.277 102.69 39.0388 91.4643 36.405 75.0552C33.7923 58.7773 44.0652 43.8431 60.1629 40.5795C63.1151 39.9802 66.1094 39.8234 69.1202 40.2143C69.9489 40.322 70.6606 40.5468 70.5717 41.4949C70.478 42.4876 69.7125 42.6538 68.8322 42.5578C55.2629 41.0548 42.6676 49.8037 39.1816 63.1435C35.1291 78.6466 45.3903 94.5148 61.1954 97.1837C76.572 99.7824 90.757 89.6289 93.2386 74.0907C94.3811 66.9432 92.7236 60.3224 88.6711 54.3174C88.6055 54.2214 88.5353 54.1254 88.451 54.0458C88.3995 53.9966 88.3199 53.9779 88.2028 53.9217Z" fill="#2B2D42"/>
<path d="M43.5898 69.9454C43.5992 65.8343 44.6878 62.0276 46.7668 58.4925C47.1835 57.7808 47.7337 57.247 48.5578 57.6918C49.3889 58.1367 49.2765 58.8788 48.841 59.6069C47.4832 61.8684 46.624 64.2962 46.2002 66.9089C44.5567 77.0016 51.119 86.9772 61.0384 89.4003C72.7792 92.2682 84.19 84.4605 85.789 72.4645C87.2662 61.3862 78.7655 50.9025 67.6896 50.0574C63.3889 49.7296 59.4277 50.6544 55.7006 52.7825C55.2698 53.0283 54.6752 53.1243 54.1812 53.0704C53.933 53.0423 53.5186 52.4711 53.5701 52.23C53.6732 51.7594 53.9471 51.1881 54.331 50.94C56.6441 49.4463 59.1983 48.4865 61.9046 48.0253C74.0505 45.9487 85.0937 53.4146 87.793 65.4855C90.5298 77.7227 81.905 90.2057 69.4501 92.0341C56.7541 93.8977 45.4791 85.4485 43.7467 72.7524C43.6179 71.823 43.6367 70.8795 43.5898 69.9454Z" fill="#2B2D42"/>
<path d="M65.9081 73.9957C63.2017 73.9887 61.3288 71.5 62.1014 68.8498C62.284 68.2177 62.167 67.8549 61.7221 67.4311C60.6756 66.4408 59.676 65.399 58.6529 64.3829C58.0934 63.8281 57.8007 63.1819 58.4047 62.5405C59.0579 61.8475 59.7368 62.1331 60.3292 62.7278C61.3756 63.7766 62.3964 64.8512 63.492 65.8462C63.766 66.0943 64.2787 66.1458 64.686 66.1669C65.4867 66.2067 66.3201 66.0241 67.0834 66.1903C67.7202 66.3284 68.0737 66.209 68.4998 65.7783C70.7964 63.4465 73.1095 61.1288 75.4483 58.8391C75.7877 58.5067 76.2747 58.1883 76.7195 58.1461C77.0239 58.1157 77.5811 58.5254 77.656 58.8297C77.7543 59.2371 77.6419 59.8622 77.368 60.1689C76.3309 61.3301 75.1931 62.4 74.0904 63.5027C72.8238 64.7716 71.5713 66.0569 70.279 67.2953C69.7546 67.7963 69.5767 68.2037 69.8038 68.9973C70.5342 71.5632 68.57 74.0027 65.9081 73.9957ZM65.9385 71.6522C66.868 71.6475 67.5563 70.9733 67.5797 70.0462C67.6031 69.0652 66.8961 68.3418 65.9151 68.3488C64.981 68.3535 64.2974 69.0231 64.2763 69.9525C64.2529 70.9288 64.9646 71.6569 65.9385 71.6522Z" fill="#2B2D42"/>
<path d="M67.0856 54.0487C67.0856 54.3601 67.1957 54.7323 67.0599 54.9664C66.8492 55.3363 66.5121 55.8046 66.1586 55.8725C65.8097 55.9403 65.0652 55.6056 65.0325 55.3714C64.9084 54.4912 64.9248 53.5688 65.0699 52.6932C65.105 52.4778 66.0462 52.136 66.2054 52.2741C66.69 52.6908 66.9967 53.3159 67.3736 53.8591C67.2776 53.9223 67.1816 53.9855 67.0856 54.0487Z" fill="#2B2D42"/>
<path d="M49.9227 71.1522C49.1337 71.206 48.3471 71.1334 48.1879 70.2087C48.127 69.8458 48.4384 69.106 48.6749 69.0639C49.52 68.914 50.419 68.9 51.2689 69.0311C51.5194 69.0709 51.8799 69.7896 51.826 70.1408C51.6575 71.2154 50.7608 71.1967 49.9227 71.1522Z" fill="#2B2D42"/>
<path d="M81.8747 71.156C81.5633 71.156 81.191 71.266 80.9569 71.1302C80.587 70.9195 80.1188 70.58 80.0509 70.2289C79.983 69.88 80.3178 69.1355 80.5519 69.1028C81.4322 68.9787 82.3546 68.9951 83.2302 69.1402C83.4456 69.1753 83.7874 70.1165 83.6492 70.2757C83.2325 70.7603 82.6074 71.067 82.0643 71.4416C82.0011 71.3479 81.9379 71.2519 81.8747 71.156Z" fill="#2B2D42"/>
<path d="M64.7774 85.9003C64.7774 85.589 64.6487 85.1605 64.8032 84.992C65.1544 84.6127 65.6811 84.0672 66.0721 84.1164C67.2263 84.2592 67.0811 85.2682 67.0952 86.1251C67.1092 86.9281 66.9711 87.7264 66.0276 87.7335C65.6085 87.7358 65.1286 87.202 64.7938 86.811C64.6393 86.6331 64.7681 86.2117 64.7681 85.9003C64.7728 85.9003 64.7751 85.9003 64.7774 85.9003Z" fill="#2B2D42"/>
<path d="M72.7395 42.0671C73.1656 41.7792 73.5636 41.318 74.0225 41.2454C74.7623 41.1283 75.2703 41.7183 75.1369 42.3879C75.0502 42.8233 74.4509 43.4273 74.0482 43.4507C73.6221 43.4765 73.1586 42.9099 72.7114 42.6009C72.7208 42.423 72.7302 42.245 72.7395 42.0671Z" fill="#2B2D42"/>
<path d="M52.2848 55.317C51.826 55.6027 51.3484 56.1364 50.9152 56.1037C50.5173 56.0732 49.8173 55.3709 49.8711 55.0759C49.953 54.6194 50.5243 53.9966 50.9574 53.9334C51.3554 53.8772 51.8447 54.4695 52.2942 54.7786C52.2895 54.9588 52.2872 55.1391 52.2848 55.317Z" fill="#2B2D42"/>
<path d="M65.9387 71.651C64.9624 71.6557 64.253 70.93 64.2764 69.9514C64.2999 69.0219 64.9835 68.3524 65.9152 68.3477C66.8962 68.343 67.6056 69.0664 67.5798 70.045C67.5587 70.9698 66.8704 71.644 65.9387 71.651Z" fill="#94DAFF"/>
</svg>
