<svg width="40" height="40" viewBox="0 0 40 40" fill="none" xmlns="http://www.w3.org/2000/svg">
<path d="M40 32.2486C37.4097 32.2486 34.8878 32.2743 32.3677 32.232C31.6674 32.221 31.4587 32.4343 31.3219 33.1237C30.9709 34.9199 30.509 36.6958 30.0342 38.4644C29.7182 39.6429 29.0051 40.1172 27.963 39.9756C27.067 39.8524 26.5515 39.1171 26.5497 37.9313C26.546 36.0689 26.5478 34.2065 26.5478 32.2982C22.1432 32.2982 17.9363 32.2982 13.5815 32.2982C13.5372 32.9711 13.4651 33.655 13.454 34.3389C13.4337 35.5946 13.454 36.8502 13.4448 38.1077C13.4374 39.1465 12.9016 39.8488 12.048 39.9738C11.0744 40.1153 10.3132 39.6851 10.0249 38.6483C9.51686 36.8263 9.0291 34.9916 8.68176 33.1329C8.5358 32.3515 8.23095 32.2265 7.54365 32.2357C5.05312 32.2688 2.56259 32.2486 0 32.2486C0 24.1042 0 16.0076 0 7.80812C1.23418 7.80812 2.48129 7.80812 3.76905 7.80812C4.04434 5.55601 4.9127 3.68998 6.54596 2.19715C10.0065 -0.96132 15.5566 -0.62672 18.594 2.93989C19.6508 4.18085 20.3196 4.15511 21.4042 2.95092C23.7321 0.366047 26.6697 -0.562374 30.0009 0.331116C33.5058 1.27241 35.5067 3.72491 36.146 7.27497C36.1718 7.41837 36.194 7.56361 36.2291 7.76952C37.4854 7.76952 38.7067 7.76952 39.9982 7.76952C40 15.9378 40 24.0344 40 32.2486ZM38.8416 31.0334C38.8416 23.6501 38.8416 16.3809 38.8416 9.05276C38.5164 9.03254 38.2467 9.00312 37.9769 9.00128C26.0065 8.99944 14.036 9.00496 2.06374 8.98474C1.30069 8.9829 1.07714 9.19064 1.08083 9.95912C1.10854 16.6364 1.11409 23.3118 1.07714 29.9873C1.07159 30.8477 1.32841 31.0536 2.15982 31.0517C14.0379 31.026 25.9178 31.0352 37.7958 31.0352C38.1247 31.0334 38.4554 31.0334 38.8416 31.0334ZM5.16028 7.73459C15.1021 7.73459 24.9681 7.73459 35.03 7.73459C34.7584 6.86132 34.6125 6.04137 34.2633 5.32069C31.9889 0.623431 25.8346 -0.154237 22.3261 3.74697C21.8254 4.30402 21.1141 4.80776 20.4046 5.01551C19.2868 5.34459 18.4406 4.69378 17.7035 3.84625C15.6527 1.48567 13.0568 0.724546 10.0582 1.57391C7.28684 2.35894 5.0679 5.20487 5.16028 7.73459ZM9.79584 32.3056C9.84758 32.6347 9.86975 32.9067 9.93256 33.1696C10.3279 34.7967 10.7085 36.4274 11.1538 38.0416C11.2314 38.3228 11.5917 38.5251 11.8208 38.7641C11.9649 38.4607 12.1829 38.1703 12.2328 37.854C12.3048 37.4073 12.2513 36.9403 12.2513 36.4825C12.2513 35.0908 12.2513 33.6991 12.2513 32.3056C11.4014 32.3056 10.618 32.3056 9.79584 32.3056ZM30.3242 32.3092C29.3635 32.3092 28.558 32.3092 27.7506 32.3092C27.7506 34.258 27.7358 36.1479 27.7691 38.0342C27.7727 38.2787 28.0388 38.5196 28.1829 38.7622C28.3991 38.5508 28.7409 38.3743 28.8111 38.1225C29.3376 36.2215 29.8125 34.3058 30.3242 32.3092Z" fill="#2B2D42"/>
<path d="M38.8412 31.0312C38.455 31.0312 38.1262 31.0312 37.7955 31.0312C25.9174 31.0312 14.0375 31.0238 2.15943 31.0477C1.32617 31.0496 1.07121 30.8437 1.07675 29.9833C1.1137 23.3097 1.10816 16.6342 1.08044 9.95877C1.07675 9.19029 1.3003 8.98255 2.06335 8.98439C14.0338 9.00645 26.0042 8.99909 37.9765 9.00093C38.2463 9.00093 38.5179 9.03219 38.8412 9.05241C38.8412 16.3787 38.8412 23.6479 38.8412 31.0312ZM2.55666 29.6119C14.2352 29.6119 25.8195 29.6119 37.4093 29.6119C37.4093 23.1773 37.4093 16.7978 37.4093 10.4184C25.7603 10.4184 14.1761 10.4184 2.55666 10.4184C2.55666 16.8309 2.55666 23.1902 2.55666 29.6119Z" fill="#94DAFF"/>
<path d="M5.16001 7.73512C5.06763 5.20356 7.28657 2.35763 10.0579 1.57445C13.0565 0.725082 15.6524 1.4862 17.7032 3.84678C18.4404 4.69431 19.2866 5.34329 20.4044 5.01604C21.1138 4.8083 21.8251 4.30456 22.3258 3.74751C25.8344 -0.151863 31.9905 0.625805 34.263 5.32123C34.6122 6.0419 34.7582 6.86185 35.0298 7.73512C24.9679 7.73512 15.1018 7.73512 5.16001 7.73512Z" fill="white"/>
<path d="M9.79541 32.3047C10.6194 32.3047 11.4028 32.3047 12.2527 32.3047C12.2527 33.6982 12.2527 35.09 12.2527 36.4817C12.2527 36.9394 12.3044 37.4064 12.2342 37.8532C12.1843 38.1712 11.9645 38.4617 11.8222 38.7632C11.5931 38.5242 11.2328 38.3201 11.1552 38.0407C10.71 36.4265 10.3294 34.7958 9.93398 33.1688C9.86747 32.9059 9.84529 32.6319 9.79541 32.3047Z" fill="white"/>
<path d="M30.3248 32.3086C29.813 34.3052 29.3382 36.2208 28.8098 38.1236C28.7396 38.3755 28.3978 38.552 28.1816 38.7634C28.0375 38.5207 27.7733 38.2799 27.7678 38.0354C27.7327 36.1473 27.7493 34.2592 27.7493 32.3104C28.5585 32.3086 29.3641 32.3086 30.3248 32.3086Z" fill="white"/>
<path d="M2.55652 29.6154C2.55652 23.1936 2.55652 16.8363 2.55652 10.4219C14.1759 10.4219 25.7602 10.4219 37.4092 10.4219C37.4092 16.8013 37.4092 23.1808 37.4092 29.6154C25.8193 29.6154 14.235 29.6154 2.55652 29.6154ZM9.09878 28.4388C10.3016 28.4388 11.2567 28.3891 12.2046 28.4553C12.9029 28.5031 13.2096 28.2623 13.4572 27.6096C14.7653 24.1717 16.938 21.3883 19.9828 19.2814C20.1214 19.3696 20.2267 19.4303 20.3246 19.502C23.242 21.6126 25.3094 24.3629 26.6046 27.7089C26.7099 27.9828 26.9704 28.3873 27.1773 28.4002C28.3598 28.4663 29.5477 28.4332 30.8706 28.4332C30.8706 25.7252 31.0258 23.1495 30.83 20.6014C30.6064 17.6985 31.0535 15.1302 33.217 13.0159C33.581 12.6593 33.8138 12.1684 34.1537 11.6683C31.4895 11.6683 29.0119 11.6683 26.5473 11.6683C26.2461 13.3965 26.2646 14.9518 27.8868 16.0292C28.1159 16.1818 28.4004 16.5237 28.3708 16.7425C28.1935 18.1085 28.6868 19.2373 29.6087 20.2889C29.2152 20.5426 28.9196 20.7356 28.6979 20.879C27.896 20.6437 28.0512 19.1196 26.9667 19.7024C26.3847 20.0149 26.0337 20.7558 25.5071 21.3883C25.3408 21.3294 25.0119 21.2099 24.6443 21.0776C25.0489 19.8899 25.0655 18.5736 26.6859 18.4265C26.8595 18.41 27.0923 18.0221 27.1348 17.7794C27.3325 16.6653 26.3016 16.3527 25.7935 15.7001C24.5556 16.5237 23.3233 17.2481 23.2013 18.9082C22.7505 18.7464 22.4401 18.6343 22.0817 18.5056C22.3718 17.4117 22.5085 16.3141 23.6374 15.713C24.066 15.485 24.441 15.1486 24.8161 14.8305C24.9898 14.6834 25.2133 14.472 25.2226 14.279C25.2669 13.4075 25.241 12.5324 25.241 11.6757C18.7191 11.6757 12.3431 11.6757 5.80825 11.6757C6.17038 12.1923 6.39208 12.6427 6.73204 12.97C8.99716 15.1504 9.40178 17.8143 9.13758 20.8128C8.92511 23.2929 9.09878 25.8079 9.09878 28.4388ZM36.2988 28.3836C36.2988 27.8505 36.2988 27.3688 36.2988 26.8871C36.2988 22.0814 36.3043 17.2775 36.2858 12.4718C36.284 12.1868 36.0992 11.9018 36.0013 11.6169C35.7482 11.8228 35.447 11.9919 35.2494 12.2419C34.6822 12.9589 34.1981 13.744 33.6069 14.4407C32.5316 15.7093 31.944 17.1433 31.9662 18.8016C32.0013 21.3662 32.066 23.9309 32.114 26.4973C32.1251 27.1261 32.1159 27.7549 32.1159 28.3854C33.5016 28.3836 34.8429 28.3836 36.2988 28.3836ZM7.92742 28.391C7.92742 25.3722 7.80363 22.4344 7.96991 19.513C8.08631 17.476 7.5616 15.8049 6.25536 14.2918C5.69924 13.6484 5.26691 12.8983 4.74035 12.2272C4.54451 11.979 4.23596 11.8191 3.97915 11.6205C3.88493 11.911 3.71125 12.1997 3.71125 12.4901C3.69462 17.5091 3.69832 22.5281 3.70202 27.5471C3.70202 27.8137 3.73527 28.0821 3.75744 28.391C5.16345 28.391 6.50663 28.391 7.92742 28.391ZM14.4808 28.3799C18.1944 28.3799 21.799 28.3799 25.5274 28.3799C24.369 25.2785 22.5584 22.791 19.9884 20.7945C17.435 22.8315 15.5985 25.2803 14.4808 28.3799Z" fill="#2B2D42"/>
<path d="M9.09883 28.4363C9.09883 25.8055 8.92516 23.2905 9.14317 20.8086C9.40553 17.81 9.00276 15.1461 6.73763 12.9657C6.39768 12.6384 6.17597 12.188 5.81384 11.6714C12.3469 11.6714 18.7247 11.6714 25.2466 11.6714C25.2466 12.5263 25.2707 13.4014 25.2282 14.2747C25.2189 14.4659 24.9954 14.6791 24.8217 14.8262C24.4466 15.1424 24.0716 15.4807 23.6429 15.7087C22.5122 16.3098 22.3774 17.4074 22.0873 18.5013C22.4476 18.63 22.7561 18.7421 23.2069 18.9039C23.3289 17.2438 24.5612 16.5194 25.7991 15.6958C26.3071 16.3485 27.3381 16.661 27.1404 17.7751C27.0979 18.0196 26.8651 18.4075 26.6914 18.4222C25.0711 18.5693 25.0563 19.8875 24.6499 21.0733C25.0175 21.2057 25.3464 21.3233 25.5127 21.384C26.0392 20.7516 26.3884 20.0107 26.9723 19.6981C28.0568 19.1153 27.9035 20.6394 28.7034 20.8747C28.9252 20.7313 29.2208 20.5383 29.6143 20.2846C28.6924 19.2348 28.1991 18.1042 28.3764 16.7382C28.4041 16.5213 28.1196 16.1775 27.8924 16.0249C26.2702 14.9475 26.2499 13.3922 26.5529 11.6641C29.0175 11.6641 31.4951 11.6641 34.1593 11.6641C33.8175 12.1641 33.5866 12.655 33.2226 13.0117C31.0591 15.1259 30.612 17.6942 30.8356 20.5971C31.0314 23.1452 30.8762 25.7209 30.8762 28.429C29.5552 28.429 28.3653 28.4639 27.1829 28.3959C26.976 28.3848 26.7155 27.9785 26.6101 27.7046C25.3168 24.3605 23.2476 21.6101 20.3302 19.4977C20.2323 19.426 20.127 19.3654 19.9884 19.2771C16.9436 21.384 14.7709 24.1656 13.4628 27.6053C13.2134 28.2598 12.9085 28.5007 12.2101 28.451C11.2568 28.3867 10.3016 28.4363 9.09883 28.4363Z" fill="white"/>
<path d="M14.4816 28.3784C15.5994 25.2806 17.4358 22.8318 19.9892 20.793C22.5573 22.7895 24.3698 25.277 25.5282 28.3784C21.7998 28.3784 18.1952 28.3784 14.4816 28.3784Z" fill="white"/>
</svg>
