<svg width="40" height="40" viewBox="0 0 40 40" fill="none" xmlns="http://www.w3.org/2000/svg">
<path d="M29.9412 17.2842C32.0434 17.5494 32.0052 17.5418 31.6704 19.4321C31.0966 22.6824 30.5762 25.9422 30.0196 29.2872C31.1865 29.2437 31.2878 29.9369 31.2209 30.8177C31.1616 31.6019 31.1635 32.3974 31.219 33.1834C31.2878 34.1381 31.1252 34.837 29.8666 34.6912C29.8666 36.1099 29.8321 37.4642 29.88 38.8147C29.9086 39.6557 29.6313 40.0269 28.736 39.9985C27.2402 39.9511 25.7405 39.9663 24.2427 39.9928C23.4641 40.008 23.1504 39.6841 23.1657 38.9188C23.1925 37.5342 23.1734 36.1477 23.1734 34.6931C21.4613 34.8522 21.8917 33.6039 21.8133 32.7251C19.0511 32.0943 17.3238 29.4691 17.7006 26.6639C17.9301 24.9516 18.1042 23.2242 18.1635 21.4986C18.1865 20.8148 17.9416 20.0591 17.6164 19.4397C17.0445 18.3449 15.7246 18.3506 15.2559 19.489C14.8848 20.3925 14.7356 21.4342 14.7165 22.4192C14.6954 23.5102 14.9173 24.6088 15.0685 25.6979C15.2751 27.1886 15.2789 28.6413 14.5998 30.0411C13.5037 32.2989 11.5468 33.1361 9.1519 32.3349C7.01903 31.6208 5.80817 30.0411 5.02198 28.0466C3.73843 24.7887 3.25638 21.3755 2.87189 17.9244C2.69399 16.3144 2.32289 14.6968 1.8045 13.1588C0.844227 10.3082 0.652939 7.49729 1.72989 4.658C3.00388 1.30541 6.15058 -0.541359 9.69899 0.140525C11.5239 0.490937 13.3124 1.07433 15.078 1.66529C16.0326 1.9854 16.8628 1.97403 17.823 1.66719C19.7761 1.04023 21.7502 0.305313 23.7683 0.0855951C28.0245 -0.374676 31.3108 2.58962 31.789 6.92337C32.0396 9.19442 31.7661 11.3613 30.9569 13.5054C30.5093 14.6987 30.2855 15.9754 29.9412 17.2842ZM28.5275 17.3922C28.9943 15.7216 29.3501 14.1551 29.8742 12.6455C30.5533 10.6908 30.7809 8.73036 30.4213 6.69418C29.7327 2.7885 26.7811 0.691714 22.8998 1.49103C21.2643 1.82819 19.6651 2.37748 18.0889 2.94003C16.9775 3.3378 15.9618 3.34727 14.8485 2.95329C13.211 2.37369 11.5526 1.80167 9.85393 1.44747C6.48916 0.746643 3.73651 2.41726 2.75712 5.65052C2.06848 7.91967 2.24255 10.1604 2.93693 12.4315C3.50314 14.2839 3.96224 16.1951 4.20326 18.1119C4.5954 21.2429 4.93781 24.3777 6.19075 27.3003C6.66132 28.397 7.32318 29.5392 8.20885 30.312C10.5464 32.3538 13.4157 31.2514 13.7715 28.1943C13.9169 26.9442 13.6166 25.6411 13.5037 24.3625C13.3564 22.6957 13.2034 21.027 13.8079 19.4113C14.3033 18.0873 15.1985 17.4092 16.3979 17.3941C17.6336 17.377 18.5958 18.0797 19.1066 19.3943C19.2194 19.6859 19.2845 19.9966 19.3495 20.3034C19.7856 22.3604 19.4279 24.3815 19.0645 26.4006C18.8235 27.7379 19.0932 28.9785 19.8602 30.0866C20.306 30.7287 20.8569 31.2988 21.7884 31.259C21.9702 30.4332 21.3753 29.1793 23.028 29.3062C22.9744 28.8743 22.9438 28.5296 22.8864 28.1905C22.3508 25.0255 21.7999 21.8642 21.2739 18.6972C21.0845 17.5607 21.2567 17.3922 22.458 17.3903C24.4952 17.3903 26.5324 17.3922 28.5275 17.3922ZM25.3062 18.6877C25.4899 19.7503 25.7041 20.7315 25.7998 21.724C25.8265 21.9968 25.4975 22.3036 25.333 22.5934C25.0595 22.3642 24.6291 22.1824 24.5411 21.8983C24.3211 21.1823 24.2465 20.4228 24.1336 19.6765C23.9519 18.487 23.9175 18.4605 22.6301 18.7673C23.1944 22.1369 23.753 25.5104 24.3402 28.8781C24.3728 29.0599 24.6233 29.3403 24.7783 29.3441C26.0714 29.3819 27.3645 29.3649 28.671 29.3649C29.2812 25.7339 29.8723 22.2241 30.471 18.665C29.945 18.665 29.5758 18.665 29.1397 18.665C28.9446 19.739 28.736 20.7807 28.5696 21.8301C28.4893 22.3358 28.2903 22.762 27.7413 22.5461C27.5041 22.4533 27.2899 21.9229 27.3186 21.6123C27.4028 20.6519 27.6055 19.7011 27.7739 18.6859C26.9169 18.6877 26.146 18.6877 25.3062 18.6877ZM23.2078 33.2819C25.4994 33.2819 27.6782 33.2819 29.8226 33.2819C29.8226 32.3709 29.8226 31.5356 29.8226 30.7362C27.5654 30.7362 25.3885 30.7362 23.2078 30.7362C23.2078 31.6284 23.2078 32.4391 23.2078 33.2819ZM24.566 34.6968C24.566 36.0606 24.566 37.3316 24.566 38.6063C25.9145 38.6063 27.2 38.6063 28.4893 38.6063C28.4893 37.2729 28.4893 36.0019 28.4893 34.6968C27.1637 34.6968 25.9011 34.6968 24.566 34.6968Z" fill="#2B2D42"/>
<path d="M36.6534 29.248C36.6534 28.2138 36.6725 27.2365 36.6476 26.2629C36.6266 25.3689 36.2364 24.6188 35.3698 24.3309C33.2159 23.6187 32.3723 21.7018 32.6727 20.0085C33.0036 18.139 34.3426 16.9817 36.6515 16.7165C37.2808 16.6445 37.9312 16.637 38.5567 16.7203C38.8092 16.7544 39.0215 17.1048 39.2511 17.3132C39.0101 17.5442 38.7977 17.9344 38.5242 17.9799C37.6863 18.1201 36.8045 18.0329 35.98 18.2129C34.6563 18.5046 34.0002 19.3058 33.9026 20.4763C33.8108 21.6014 34.379 22.4841 35.6395 23.0031C37.2445 23.666 38.0058 24.812 37.9293 26.5356C37.8891 27.4448 37.9216 28.3559 37.9216 29.2423C39.5916 29.7329 39.999 30.2879 39.999 31.9907C39.999 34.2295 40.0009 36.4684 39.999 38.7072C39.9971 39.8551 39.8747 39.9801 38.7595 39.9839C37.7093 39.9877 36.6572 39.9706 35.607 39.9896C34.9222 40.0028 34.6334 39.713 34.6372 39.0292C34.6544 36.476 34.6334 33.9208 34.6487 31.3675C34.6563 30.2273 35.1824 29.6837 36.6534 29.248ZM36.0317 33.3639C36.0317 35.1842 36.0317 36.8984 36.0317 38.5974C36.9422 38.5974 37.7801 38.5974 38.6007 38.5974C38.6007 36.8131 38.6007 35.0971 38.6007 33.3639C37.7169 33.3639 36.9001 33.3639 36.0317 33.3639ZM38.8589 31.9964C38.6179 31.4717 38.5051 30.8391 38.2736 30.7936C37.6194 30.6648 36.8963 30.6951 36.244 30.8448C36.0604 30.8864 36.024 31.5532 35.9016 31.9964C36.9174 31.9964 37.7303 31.9964 38.8589 31.9964Z" fill="#2B2D42"/>
<path d="M28.5275 17.3931C26.5324 17.3931 24.4932 17.3912 22.456 17.3931C21.2547 17.395 21.0844 17.5636 21.2719 18.7C21.798 21.867 22.347 25.0283 22.8845 28.1934C22.9419 28.5324 22.9725 28.8771 23.026 29.309C21.3733 29.1802 21.9682 30.4341 21.7865 31.2618C20.8549 31.3016 20.304 30.7315 19.8583 30.0894C19.0912 28.9813 18.8215 27.7407 19.0625 26.4034C19.4279 24.3843 19.7837 22.3614 19.3475 20.3062C19.2825 19.9994 19.2175 19.6869 19.1046 19.3971C18.5939 18.0826 17.6317 17.3798 16.396 17.3969C15.1966 17.412 14.2994 18.0901 13.8059 19.4141C13.2014 21.0298 13.3545 22.6985 13.5018 24.3653C13.6146 25.6439 13.9149 26.947 13.7696 28.1972C13.4138 31.2543 10.5444 32.3566 8.20689 30.3148C7.32122 29.542 6.65936 28.3998 6.18879 27.3031C4.93585 24.3805 4.59344 21.2438 4.2013 18.1147C3.96027 16.196 3.50118 14.2867 2.93497 12.4343C2.24441 10.1632 2.07034 7.92249 2.75898 5.65334C3.73838 2.42197 6.49103 0.751356 9.8558 1.45029C11.5525 1.80259 13.211 2.37651 14.8503 2.95611C15.9636 3.35009 16.9794 3.34062 18.0908 2.94285C19.667 2.3784 21.2662 1.831 22.9017 1.49385C26.7829 0.692638 29.7326 2.79132 30.4232 6.697C30.7828 8.73128 30.5552 10.6936 29.8761 12.6483C29.35 14.156 28.9942 15.7225 28.5275 17.3931ZM10.202 27.3903C10.1179 27.1705 10.0834 27.0834 10.049 26.9963C8.89553 23.9297 8.51295 20.7267 8.18011 17.4954C8.01177 15.8589 7.47808 14.2526 7.02472 12.6559C6.95586 12.4116 6.4279 12.296 6.11227 12.1199C6.01089 12.4438 5.78708 12.7866 5.83491 13.0878C5.92098 13.6371 6.24809 14.1504 6.33417 14.7015C6.74161 17.3079 7.02855 19.9331 7.50677 22.5262C7.81283 24.1854 8.35227 25.8049 8.84962 27.4243C8.92039 27.6516 9.34505 27.8922 9.61286 27.9017C9.81371 27.9055 10.028 27.5513 10.202 27.3903ZM4.76943 8.29185C5.11948 8.67256 5.38155 9.21618 5.70865 9.25785C6.36286 9.34119 6.33799 8.72749 6.34373 8.25017C6.34565 8.06266 6.34947 7.87135 6.38773 7.68762C6.62493 6.51895 6.87552 5.38058 8.44217 5.28777C8.64494 5.27641 8.81901 4.82561 9.00647 4.57937C8.75206 4.39185 8.49573 4.04523 8.24132 4.04712C7.31931 4.0547 6.42599 4.37291 5.98411 5.19307C5.4925 6.10982 5.2113 7.13643 4.76943 8.29185Z" fill="white"/>
<path d="M25.3062 18.6891C26.1459 18.6891 26.9168 18.6891 27.77 18.6891C27.6036 19.7043 27.3989 20.6533 27.3147 21.6155C27.2879 21.9261 27.5003 22.4565 27.7375 22.5493C28.2865 22.7652 28.4854 22.3391 28.5657 21.8333C28.7322 20.7859 28.9388 19.7441 29.1358 18.6683C29.5719 18.6683 29.9411 18.6683 30.4671 18.6683C29.8684 22.2273 29.2773 25.7371 28.6671 29.3681C27.3606 29.3681 26.0675 29.3852 24.7744 29.3473C24.6194 29.3435 24.3669 29.0632 24.3363 28.8813C23.751 25.5117 23.1905 22.1402 22.6262 18.7705C23.9136 18.4637 23.9499 18.4902 24.1298 19.6797C24.2426 20.426 24.3172 21.1855 24.5372 21.9015C24.6252 22.1856 25.0556 22.3675 25.3291 22.5967C25.4956 22.305 25.8227 22 25.7959 21.7273C25.7041 20.7328 25.4898 19.7517 25.3062 18.6891Z" fill="#94DAFF"/>
<path d="M23.2081 33.2801C23.2081 32.4372 23.2081 31.6265 23.2081 30.7344C25.3888 30.7344 27.5657 30.7344 29.8229 30.7344C29.8229 31.5318 29.8229 32.3671 29.8229 33.2801C27.6785 33.2801 25.4979 33.2801 23.2081 33.2801Z" fill="white"/>
<path d="M24.5662 34.6953C25.9014 34.6953 27.162 34.6953 28.4895 34.6953C28.4895 36.0004 28.4895 37.2713 28.4895 38.6048C27.2002 38.6048 25.9147 38.6048 24.5662 38.6048C24.5662 37.33 24.5662 36.0591 24.5662 34.6953Z" fill="white"/>
<path d="M36.0322 33.3672C36.9007 33.3672 37.7175 33.3672 38.6012 33.3672C38.6012 35.0984 38.6012 36.8145 38.6012 38.6006C37.7806 38.6006 36.9428 38.6006 36.0322 38.6006C36.0322 36.9016 36.0322 35.1874 36.0322 33.3672Z" fill="white"/>
<path d="M38.8593 31.9987C37.7307 31.9987 36.9177 31.9987 35.902 31.9987C36.0225 31.5573 36.0607 30.8887 36.2444 30.847C36.8967 30.6974 37.6198 30.6671 38.274 30.7959C38.5054 30.8414 38.6183 31.474 38.8593 31.9987Z" fill="white"/>
<path d="M10.2023 27.3914C10.0283 27.5524 9.81403 27.9066 9.61318 27.899C9.34538 27.8895 8.92071 27.649 8.84994 27.4217C8.35259 25.8041 7.81315 24.1827 7.50709 22.5235C7.02887 19.9304 6.74194 17.3052 6.33449 14.6989C6.24841 14.1496 5.92131 13.6363 5.83523 13.0851C5.7874 12.7839 6.01121 12.4411 6.11259 12.1172C6.42822 12.2933 6.95618 12.4089 7.02504 12.6532C7.4784 14.25 8.01209 15.8562 8.18043 17.4927C8.51327 20.7241 8.89585 23.9289 10.0493 26.9936C10.0818 27.0845 10.1163 27.1717 10.2023 27.3914Z" fill="#2B2D42"/>
<path d="M4.76941 8.28971C5.21129 7.1343 5.49248 6.10768 5.98601 5.19282C6.42788 4.37267 7.32312 4.05446 8.24321 4.04688C8.49763 4.04499 8.75396 4.39351 9.00837 4.57913C8.82091 4.82537 8.64492 5.27427 8.44407 5.28753C6.8755 5.38034 6.62682 6.51871 6.38963 7.68738C6.35328 7.87111 6.34945 8.06242 6.34563 8.24993C6.33989 8.72915 6.36476 9.34284 5.71055 9.25761C5.38153 9.21404 5.11947 8.67043 4.76941 8.28971Z" fill="#2B2D42"/>
</svg>
