<svg width="34" height="34" viewBox="0 0 34 34" fill="none" xmlns="http://www.w3.org/2000/svg">
<path d="M31.8844 34C21.961 34 12.039 34 2.11556 34C1.08044 33.6252 0.382311 32.9135 0 31.8844C0 25.3867 0 18.8889 0 12.3911C0.4488 11.1127 1.28444 10.2846 2.72302 10.1743C2.72302 9.3976 2.66409 8.68889 2.73964 7.99529C2.81822 7.27902 2.96631 6.55671 3.18693 5.87067C4.33387 2.32409 7.39538 -0.368711 11.6733 0.2856C13.2509 0.525867 14.8013 0.935378 16.3668 1.25422C16.6298 1.30711 16.926 1.37058 17.1708 1.30258C18.6562 0.890044 20.131 0.438222 21.6089 0C22.2632 0 22.919 0 23.5733 0C23.7637 0.0483556 23.9526 0.114844 24.1476 0.140533C27.3964 0.572711 30.8418 3.46044 31.3722 6.73804C31.5565 7.87591 31.6623 9.02738 31.8134 10.2484C32.9286 10.4932 33.6116 11.294 34 12.3911C34 18.8889 34 25.3867 34 31.8844C33.6177 32.9135 32.912 33.6177 31.8844 34ZM30.6212 9.98089C30.3235 8.1464 30.5743 5.82231 28.6114 3.89413C27.2302 2.53716 25.8294 1.57609 23.9964 1.2376C22.2012 0.906667 20.4287 1.16809 18.7665 1.90551C17.5561 2.44196 16.4061 2.53262 15.1323 2.09742C13.3658 1.49298 11.5177 1.11671 9.64844 1.38116C8.00133 1.61387 6.39804 2.0672 5.75129 3.91831C5.70898 4.0392 5.54729 4.11778 5.44151 4.21751C5.236 4.41093 4.96551 4.5696 4.84009 4.80533C4.59529 5.26773 4.39733 5.76187 4.23867 6.26204C3.604 8.25671 3.70524 10.271 4.07396 12.3004C4.74489 15.9996 5.25413 19.7366 6.09884 23.395C6.61716 25.6436 7.55707 27.809 8.45618 29.9502C8.99564 31.2332 9.61671 31.209 10.2514 29.9457C10.7546 28.9438 11.1127 27.8649 11.4844 26.8026C12.0919 25.0678 12.7387 23.3603 13.8901 21.893C16.3109 18.8073 20.1748 19.2032 21.8401 22.7528C22.2723 23.6746 22.4808 24.6991 22.8284 25.6647C23.3603 27.1456 23.8378 28.6567 24.5027 30.0787C24.9983 31.138 25.574 31.1062 26.1362 30.0545C26.6182 29.1539 27.0685 28.2064 27.336 27.2257C27.9948 24.8094 28.5509 22.3644 29.1267 19.927C29.8626 16.7975 30.5683 13.662 30.6212 9.98089ZM2.788 11.3923C1.68036 11.3409 1.1016 11.9816 1.1016 13.2781C1.09858 19.1216 1.09858 24.9636 1.1016 30.807C1.1016 32.3272 1.67582 32.8984 3.20053 32.8984C12.3926 32.8999 21.5847 32.8999 30.7768 32.8984C32.3423 32.8984 32.8999 32.3348 32.9014 30.7526C32.9029 24.9847 32.9044 19.2183 32.8969 13.4504C32.8969 13.1013 32.9196 12.7069 32.77 12.4168C32.566 12.0209 32.2048 11.7066 31.7862 11.2094C31.5596 12.8384 31.4462 14.1924 31.1712 15.5146C30.4776 18.8511 29.7281 22.1771 28.9665 25.4985C28.5283 27.4085 28.0145 29.305 26.8796 30.946C25.9246 32.3272 24.5646 32.3725 23.7532 30.9128C22.9825 29.5271 22.4823 27.9858 21.9156 26.4943C21.4804 25.3504 21.2523 24.1128 20.7113 23.0263C19.442 20.471 16.802 20.1824 14.9751 22.369C14.3707 23.0913 13.8493 23.9239 13.4731 24.7868C12.8339 26.254 12.3866 27.8044 11.7655 29.2808C11.4406 30.053 11.013 30.8267 10.4599 31.4462C9.66507 32.3332 8.76747 32.2577 8.03307 31.3057C7.57822 30.7179 7.21253 30.0424 6.91031 29.3609C5.50498 26.2042 4.66782 22.8782 4.08604 19.4858C3.62062 16.7915 3.21716 14.0881 2.788 11.3923Z" fill="#2B2D42"/>
<path d="M30.621 9.98137C30.5681 13.6624 29.8624 16.798 29.125 19.926C28.5492 22.3649 27.9932 24.8084 27.3343 27.2247C27.0668 28.2054 26.615 29.1528 26.1345 30.0535C25.5724 31.1052 24.9966 31.1369 24.501 30.0776C23.8361 28.6557 23.3586 27.1461 22.8267 25.6637C22.4791 24.6981 22.2721 23.6735 21.8384 22.7518C20.1732 19.2007 16.3092 18.8047 13.8884 21.8919C12.737 23.3607 12.0917 25.0683 11.4828 26.8015C11.1095 27.8639 10.7529 28.9428 10.2497 29.9447C9.61654 31.2064 8.99396 31.2321 8.45449 29.9492C7.55538 27.8095 6.61547 25.6425 6.09716 23.394C5.25245 19.7356 4.7432 15.9986 4.07227 12.2994C3.70507 10.2715 3.60231 8.25568 4.23698 6.26101C4.39565 5.76084 4.5936 5.2667 4.8384 4.8043C4.96383 4.56857 5.23431 4.40839 5.43983 4.21648C5.5456 4.11675 5.70729 4.03817 5.7496 3.91728C6.39636 2.06617 7.99965 1.61284 9.64676 1.38013C11.516 1.11568 13.3641 1.49195 15.1306 2.09488C16.4044 2.53008 17.5544 2.43941 18.7648 1.90297C20.4285 1.16555 22.2011 0.904126 23.9948 1.23506C25.8262 1.57355 27.227 2.53461 28.6097 3.89159C30.5756 5.82279 30.3233 8.14688 30.621 9.98137ZM17.1404 14.4422C17.5091 14.075 17.7418 13.8453 17.973 13.6141C17.707 13.4176 17.4668 13.1215 17.1706 13.0474C16.7716 12.9477 16.279 13.064 16.3516 13.608C16.3848 13.8649 16.7747 14.0735 17.1404 14.4422ZM27.1651 7.67995C26.8236 8.23755 26.5531 8.59115 26.4004 8.99159C26.3642 9.0883 26.7178 9.33461 26.8931 9.51141C27.1938 9.15781 27.5217 8.82235 27.768 8.4355C27.8073 8.37053 27.49 8.07888 27.1651 7.67995ZM23.5732 12.4203C23.5671 12.3115 23.5611 12.2042 23.5565 12.0954C23.3404 11.9503 23.0337 11.6315 22.9234 11.6889C22.5471 11.8869 22.2388 12.2178 21.9064 12.4974C22.0817 12.6651 22.3038 13.0036 22.4217 12.9703C22.8252 12.857 23.1908 12.6137 23.5732 12.4203ZM20.1837 12.4309C19.7682 12.8071 19.4735 13.0731 19.1804 13.3391C19.3677 13.5249 19.5702 13.8785 19.741 13.8634C20.1701 13.8271 20.7821 13.8574 20.7912 13.197C20.7942 12.9975 20.4829 12.792 20.1837 12.4309ZM5.93547 5.32413C5.8176 5.33168 5.70125 5.33924 5.58338 5.34528C5.464 5.57195 5.22525 5.81221 5.24943 6.02226C5.29778 6.44688 5.35671 7.00599 5.96418 6.98333C6.14551 6.97728 6.48854 6.57533 6.45529 6.41666C6.37671 6.03284 6.11983 5.68528 5.93547 5.32413ZM25.9713 10.7898C25.9592 10.6871 25.9471 10.5858 25.935 10.4831C25.7356 10.3591 25.4409 10.0826 25.3532 10.137C24.9815 10.3682 24.6702 10.6991 24.3363 10.9938C24.5161 11.1646 24.7715 11.5121 24.8636 11.4743C25.2596 11.3081 25.6071 11.0286 25.9713 10.7898ZM14.372 14.1475C14.709 13.803 15.046 13.6216 15.0762 13.398C15.1593 12.792 14.5941 12.7497 14.2103 12.7301C13.9685 12.718 13.7116 12.9915 13.4608 13.1381C13.7252 13.4312 13.9897 13.7229 14.372 14.1475ZM7.2048 9.6187C7.30454 9.61115 7.40427 9.60208 7.504 9.59453C7.62791 9.36937 7.912 9.04448 7.844 8.93568C7.62338 8.57906 7.27582 8.2995 6.97662 7.99124C6.81645 8.16653 6.48551 8.41435 6.5248 8.50501C6.69254 8.90244 6.96907 9.25302 7.2048 9.6187ZM10.2195 10.947C9.66187 10.5919 9.30374 10.3214 8.90329 10.1476C8.82925 10.1143 8.58445 10.471 8.41974 10.6478C8.74916 10.9349 9.05591 11.2613 9.42614 11.4819C9.51227 11.5333 9.81147 11.2295 10.2195 10.947ZM12.4665 12.6077C12.471 12.5049 12.4756 12.4022 12.4801 12.3009C12.0932 12.0863 11.723 11.8159 11.3075 11.6919C11.1926 11.6572 10.9478 12.0576 10.762 12.2586C11.1035 12.5064 11.4193 12.8162 11.8001 12.9703C11.9482 13.0308 12.2398 12.7391 12.4665 12.6077ZM29.3214 5.97844C28.9225 5.7019 28.7155 5.43746 28.5084 5.43746C27.8904 5.43595 27.8662 6.00262 27.8284 6.41515C27.8118 6.58893 28.1473 6.79444 28.3226 6.98484C28.6067 6.69924 28.8908 6.41364 29.3214 5.97844Z" fill="white"/>
<path d="M2.78772 11.3914C3.21688 14.0872 3.62186 16.7906 4.08275 19.4834C4.66452 22.8758 5.50168 26.2018 6.90701 29.3585C7.21075 30.04 7.57644 30.7155 8.02977 31.3033C8.76568 32.2553 9.66328 32.3309 10.4566 31.4438C11.0097 30.8243 11.4373 30.0506 11.7622 29.2784C12.3833 27.8021 12.8306 26.2517 13.4698 24.7844C13.846 23.9215 14.3674 23.0889 14.9718 22.3666C16.7987 20.18 19.4387 20.4686 20.708 23.0239C21.2475 24.1104 21.4771 25.348 21.9123 26.4919C22.479 27.9849 22.9792 29.5247 23.7499 30.9104C24.5613 32.3701 25.9213 32.3248 26.8763 30.9437C28.0112 29.3041 28.525 27.4061 28.9632 25.4961C29.7248 22.1747 30.4743 18.8487 31.1679 15.5122C31.4429 14.1915 31.5563 12.8375 31.7829 11.207C32.2015 11.7042 32.5611 12.0185 32.7667 12.4144C32.9163 12.7045 32.8936 13.0989 32.8936 13.448C32.8996 19.2159 32.8996 24.9823 32.8981 30.7502C32.8981 32.3324 32.339 32.896 30.7735 32.896C21.5814 32.8975 12.3893 32.8975 3.19724 32.896C1.67252 32.896 1.0983 32.3248 1.0983 30.8046C1.09679 24.9612 1.09528 19.1192 1.0983 13.2757C1.10132 11.9807 1.68008 11.34 2.78772 11.3914ZM13.1615 29.7151C13.1434 31.0827 14.2918 32.2598 15.676 32.2931C17.0209 32.3248 18.2494 31.1386 18.2706 29.7877C18.2917 28.4397 17.1085 27.2263 15.7485 27.2021C14.3931 27.178 13.1796 28.3566 13.1615 29.7151ZM20.7775 24.9627C20.3891 24.6831 20.1776 24.4141 19.96 24.4111C19.7877 24.4081 19.4779 24.7239 19.4704 24.9083C19.4613 25.0911 19.7439 25.4311 19.9162 25.4432C20.1323 25.4553 20.3665 25.2075 20.7775 24.9627ZM3.15039 20.4067C2.80435 20.1528 2.59732 19.8823 2.41448 19.8989C2.20897 19.9171 2.02612 20.1936 1.83421 20.3583C2.02159 20.5563 2.18177 20.8509 2.40692 20.9159C2.5535 20.9582 2.79679 20.6621 3.15039 20.4067ZM31.8675 21.883C31.6046 22.2548 31.3326 22.4724 31.3341 22.6869C31.3356 22.8668 31.653 23.0466 31.8313 23.2249C32.0156 23.0345 32.3012 22.8653 32.3496 22.6446C32.3859 22.4799 32.1139 22.2487 31.8675 21.883ZM4.28372 29.4446C3.94372 29.2044 3.72764 28.9339 3.54177 28.952C3.34986 28.9717 3.01741 29.3101 3.04764 29.4401C3.09901 29.6607 3.36195 29.9342 3.58106 29.9811C3.73519 30.0128 3.96035 29.7061 4.28372 29.4446ZM21.6827 31.938C21.9229 31.5874 22.207 31.3486 22.1692 31.1809C22.1239 30.9739 21.8096 30.8273 21.6116 30.6535C21.456 30.8379 21.1779 31.0207 21.1764 31.2066C21.1764 31.403 21.4363 31.6025 21.6827 31.938ZM30.9382 28.343C30.5771 28.0816 30.3459 27.7975 30.1978 27.8353C29.9756 27.8912 29.8124 28.1753 29.6235 28.3627C29.8079 28.5289 29.9802 28.8039 30.1827 28.8296C30.3579 28.8508 30.571 28.5924 30.9382 28.343Z" fill="#94DAFF"/>
<path d="M17.1408 14.4427C16.7751 14.074 16.3852 13.8654 16.352 13.6085C16.281 13.0645 16.7721 12.9482 17.171 13.0479C17.4672 13.122 17.7075 13.4181 17.9734 13.6146C17.7407 13.8458 17.5095 14.0755 17.1408 14.4427Z" fill="#2B2D42"/>
<path d="M27.1654 7.67969C27.4903 8.07862 27.8091 8.37027 27.7683 8.43524C27.522 8.8236 27.1941 9.15907 26.8934 9.51115C26.7181 9.33435 26.3645 9.08804 26.4008 8.99133C26.5534 8.59089 26.8239 8.23578 27.1654 7.67969Z" fill="#2B2D42"/>
<path d="M23.5734 12.4218C23.1926 12.6153 22.8254 12.8586 22.4219 12.9719C22.3025 13.0051 22.0804 12.6666 21.9066 12.4989C22.2406 12.2193 22.5473 11.8899 22.9236 11.6905C23.0324 11.633 23.3391 11.9504 23.5567 12.097C23.5613 12.2058 23.5673 12.3146 23.5734 12.4218Z" fill="#2B2D42"/>
<path d="M20.184 12.4297C20.4832 12.7908 20.7945 12.9964 20.7915 13.1958C20.7824 13.8577 20.1704 13.826 19.7413 13.8622C19.5705 13.8773 19.368 13.5237 19.1807 13.3379C19.4753 13.0719 19.7685 12.806 20.184 12.4297Z" fill="#2B2D42"/>
<path d="M5.93555 5.32422C6.11991 5.68537 6.3768 6.03293 6.45538 6.41675C6.48862 6.57542 6.1456 6.97737 5.96426 6.98342C5.3568 7.00609 5.29786 6.44697 5.24951 6.02235C5.22533 5.81231 5.46409 5.57204 5.58346 5.34537C5.69982 5.33782 5.81769 5.33026 5.93555 5.32422Z" fill="#2B2D42"/>
<path d="M25.9712 10.7887C25.607 11.0275 25.2595 11.307 24.8636 11.4732C24.7714 11.5125 24.516 11.1635 24.3362 10.9927C24.6701 10.698 24.9799 10.3686 25.3532 10.1359C25.4408 10.0815 25.7355 10.358 25.9349 10.482C25.947 10.5847 25.9591 10.6875 25.9712 10.7887Z" fill="#2B2D42"/>
<path d="M14.3718 14.1483C13.9895 13.7237 13.7251 13.4305 13.4622 13.1389C13.713 12.9938 13.9684 12.7188 14.2117 12.7309C14.5955 12.7505 15.1606 12.7928 15.0775 13.3988C15.0458 13.6224 14.7103 13.8037 14.3718 14.1483Z" fill="#2B2D42"/>
<path d="M7.20519 9.61965C6.96945 9.25245 6.69292 8.90188 6.52519 8.50596C6.4859 8.4153 6.81683 8.16748 6.97701 7.99219C7.27621 8.30045 7.62376 8.58001 7.84439 8.93663C7.91087 9.04543 7.62679 9.37032 7.50439 9.59548C7.40465 9.60454 7.30492 9.6121 7.20519 9.61965Z" fill="#2B2D42"/>
<path d="M10.2199 10.9474C9.81195 11.23 9.51275 11.5337 9.4251 11.4808C9.05488 11.2602 8.74812 10.9338 8.4187 10.6467C8.58492 10.4699 8.82821 10.1148 8.90226 10.1465C9.30421 10.3218 9.66235 10.5923 10.2199 10.9474Z" fill="#2B2D42"/>
<path d="M12.4663 12.6054C12.2396 12.7368 11.948 13.0285 11.7984 12.968C11.4191 12.8154 11.1018 12.5041 10.7603 12.2563C10.9461 12.0553 11.1909 11.6549 11.3058 11.6896C11.7198 11.8135 12.09 12.084 12.4784 12.2986C12.4754 12.3998 12.4708 12.5026 12.4663 12.6054Z" fill="#2B2D42"/>
<path d="M29.3219 5.97848C28.8913 6.41368 28.6072 6.69928 28.3231 6.98488C28.1478 6.79448 27.8123 6.58897 27.829 6.41519C27.8667 6.00115 27.8909 5.43599 28.509 5.4375C28.716 5.4375 28.923 5.70195 29.3219 5.97848Z" fill="#2B2D42"/>
<path d="M13.162 29.7165C13.1801 28.358 14.3935 27.1793 15.749 27.2035C17.1075 27.2277 18.2907 28.4411 18.271 29.789C18.2499 31.1399 17.0228 32.3262 15.6764 32.2944C14.2938 32.2627 13.1438 31.084 13.162 29.7165ZM15.7142 31.1535C16.5332 31.152 17.1513 30.5325 17.1347 29.7316C17.118 28.973 16.497 28.3383 15.749 28.3157C14.9738 28.293 14.3013 28.9488 14.2953 29.7331C14.2892 30.5521 14.8922 31.155 15.7142 31.1535Z" fill="#2B2D42"/>
<path d="M20.7777 24.9632C20.3666 25.208 20.1324 25.4574 19.9163 25.4423C19.7441 25.4302 19.4615 25.0902 19.4705 24.9073C19.4796 24.723 19.7879 24.4072 19.9601 24.4102C20.1762 24.4147 20.3893 24.6837 20.7777 24.9632Z" fill="#2B2D42"/>
<path d="M3.15085 20.4069C2.79725 20.6623 2.55396 20.9585 2.40889 20.9161C2.18374 20.8512 2.02356 20.5565 1.83618 20.3585C2.02809 20.1938 2.21094 19.9173 2.41645 19.8992C2.59627 19.8825 2.8048 20.1545 3.15085 20.4069Z" fill="#2B2D42"/>
<path d="M31.868 21.8828C32.1128 22.2485 32.3863 22.4812 32.3501 22.6459C32.3017 22.8665 32.0161 23.0343 31.8317 23.2262C31.6534 23.0464 31.3361 22.8681 31.3346 22.6882C31.3346 22.4706 31.6051 22.2545 31.868 21.8828Z" fill="#2B2D42"/>
<path d="M4.2844 29.4466C3.95951 29.708 3.73436 30.0163 3.58174 29.9831C3.36414 29.9362 3.09969 29.6627 3.04831 29.4421C3.01809 29.3121 3.35054 28.9736 3.54245 28.954C3.72982 28.9359 3.9444 29.2048 4.2844 29.4466Z" fill="#2B2D42"/>
<path d="M21.6833 31.9368C21.437 31.6013 21.1771 31.4019 21.1786 31.2054C21.1801 31.0195 21.4582 30.8367 21.6138 30.6523C21.8118 30.8261 22.1246 30.9727 22.1714 31.1797C22.2077 31.3459 21.9236 31.5862 21.6833 31.9368Z" fill="#2B2D42"/>
<path d="M30.9384 28.3432C30.5712 28.594 30.3596 28.8524 30.1813 28.8297C29.9788 28.8041 29.8081 28.529 29.6222 28.3628C29.8111 28.1754 29.9743 27.8913 30.1964 27.8354C30.346 27.7977 30.5772 28.0817 30.9384 28.3432Z" fill="#2B2D42"/>
<path d="M15.7138 31.1549C14.8917 31.1564 14.2888 30.5535 14.2948 29.7345C14.3009 28.9487 14.9733 28.2929 15.7485 28.3171C16.4965 28.3397 17.1176 28.9729 17.1342 29.733C17.1508 30.5339 16.5328 31.1534 15.7138 31.1549Z" fill="white"/>
</svg>
