<svg width="35" height="35" viewBox="0 0 35 35" fill="none" xmlns="http://www.w3.org/2000/svg">
<path d="M34.994 17.5021C34.994 19.8568 34.9979 22.2115 34.9932 24.5662C34.9893 26.6112 34.635 28.5774 33.5681 30.357C32.1266 32.7617 29.9617 34.1497 27.2551 34.7193C26.573 34.8628 25.8666 34.9557 25.1705 34.958C19.9938 34.9767 14.8155 35.0517 9.64106 34.9401C4.70705 34.834 0.929662 31.5313 0.195257 26.7407C0.103164 26.1392 0.0407279 25.5267 0.0399475 24.9189C0.0313625 19.7679 -0.0638526 14.6129 0.0742873 9.46499C0.208525 4.4544 3.51686 0.79671 8.49536 0.145223C9.22742 0.0492555 9.97197 0.0102443 10.7111 0.00790365C15.3282 -0.0037997 19.9461 0.000101416 24.5633 0.00322231C26.2288 0.00478276 27.8584 0.234949 29.3763 0.955095C32.3717 2.37588 34.1496 4.75947 34.7669 7.99661C34.9246 8.82131 34.9737 9.67487 34.9839 10.5167C35.0128 12.8441 34.994 15.1731 34.994 17.5021ZM17.572 3.27002C17.572 3.26924 17.572 3.26846 17.572 3.26846C15.2049 3.26846 12.8378 3.25754 10.4707 3.27548C9.82447 3.28016 9.16811 3.31995 8.5336 3.43621C6.22659 3.86143 4.58061 5.12773 3.74319 7.35761C3.37326 8.34303 3.26087 9.37449 3.26009 10.42C3.25853 15.0506 3.25385 19.6812 3.26555 24.3119C3.26711 24.9852 3.30223 25.6671 3.41306 26.3303C3.79938 28.6398 5.01845 30.3219 7.23883 31.1981C8.26747 31.6038 9.34761 31.7396 10.4457 31.7404C15.0753 31.7427 19.7058 31.7466 24.3354 31.7349C24.9832 31.7334 25.6395 31.7037 26.2756 31.5945C28.6131 31.1942 30.3449 29.9685 31.3017 27.7527C31.7356 26.7477 31.8816 25.6835 31.8816 24.5959C31.8824 19.874 31.8871 15.152 31.8753 10.4309C31.8738 9.84886 31.8316 9.25745 31.7208 8.68789C31.3641 6.85515 30.508 5.32279 28.8847 4.3085C27.7429 3.59459 26.4723 3.2864 25.14 3.27626C22.6184 3.25676 20.0952 3.27002 17.572 3.27002Z" fill="#2B2D42"/>
<path d="M17.5721 3.27052C20.0953 3.27052 22.6185 3.25647 25.1409 3.27598C26.4739 3.28612 27.7437 3.59431 28.8855 4.30821C30.5096 5.32328 31.3658 6.85486 31.7217 8.68761C31.8325 9.25795 31.8747 9.84936 31.8762 10.4306C31.8879 15.1525 31.8832 19.8745 31.8825 24.5956C31.8825 25.6832 31.7365 26.7474 31.3026 27.7524C30.3457 29.9682 28.6131 31.1932 26.2765 31.5942C25.6396 31.7034 24.9833 31.7331 24.3363 31.7346C19.7066 31.7463 15.0762 31.7417 10.4466 31.7401C9.3477 31.7393 8.26834 31.6043 7.2397 31.1978C5.01854 30.3217 3.80025 28.6403 3.41393 26.33C3.3031 25.6676 3.26798 24.9849 3.26642 24.3116C3.25394 19.681 3.2594 15.0503 3.26096 10.4197C3.26096 9.37421 3.37334 8.34275 3.74406 7.35733C4.58226 5.12745 6.22824 3.86115 8.53525 3.4367C9.16976 3.31967 9.82534 3.28066 10.4723 3.27598C12.8394 3.25803 15.2066 3.26896 17.5737 3.26896C17.5721 3.26974 17.5721 3.27052 17.5721 3.27052ZM17.4839 8.41219C12.5077 8.41843 8.47203 12.4662 8.47516 17.4472C8.47828 22.4359 12.5085 26.4572 17.5034 26.4556C22.4788 26.4541 26.5176 22.4086 26.5153 17.4269C26.5145 12.4662 22.446 8.40517 17.4839 8.41219ZM26.8876 10.2309C28.0122 10.227 28.9214 9.32193 28.9245 8.20231C28.9277 7.06552 28.0083 6.15188 26.8657 6.155C25.7356 6.15812 24.8404 7.05382 24.8358 8.18593C24.8311 9.33754 25.7309 10.2348 26.8876 10.2309Z" fill="white"/>
<path d="M17.4838 8.41016C22.4459 8.40392 26.5144 12.4642 26.516 17.4249C26.5175 22.4066 22.4795 26.4521 17.5041 26.4536C12.5084 26.4552 8.47895 22.4339 8.47583 17.4452C8.47193 12.4642 12.5076 8.41641 17.4838 8.41016ZM17.5096 23.1907C20.6899 23.186 23.3013 20.5707 23.2841 17.4093C23.2669 14.2603 20.6595 11.6551 17.5142 11.6442C14.3479 11.6333 11.7405 14.2431 11.7389 17.4241C11.7366 20.616 14.3191 23.1962 17.5096 23.1907Z" fill="#2B2D42"/>
<path d="M26.8875 10.2321C25.7317 10.236 24.831 9.33879 24.8357 8.18718C24.8404 7.05508 25.7356 6.15938 26.8657 6.15626C28.009 6.15314 28.9284 7.06756 28.9245 8.20357C28.9214 9.32319 28.0121 10.2282 26.8875 10.2321Z" fill="#2B2D42"/>
<path d="M17.5096 23.1911C14.3191 23.1958 11.7373 20.6156 11.7389 17.4245C11.7405 14.2435 14.3479 11.6336 17.5142 11.6446C20.6595 11.6555 23.2669 14.2607 23.2841 17.4096C23.3013 20.5719 20.6899 23.1864 17.5096 23.1911Z" fill="#94DAFF"/>
</svg>
