<svg width="40" height="40" viewBox="0 0 40 40" fill="none" xmlns="http://www.w3.org/2000/svg">
<path d="M10.0258 19.3217C9.95676 17.0331 9.6167 14.8763 9.88283 12.7928C10.4841 8.08362 13.7738 6.33721 18.0959 8.36451C19.4192 8.98492 20.4394 9.08994 21.6616 8.32055C22.2284 7.96394 22.9504 7.78563 23.6255 7.67572C26.9497 7.14325 29.409 8.88966 29.7934 12.3556C30.0398 14.571 29.7909 16.8401 29.7613 19.268C29.818 19.2704 30.2394 19.3144 30.6583 19.3168C33.3664 19.3241 36.077 19.2924 38.7852 19.351C39.1942 19.3608 39.5959 19.7662 40 19.9885C39.6008 20.2181 39.2065 20.6358 38.8024 20.6431C35.8479 20.6993 32.8909 20.7164 29.9388 20.648C29.0048 20.626 28.581 20.9606 28.4208 21.8009C28.0808 23.5937 27.8097 25.4012 27.3662 27.1671C27.0434 28.4543 26.553 29.7122 26.0059 30.9262C25.6363 31.7444 25.0252 32.4918 23.9656 32.4308C22.8641 32.3697 22.4649 31.4855 22.2259 30.6208C21.8932 29.4142 21.7232 28.1637 21.4497 26.94C21.2402 25.9971 21.0874 25.0201 20.7055 24.1457C20.2989 23.2151 19.3354 23.2102 19.0101 24.1677C18.5346 25.5721 18.367 27.0767 18.0146 28.5252C17.7756 29.5046 17.5538 30.5109 17.1275 31.4122C16.5238 32.6799 15.2966 32.8265 14.3479 31.781C12.8891 30.1714 12.4998 28.1173 12.0981 26.0802C11.8074 24.6098 11.5092 23.1418 11.2455 21.6665C11.1051 20.8776 10.6763 20.6431 9.88037 20.6553C7.00714 20.6993 4.13391 20.6822 1.26068 20.6602C0.871339 20.6578 0.462286 20.5527 0.109909 20.3915C0.0039492 20.3427 -0.0477985 19.8249 0.0581611 19.7369C0.309507 19.5293 0.666813 19.3412 0.984692 19.3388C3.6115 19.307 6.23832 19.3193 8.86513 19.3193C9.31361 19.3217 9.76209 19.3217 10.0258 19.3217ZM21.775 9.91063C23.3791 10.8022 24.5693 11.8842 24.6482 13.7014C24.6654 14.0898 24.3204 14.4953 24.143 14.891C23.8375 14.5441 23.32 14.2266 23.2707 13.848C23.1253 12.7171 22.5413 11.933 21.5827 11.4641C20.0155 10.6996 18.4286 9.94972 16.7948 9.34397C14.0227 8.31566 12.0267 9.43434 11.3613 12.2677C10.8636 14.3829 11.1346 16.4566 11.6718 18.523C11.8295 19.1287 12.1671 19.3388 12.8078 19.3339C17.5218 19.3095 22.2382 19.3388 26.9522 19.2851C27.3243 19.2802 27.9625 18.8112 28.0167 18.4839C28.2878 16.8132 28.6475 15.101 28.5342 13.4328C28.2582 9.34885 25.417 7.86868 21.775 9.91063ZM27.2159 20.7579C22.2653 20.7579 17.4602 20.7579 12.4973 20.7579C13.6259 24.2092 13.1429 28.0122 15.7747 31.2852C16.095 30.2007 16.3685 29.4484 16.5386 28.6742C16.9033 27.0157 17.1177 25.3206 17.5858 23.6938C17.8815 22.668 18.7243 22.0402 19.917 22.0573C21.0628 22.0744 21.807 22.7217 22.1347 23.6865C22.5216 24.8272 22.6768 26.0435 22.943 27.2257C23.2239 28.4836 23.5171 29.7367 23.803 30.9946C23.9533 30.9775 24.1036 30.9628 24.2514 30.9457C26.5357 27.9609 26.1267 24.2068 27.2159 20.7579Z" fill="#2B2D42"/>
<path d="M35.5471 4.49484C25.0374 4.49484 14.7051 4.49484 4.17572 4.49484C4.17572 4.94427 4.17572 5.37171 4.17572 5.79915C4.17572 8.40289 4.20775 11.0091 4.13875 13.6104C4.1289 13.9938 3.64345 14.3651 3.37732 14.7413C3.16047 14.3773 2.75881 14.0158 2.75142 13.647C2.70214 10.4742 2.74403 7.29887 2.71199 4.12602C2.70214 3.26137 3.05205 3.00246 3.88248 3.00246C14.5129 3.01956 25.1459 3.022 35.7763 3.00002C36.6733 2.99757 37.0183 3.28335 37.0084 4.19441C36.9714 7.32574 37.0183 10.4595 36.9616 13.5933C36.9542 13.9792 36.5057 14.3553 36.2593 14.7364C36.0227 14.3309 35.5866 13.9279 35.5792 13.5175C35.52 10.5523 35.5471 7.58953 35.5471 4.49484Z" fill="#2B2D42"/>
<path d="M35.5468 35.4627C35.5468 32.622 35.5468 29.862 35.5468 27.1019C35.5468 26.7771 35.4507 26.4034 35.5789 26.1371C35.744 25.7976 36.0914 25.546 36.3625 25.2578C36.5719 25.5509 36.9415 25.8318 36.9637 26.1371C37.0401 27.1899 36.9958 28.2524 36.9958 29.31C36.9958 31.4667 36.9662 33.6235 37.0105 35.7802C37.0278 36.6669 36.7272 37.0015 35.8056 36.9991C25.1726 36.9771 14.5397 36.9771 3.90679 36.9991C2.97287 37.0015 2.70427 36.6473 2.71413 35.7705C2.75109 32.6367 2.70673 29.5029 2.75602 26.3716C2.76095 25.9979 3.15029 25.6291 3.36221 25.2603C3.63326 25.6315 4.13349 25.9955 4.14088 26.3716C4.20495 29.3735 4.17785 32.3802 4.17785 35.4651C14.6333 35.4627 24.9977 35.4627 35.5468 35.4627Z" fill="#2B2D42"/>
<path d="M21.775 9.91341C25.4146 7.87145 28.2582 9.35162 28.5318 13.4331C28.6426 15.1013 28.2853 16.8136 28.0143 18.4842C27.9601 18.8115 27.3218 19.2829 26.9498 19.2854C22.2358 19.3391 17.5194 19.3098 12.8054 19.3342C12.1622 19.3367 11.8271 19.1291 11.6694 18.5233C11.1322 16.4569 10.8611 14.3832 11.3589 12.268C12.0267 9.43467 14.0202 8.31599 16.7924 9.3443C18.4262 9.95004 20.0131 10.6999 21.5803 11.4644C22.5389 11.9334 23.1229 12.7174 23.2683 13.8483C23.3176 14.2269 23.8375 14.5444 24.1406 14.8913C24.318 14.4931 24.663 14.0901 24.6458 13.7018C24.5694 11.887 23.3792 10.8049 21.775 9.91341Z" fill="white"/>
<path d="M27.2161 20.7603C26.1269 24.2091 26.5359 27.9633 24.2541 30.9456C24.1038 30.9627 23.9535 30.9774 23.8056 30.9945C23.5173 29.739 23.2266 28.4835 22.9456 27.2256C22.682 26.0434 22.5243 24.8271 22.1374 23.6864C21.8097 22.7216 21.0679 22.0743 19.9196 22.0572C18.727 22.0401 17.8842 22.6679 17.5885 23.6937C17.1203 25.3205 16.9059 27.0156 16.5412 28.6741C16.3712 29.4483 16.0977 30.2006 15.7774 31.2851C13.1456 28.0121 13.6311 24.2091 12.5 20.7578C17.4579 20.7603 22.2655 20.7603 27.2161 20.7603Z" fill="#94DAFF"/>
</svg>
