<svg width="6" height="10" viewBox="0 0 6 10" fill="none" xmlns="http://www.w3.org/2000/svg">
<path d="M5.99955 1.64012C6.00008 1.73857 5.9796 1.83621 5.93928 1.92717C5.89896 2.01812 5.83966 2.10067 5.76488 2.16983L2.56492 5.16823L5.76488 8.16664C5.83976 8.31183 5.86259 8.47576 5.83006 8.6341C5.79763 8.79244 5.71155 8.93674 5.58462 9.04559C5.45758 9.15445 5.29662 9.22204 5.12542 9.23834C4.95423 9.25465 4.78196 9.2188 4.63423 9.13612L0.900951 5.63798C0.75114 5.49745 0.666992 5.30696 0.666992 5.10826C0.666992 4.90967 0.75114 4.71907 0.900951 4.57855L4.63423 1.08042C4.7842 0.940094 4.98761 0.861235 5.19956 0.861235C5.41161 0.861235 5.61491 0.940094 5.76488 1.08042C5.84371 1.15308 5.90525 1.24053 5.94568 1.33688C5.98611 1.43333 6.00445 1.53667 5.99955 1.64012Z" fill="black"/>
</svg>
