<svg width="15" height="15" viewBox="0 0 15 15" fill="none" xmlns="http://www.w3.org/2000/svg">
<path d="M13.6781 0.630166H1.95472C1.80361 0.623089 1.65259 0.645877 1.5103 0.69724C1.36801 0.748603 1.23726 0.827522 1.1255 0.929476C1.01376 1.03144 0.923213 1.15444 0.859064 1.29143C0.794915 1.42843 0.75841 1.57674 0.751648 1.72786V13.4776C0.7605 13.7938 0.890097 14.0947 1.11382 14.3184C1.33755 14.5421 1.63844 14.6718 1.95472 14.6806H13.6781C13.9855 14.6669 14.2754 14.5333 14.4855 14.3084C14.6957 14.0835 14.8093 13.7853 14.8021 13.4776V1.72786C14.8046 1.58077 14.7771 1.43472 14.7211 1.29866C14.6652 1.16261 14.582 1.03941 14.4767 0.936624C14.3715 0.833845 14.2464 0.753652 14.109 0.700955C13.9717 0.648257 13.8251 0.624169 13.6781 0.630166ZM5.14241 12.3447H3.09631V6.08352H5.14241V12.3447ZM4.16766 5.13509C4.02488 5.14007 3.88261 5.11546 3.7498 5.06283C3.61698 5.01019 3.49648 4.93065 3.39588 4.82922C3.29527 4.72778 3.21672 4.60664 3.16517 4.4734C3.11361 4.34016 3.09018 4.1977 3.09631 4.05496C3.09 3.91068 3.11391 3.76668 3.16652 3.63219C3.21913 3.49769 3.29927 3.37568 3.4018 3.27398C3.50433 3.17228 3.62698 3.09313 3.76189 3.04162C3.89681 2.9901 4.041 2.96735 4.18522 2.97483C4.328 2.96986 4.47027 2.99446 4.60308 3.0471C4.7359 3.09973 4.8564 3.17927 4.95701 3.2807C5.05762 3.38214 5.13617 3.50328 5.18771 3.63652C5.23927 3.76976 5.26271 3.91223 5.25657 4.05496C5.26288 4.19924 5.23897 4.34324 5.18636 4.47773C5.13375 4.61223 5.05361 4.73424 4.95109 4.83594C4.84855 4.93764 4.7259 5.01679 4.59099 5.0683C4.45607 5.11983 4.31188 5.14257 4.16766 5.13509ZM12.4662 12.3447H10.4113V8.91995C10.4113 8.10327 10.1215 7.54125 9.39267 7.54125C9.16628 7.54318 8.94595 7.6151 8.76207 7.74718C8.57809 7.87925 8.43952 8.06498 8.36523 8.2789C8.30815 8.43925 8.28426 8.60952 8.29498 8.77945V12.3447H6.27523V6.08352H8.29498V6.96167C8.47456 6.63175 8.74178 6.35794 9.06722 6.17037C9.39267 5.98288 9.7636 5.88899 10.1391 5.89908C11.4651 5.89908 12.4662 6.77726 12.4662 8.64772V12.3447Z" fill="#0184C9"/>
</svg>
