<svg width="43" height="43" viewBox="0 0 43 43" fill="none" xmlns="http://www.w3.org/2000/svg">
<path d="M18.4531 8.94969C18.247 9.48706 18.1089 9.74608 18.0487 10.0225C17.4265 12.8331 15.8322 14.9941 13.7188 16.9175C11.3565 19.0669 9.16142 21.4 6.89246 23.652C6.75442 23.7892 6.63193 24.0134 6.47445 24.0386C6.16531 24.0908 5.83478 24.0328 5.51398 24.0192C5.53148 23.7042 5.42843 23.2982 5.58786 23.0933C6.02143 22.5386 6.56777 22.0689 7.06939 21.5663C9.49001 19.1462 11.8931 16.7068 14.3448 14.3176C15.1575 13.527 15.7447 12.661 16.0305 11.5669C16.2172 10.8556 16.4738 10.1578 16.7441 9.47159C17.096 8.57662 17.3079 7.81503 16.3902 7.01477C15.7 6.41361 15.8322 5.27895 16.5205 4.56181C17.8406 3.18939 19.19 1.84017 20.5762 0.53734C21.3753 -0.214591 22.4855 -0.166267 23.2904 0.612726C24.9139 2.18424 26.516 3.78282 28.1005 5.393C28.9249 6.23191 28.921 7.34531 28.1491 8.24995C28.0053 8.41812 27.8478 8.57662 27.6572 8.78152C28.4622 9.45613 28.7383 10.2583 28.676 11.277C28.6527 11.6597 29.1641 12.0753 29.5743 12.6881C30.1304 12.0753 30.5348 11.5805 30.9878 11.1378C31.8841 10.2641 33.0662 10.2718 33.9217 11.1185C34.7188 11.9091 34.6955 13.0438 33.8342 13.9523C33.2801 14.5379 32.7337 15.1449 32.1018 15.6378C31.8608 15.8272 31.3883 15.7267 31.0228 15.7577C31.0714 15.4194 31.0053 14.9922 31.19 14.7622C31.6488 14.1842 32.2788 13.7396 32.7201 13.1539C32.9282 12.8775 32.8582 12.3962 32.9145 12.0077C32.549 12.0695 32.0668 12.0019 31.8394 12.2126C30.6281 13.3279 29.4596 14.4916 28.3339 15.6919C28.1141 15.9258 28.1472 16.3936 28.0636 16.7531C28.4038 16.7763 28.746 16.7879 29.0843 16.8227C29.4246 16.8575 29.7629 16.9136 30.1012 16.9619C29.9981 17.2944 29.9943 17.7254 29.7765 17.94C29.0805 18.6204 27.9139 18.5102 27.1537 17.7757C26.3974 17.045 26.3099 15.891 27.0506 15.085C27.525 14.5689 28.1297 14.1726 28.6585 13.7358C28.1025 12.922 27.6845 12.5779 26.8659 12.5818C26.1679 12.5837 25.4661 12.1604 24.5678 11.8608C23.7959 12.6977 22.7169 13.4014 21.315 12.0502C20.8892 13.2544 20.5509 14.3852 20.0902 15.4638C19.7674 16.2177 19.4077 17.0296 18.8439 17.5979C14.1621 22.324 9.42584 26.996 4.71488 31.6932C3.87496 32.5302 2.88338 32.7795 1.78487 32.4142C0.707746 32.0566 0.00780936 31.2428 3.2292e-05 30.1255C-0.00385624 29.4432 0.344168 28.7319 0.651362 28.0901C0.738854 27.9084 1.24048 27.9219 1.55156 27.8465C1.60405 28.1829 1.73432 28.5308 1.6896 28.8556C1.63516 29.246 1.28714 29.6307 1.32213 29.9941C1.42907 31.0959 2.7259 31.5308 3.60082 30.7692C4.28131 30.1758 4.89959 29.5128 5.54314 28.8768C9.64944 24.8079 13.7616 20.7448 17.8445 16.6546C18.2373 16.2602 18.5367 15.7287 18.7428 15.2068C19.1763 14.103 19.4719 12.9471 19.9132 11.8472C20.1932 11.1494 20.1329 10.6584 19.5244 10.181C19.1569 9.88139 18.8886 9.45613 18.4531 8.94969ZM22.8452 11.4819C23.0532 11.3466 23.236 11.2654 23.3701 11.134C24.6125 9.91038 25.8491 8.681 27.0798 7.44776C27.5075 7.02057 27.4473 6.61851 27.0195 6.20098C25.5205 4.73192 24.0312 3.25318 22.5535 1.76285C22.1005 1.30667 21.6961 1.26028 21.2314 1.72806C20.0707 2.89558 18.9042 4.0573 17.7298 5.2113C17.2826 5.65202 17.2146 6.05794 17.6948 6.52959C19.2133 8.02379 20.7162 9.53538 22.2327 11.0315C22.4077 11.2055 22.6333 11.3292 22.8452 11.4819ZM25.7266 10.8112C26.1252 10.9948 26.4615 11.2151 26.827 11.2828C26.9612 11.3079 27.3267 10.9329 27.2995 10.7976C27.2276 10.4362 26.9981 10.1056 26.794 9.68422C26.409 10.0901 26.1485 10.3646 25.7266 10.8112Z" fill="#2B2D42"/>
<path d="M38.7844 35.193C37.5129 34.9262 36.7177 34.271 36.4746 32.9913C36.4299 32.7536 35.8991 32.5989 35.5803 32.423C34.9192 32.0596 34.1901 31.7813 33.6146 31.3174C33.393 31.1376 33.3288 30.3818 33.5155 30.1711C33.8888 29.7497 34.2582 30.088 34.612 30.463C34.9173 30.7858 35.38 31.0641 35.8155 31.1453C37.056 31.3734 37.5731 31.76 37.8628 32.9797C37.9834 33.4823 38.1098 34.0177 38.7416 33.8592C39.0274 33.7877 39.3288 33.3586 39.4241 33.0338C40.1571 30.5345 40.9173 28.0332 40.509 25.3715C40.4545 25.0216 40.3029 24.6563 40.3671 24.3296C40.4409 23.9546 40.7073 23.6144 40.8881 23.2607C41.1545 23.5197 41.5881 23.7401 41.66 24.0435C42.2297 26.4424 42.0391 28.8354 41.3917 31.1898C40.5829 34.1279 39.7216 37.0525 38.8758 39.981C38.4831 41.3437 37.7423 41.9932 36.6243 41.9874C35.45 41.9816 34.5517 41.2297 34.2134 39.8766C33.8693 38.5081 33.5952 37.1221 33.2724 35.7497C33.1305 35.1466 32.9672 34.47 32.1778 34.4913C31.4681 34.5087 31.2873 35.0944 31.1571 35.7014C30.8615 37.0815 30.5252 38.4539 30.2063 39.8302C29.8991 41.1562 29.1156 41.9082 27.951 41.9894C26.73 42.0744 25.8395 41.4868 25.3981 40.2033C24.2491 36.8669 23.0358 33.548 22.0268 30.1711C21.1674 27.2929 21.4104 24.3799 22.4117 21.5442C23.308 19.0062 25.0637 18.4456 27.4124 19.7136C28.0676 20.0674 29.1758 20.0828 29.8738 19.7832C31.7539 18.9752 33.5641 18.7085 35.4947 19.4952C35.7339 19.5919 36.1072 19.5416 36.3521 19.4218C38.1856 18.5268 40.0307 19.2072 40.7579 21.1441C40.8706 21.4475 40.649 21.8747 40.5809 22.2459C40.2387 22.0893 39.7546 22.0255 39.5796 21.7587C38.3645 19.9263 37.4779 19.8064 36.0916 21.5055C35.1272 22.6885 33.914 23.2684 32.59 23.367C32.3158 24.4785 31.9659 25.4546 31.8706 26.4559C31.822 26.9701 32.1409 27.5828 32.4539 28.0467C32.7086 28.4256 33.1985 28.7503 32.7475 29.1524C32.5433 29.3341 31.9037 29.2471 31.5984 29.0616C30.599 28.4507 30.1927 27.1382 30.5427 26.0094C30.6943 25.5223 30.8732 25.0409 30.986 24.5442C31.2776 23.2452 30.8887 22.2343 29.6697 21.5751C28.6528 21.0242 27.4299 21.1769 26.3314 22.0371C26.2303 22.1163 26.1467 22.271 26.0417 22.2845C25.785 22.3154 25.4001 22.387 25.2873 22.2555C25.1259 22.068 25.0346 21.6505 25.1395 21.4456C25.3145 21.0996 25.6664 20.8425 25.96 20.5313C24.9043 20.2278 24.2355 20.5777 23.8097 21.7104C22.6742 24.7394 22.6081 27.8167 23.6152 30.8824C24.566 33.778 25.6178 36.6408 26.6152 39.5209C26.8252 40.126 27.041 40.7039 27.8421 40.6363C28.6256 40.5705 28.7773 39.9694 28.9114 39.3489C29.205 38.0016 29.518 36.6582 29.8175 35.3109C30.1285 33.9114 30.9685 33.1208 32.1389 33.1344C33.2919 33.1479 34.1765 33.9617 34.4876 35.3109C34.8142 36.7181 35.0748 38.1427 35.4869 39.5248C35.6153 39.9559 36.0799 40.47 36.496 40.5957C37.1959 40.8064 37.3709 40.1202 37.5245 39.5925C37.9503 38.1466 38.3547 36.7026 38.7844 35.193ZM34.927 20.7517C33.6127 20.1988 32.3936 20.1698 31.1434 20.7555C32.2439 22.4565 33.7099 22.4739 34.927 20.7517Z" fill="#2B2D42"/>
<path d="M2.78389 27.2025C2.68863 26.8584 2.40865 26.4003 2.53697 26.1954C2.85583 25.6909 3.30885 25.2289 3.80658 24.8945C4.24793 24.5968 4.70094 24.7592 4.77677 25.3797C4.8351 25.8765 3.56355 27.1407 2.78389 27.2025Z" fill="#2B2D42"/>
<path d="M22.8452 11.4816C22.6352 11.3288 22.4077 11.2071 22.2328 11.0331C20.7162 9.53697 19.2133 8.02537 17.6948 6.53118C17.2166 6.05953 17.2827 5.65167 17.7298 5.21288C18.9042 4.05889 20.0707 2.89717 21.2315 1.72964C21.6981 1.25993 22.1025 1.30632 22.5536 1.76444C24.0312 3.25477 25.5205 4.73157 27.0196 6.20257C27.4453 6.62009 27.5056 7.02216 27.0798 7.44935C25.8472 8.68259 24.6125 9.91197 23.3702 11.1355C23.236 11.2651 23.0532 11.3462 22.8452 11.4816Z" fill="#94DAFF"/>
<path d="M25.7273 10.8105C26.1492 10.364 26.4097 10.0915 26.7947 9.68359C27.0008 10.105 27.2283 10.4355 27.3002 10.797C27.3274 10.9323 26.96 11.3054 26.8278 11.2822C26.4622 11.2126 26.1259 10.9922 25.7273 10.8105Z" fill="white"/>
<path d="M34.9278 20.7517C33.7107 22.4721 32.2447 22.4547 31.1443 20.7556C32.3964 20.1718 33.6135 20.2008 34.9278 20.7517Z" fill="white"/>
</svg>
