<svg width="6" height="10" viewBox="0 0 6 10" fill="none" xmlns="http://www.w3.org/2000/svg">
<path d="M0.667445 1.64012C0.666911 1.73857 0.687392 1.83621 0.727712 1.92717C0.768031 2.01812 0.827337 2.10067 0.902109 2.16983L4.10207 5.16823L0.902109 8.16664C0.82723 8.31183 0.804403 8.47576 0.836937 8.6341C0.869362 8.79244 0.955441 8.93674 1.08237 9.04559C1.20941 9.15445 1.37037 9.22204 1.54157 9.23834C1.71277 9.25465 1.88503 9.2188 2.03276 9.13612L5.76604 5.63798C5.91585 5.49745 6 5.30696 6 5.10826C6 4.90967 5.91585 4.71907 5.76604 4.57855L2.03276 1.08042C1.88279 0.940094 1.67938 0.861235 1.46744 0.861235C1.25538 0.861235 1.05208 0.940094 0.902109 1.08042C0.823284 1.15308 0.761737 1.24053 0.721311 1.33688C0.680885 1.43333 0.662538 1.53667 0.667445 1.64012Z" fill="black"/>
</svg>
