<svg width="40" height="40" viewBox="0 0 40 40" fill="none" xmlns="http://www.w3.org/2000/svg">
<path d="M29.2836 24.1059C28.9878 26.5193 28.8568 28.9049 28.3587 31.2112C27.9895 32.918 27.2889 34.6011 26.4593 36.1452C25.719 37.5245 24.2662 37.9076 22.8531 37.4769C21.3447 37.0165 20.0526 36.2285 19.9732 34.4919C19.9216 33.3566 20.2313 32.2055 20.3583 31.0603C20.5984 28.9049 20.527 26.7654 19.8542 24.6914C19.6041 23.9173 19.2528 23.1453 18.7923 22.4784C17.4884 20.5909 15.4878 20.585 14.1322 22.4327C13.0625 23.8915 12.5881 25.6004 12.5663 27.3588C12.5425 29.3951 12.7112 31.4434 12.9176 33.4717C13.1002 35.2699 12.5186 36.4369 10.8277 37.1931C9.07317 37.979 7.69776 37.719 6.56846 36.3258C5.23473 34.6785 4.69885 32.6818 4.42496 30.6554C4.09947 28.24 3.90099 25.7968 3.82161 23.3596C3.72237 20.3607 3.30756 17.5305 1.26926 15.133C0.370181 14.0751 0.0486566 12.7334 0.0169011 11.3481C-0.00691554 10.3895 -0.00493082 9.43086 0.0188858 8.47224C0.110183 5.01883 2.27353 2.76022 5.73289 2.43671C9.18233 2.1132 12.4313 2.87732 15.5434 4.27456C16.3412 4.63379 16.8949 4.6457 17.6829 4.18922C20.8267 2.36724 24.2126 1.55351 27.8506 2.24419C29.3887 2.53595 30.6768 3.2822 31.6712 4.53654C31.9113 4.8402 32.3361 5.06646 32.7191 5.17562C36.6588 6.29103 39.1417 8.8533 39.8343 12.8505C40.5032 16.7148 39.1357 19.9499 35.9363 22.2938C35.3806 22.7007 35.456 23.054 35.6168 23.5343C36.4186 25.9378 37.3911 28.3035 37.9647 30.7606C38.3279 32.3186 38.1334 34.0136 38.1136 35.647C38.1056 36.2841 37.7027 36.6513 37.0021 36.822C34.7713 37.3697 34.4021 37.2626 33.1796 35.262C31.8419 33.0688 31.4588 30.58 30.9964 28.117C30.7959 27.0492 30.5577 25.9854 30.4069 24.9097C30.3037 24.1892 29.9683 23.9411 29.2836 24.1059ZM17.6908 5.28875C18.3855 5.79882 19.0464 6.23943 19.6438 6.75347C19.8045 6.8924 19.7768 7.25362 19.8343 7.51163C19.5961 7.49179 19.35 7.5037 19.1258 7.44217C18.9789 7.40049 18.8638 7.24767 18.7288 7.1524C15.0154 4.5028 10.9011 3.05991 6.31838 3.27029C4.15305 3.36953 2.03734 4.06815 1.3546 6.36645C0.441631 9.44078 0.3027 12.5667 2.49184 15.3155C3.56955 16.6691 4.20664 18.2113 4.39122 19.9161C4.54007 21.2935 4.61549 22.6808 4.67107 24.0642C4.80007 27.335 4.98068 30.6038 6.1596 33.7C6.48113 34.5435 6.97334 35.3691 7.56478 36.0499C8.3805 36.9907 9.37286 36.9827 10.7245 36.2583C11.8577 35.651 12.1177 34.8988 12.0304 33.6663C11.8577 31.2707 11.7069 28.8612 11.7823 26.4657C11.8359 24.7469 12.4412 23.1036 13.5606 21.7242C15.3012 19.5807 17.9449 19.5886 19.4552 21.9028C20.2094 23.0559 20.7274 24.4433 21.0291 25.7968C21.5848 28.3035 21.3844 30.8579 20.9458 33.3805C20.6778 34.9226 21.0609 35.7343 22.3986 36.3655C23.9804 37.1097 25.076 36.818 26.0088 35.2838C26.4315 34.5872 26.8562 33.8211 26.9952 33.0351C27.4675 30.3478 27.8089 27.6367 28.2138 24.9375C28.3368 24.1178 28.0372 23.7466 27.2095 23.4906C23.907 22.4665 20.4793 18.896 20.8425 13.6087C21.1045 9.78215 24.0558 6.20966 28.0074 5.21333C28.839 5.00295 29.6964 4.89974 30.5895 4.73898C27.8665 1.58725 20.9557 2.90312 17.6908 5.28875ZM30.4545 5.7889C25.6376 5.76905 21.698 9.6333 21.6761 14.4006C21.6543 19.2155 25.6198 23.2227 30.391 23.2088C35.1186 23.1949 39.0841 19.287 39.1158 14.613C39.1476 9.74047 35.2893 5.81073 30.4545 5.7889ZM32.7886 32.6421C33.382 33.6821 33.8444 34.5812 34.3942 35.4267C34.7395 35.9586 35.1107 36.4607 35.976 36.2067C36.8175 35.9606 37.4249 35.6788 37.409 34.6864C37.3911 33.6285 37.405 32.5687 37.405 31.4037C35.7974 31.8344 34.416 32.2055 32.7886 32.6421ZM31.1671 24.1733C31.4211 25.4852 31.6632 26.7356 31.9292 28.1071C33.2748 27.7379 34.5669 27.3826 35.8947 27.0174C35.4084 25.642 34.9777 24.4175 34.5649 23.2485C33.3919 23.566 32.3241 23.8578 31.1671 24.1733ZM37.1033 30.5542C36.7779 29.5738 36.5059 28.7461 36.2162 27.8709C34.7931 28.2599 33.4773 28.6191 32.0602 29.0041C32.2686 29.9528 32.4551 30.7983 32.6615 31.7351C34.1759 31.3342 35.5652 30.965 37.1033 30.5542Z" fill="#2B2D42"/>
<path d="M17.6911 5.29086C20.956 2.90523 27.8668 1.58936 30.5878 4.74308C29.6947 4.90384 28.8373 5.00705 28.0057 5.21743C24.0541 6.21177 21.1029 9.78426 20.8409 13.6128C20.4777 18.9001 23.9053 22.4706 27.2079 23.4947C28.0335 23.7507 28.3352 24.1219 28.2121 24.9416C27.8073 27.6408 27.4679 30.3519 26.9935 33.0392C26.8546 33.8252 26.4318 34.5913 26.0071 35.2879C25.0723 36.8221 23.9787 37.1138 22.3969 36.3696C21.0592 35.7404 20.6762 34.9267 20.9441 33.3845C21.3827 30.862 21.5832 28.3096 21.0275 25.8009C20.7278 24.4474 20.2078 23.062 19.4536 21.9069C17.9412 19.5927 15.2976 19.5848 13.559 21.7283C12.4396 23.1077 11.8342 24.751 11.7807 26.4698C11.7052 28.8653 11.8561 31.2748 12.0287 33.6703C12.1181 34.9029 11.8561 35.6551 10.7228 36.2624C9.37121 36.9868 8.37885 36.9947 7.56313 36.054C6.97168 35.3732 6.47947 34.5476 6.15795 33.7041C4.97903 30.6059 4.79842 27.3391 4.66941 24.0683C4.61582 22.6829 4.53842 21.2976 4.38956 19.9202C4.20499 18.2134 3.56789 16.6732 2.49019 15.3196C0.305015 12.5708 0.44196 9.44488 1.35493 6.36856C2.03767 4.07026 4.15338 3.37164 6.31871 3.2724C10.9014 3.06202 15.0157 4.50491 18.7292 7.15253C18.8641 7.24779 18.9772 7.4026 19.1261 7.44229C19.3524 7.50382 19.5985 7.49191 19.8346 7.51176C19.7771 7.25375 19.8049 6.89253 19.6441 6.7536C19.0467 6.24154 18.3858 5.80093 17.6911 5.29086ZM7.36466 11.5784C7.51748 13.7458 8.88694 15.3157 10.4965 16.7328C10.6017 16.826 10.8895 16.7129 11.092 16.6951C11.0443 16.4609 11.0701 16.1671 10.9352 16.0024C10.437 15.3931 9.84952 14.8532 9.3593 14.236C7.87473 12.3644 7.86084 10.08 9.85349 8.70458C10.0301 8.58351 10.042 8.22229 10.1314 7.9742C9.86937 7.97817 9.53792 7.87695 9.35731 8C8.1506 8.82564 7.44603 9.96487 7.36466 11.5784Z" fill="white"/>
<path d="M30.4543 5.78914C35.2891 5.80899 39.1473 9.74071 39.1156 14.6132C39.0838 19.2872 35.1164 23.1971 30.3908 23.209C25.6195 23.2229 21.654 19.2138 21.6759 14.4008C21.6977 9.63354 25.6374 5.76929 30.4543 5.78914ZM37.3909 14.4385C37.373 10.5683 34.259 7.44836 30.4066 7.44042C26.5285 7.4305 23.3927 10.608 23.4125 14.5239C23.4323 18.4497 26.5503 21.52 30.492 21.5002C34.3225 21.4803 37.4107 18.3207 37.3909 14.4385Z" fill="white"/>
<path d="M32.7883 32.6427C34.4158 32.2061 35.7972 31.8369 37.4048 31.4062C37.4048 32.5713 37.3909 33.6291 37.4088 34.689C37.4246 35.6813 36.8173 35.9612 35.9758 36.2093C35.1105 36.4633 34.7393 35.9592 34.394 35.4293C33.8442 34.5818 33.3818 33.6807 32.7883 32.6427Z" fill="white"/>
<path d="M31.1672 24.1749C32.3243 23.8593 33.3941 23.5695 34.5651 23.25C34.9779 24.419 35.4106 25.6436 35.8948 27.019C34.5671 27.3842 33.275 27.7394 31.9294 28.1086C31.6634 26.7352 31.4213 25.4868 31.1672 24.1749Z" fill="white"/>
<path d="M37.1034 30.5544C35.5652 30.9633 34.1759 31.3324 32.6616 31.7353C32.4551 30.7986 32.2686 29.9531 32.0602 29.0044C33.4773 28.6173 34.7931 28.2581 36.2162 27.8711C36.504 28.7464 36.7779 29.574 37.1034 30.5544Z" fill="white"/>
<path d="M7.36487 11.5757C7.44624 9.96213 8.15082 8.8229 9.35951 7.99924C9.54012 7.87619 9.87157 7.97542 10.1335 7.97344C10.0442 8.22351 10.0323 8.58275 9.85569 8.70382C7.86303 10.0792 7.87692 12.3636 9.36149 14.2352C9.85172 14.8525 10.4372 15.3923 10.9374 16.0016C11.0703 16.1644 11.0465 16.4601 11.0942 16.6943C10.8917 16.7122 10.6039 16.8253 10.4987 16.732C8.88715 15.3129 7.51769 13.741 7.36487 11.5757Z" fill="#2B2D42"/>
<path d="M37.3909 14.4395C37.4088 18.3216 34.3226 21.4813 30.4921 21.5012C26.5504 21.521 23.4344 18.4487 23.4126 14.5249C23.3927 10.611 26.5286 7.43348 30.4067 7.44142C34.2591 7.44936 37.3731 10.5693 37.3909 14.4395ZM30.4206 8.38019C27.0426 8.37424 24.2918 11.0794 24.2581 14.4395C24.2243 17.8076 27.0525 20.6319 30.4325 20.6041C33.8105 20.5763 36.5435 17.8354 36.5395 14.4792C36.5375 11.1191 33.7946 8.38615 30.4206 8.38019Z" fill="#2B2D42"/>
<path d="M30.4207 8.37892C33.7927 8.38487 36.5356 11.1178 36.5395 14.478C36.5435 17.8341 33.8086 20.575 30.4326 20.6028C27.0526 20.6306 24.2244 17.8083 24.2581 14.4383C24.2919 11.0781 27.0427 8.37296 30.4207 8.37892Z" fill="#94DAFF"/>
</svg>
