<svg width="39" height="40" viewBox="0 0 39 40" fill="none" xmlns="http://www.w3.org/2000/svg">
<path d="M9.05086 17.9902C7.40281 17.9902 5.88986 17.8946 4.39163 18.0171C2.81236 18.147 1.67027 19.5884 1.69729 21.1523C1.72431 22.7211 2.90569 23.9663 4.53654 24.1428C7.31685 24.4443 7.41755 24.4492 7.29966 27.2583C7.23334 28.8075 7.64842 29.8297 9.1098 30.3959C10.1807 30.8102 10.4656 31.6191 10.4189 32.732C10.3403 34.6881 10.3673 36.6515 10.4066 38.6101C10.4263 39.5881 10.0873 40.0318 9.05577 40.0024C7.33895 39.9509 5.61723 39.9534 3.90041 40.0024C2.86394 40.0342 2.525 39.5661 2.53728 38.6027C2.56429 36.5216 2.57166 34.438 2.52745 32.3569C2.51026 31.5211 2.7485 30.8886 3.55165 30.6141C5.86775 29.8199 5.91933 28.0623 5.48705 25.9616C5.08917 25.9126 4.61759 25.8611 4.14848 25.7974C1.75624 25.4763 -0.0170688 23.4613 0.000123946 21.0885C0.0173167 18.6422 1.71203 16.6616 4.13374 16.3846C5.58776 16.2179 7.05896 16.2032 8.66525 16.11C8.4221 14.8084 8.19122 13.5804 7.9628 12.3523C6.98036 7.04041 10.8856 1.04956 15.9353 0.120533C17.6546 -0.195678 19.2707 0.15485 20.8156 0.885323C22.417 1.64276 24.0748 1.84621 25.659 1.03485C31.588 -2.00715 36.6009 2.2188 38.3227 6.88353C39.0939 8.972 39.1676 11.1119 38.7402 13.2788C37.6104 19.0368 36.4855 24.7948 35.3434 30.5479C34.9161 32.6952 33.4277 34.0189 31.4087 34.112C29.4144 34.2052 27.8106 32.9967 27.1695 30.9107C26.5236 28.8051 25.8702 26.7043 25.2488 24.5938C24.986 23.6991 24.5513 23.003 23.5296 22.9588C22.4391 22.9098 21.9184 23.606 21.631 24.5423C20.9728 26.6847 20.3391 28.8345 19.6612 30.972C18.9956 33.0776 17.377 34.2493 15.3925 34.1096C13.3564 33.9674 11.9294 32.6388 11.507 30.4989C10.694 26.3391 9.87611 22.1793 9.05086 17.9902ZM10.8929 17.8259C10.8561 18.0637 10.8021 18.1887 10.8242 18.299C11.615 22.2529 12.4083 26.2092 13.2164 30.1606C13.5136 31.6167 14.3118 32.3741 15.5276 32.4256C16.7655 32.477 17.6669 31.7858 18.0942 30.4082C18.7598 28.2682 19.4033 26.121 20.0542 23.9761C20.5773 22.2529 21.8078 21.2381 23.3798 21.2356C25.0106 21.2307 26.2018 22.1352 26.7667 23.8952C27.4397 25.9886 28.0537 28.1016 28.7169 30.1974C28.8618 30.6558 29.0509 31.1313 29.3383 31.5113C29.967 32.3447 30.8684 32.607 31.8582 32.3373C33.0764 32.0064 33.5677 31.0382 33.7887 29.8885C34.6238 25.567 35.4589 21.2454 36.289 16.9239C36.5616 15.5021 36.8245 14.0804 37.1266 12.4748C36.4511 12.6783 35.9943 12.8229 35.535 12.9553C31.2073 14.2152 26.9681 14.203 22.972 11.8743C20.3661 10.357 17.5612 10.0407 14.6753 10.4182C12.9708 10.6413 11.308 11.1953 9.60839 11.6046C9.75576 12.4748 9.84418 13.0337 9.94488 13.5902C10.0775 14.3133 10.0063 15.2276 10.4287 15.6933C10.7873 16.088 11.7501 15.8845 12.3912 16.1002C12.7276 16.213 13.0838 16.6273 13.1697 16.9704C13.2139 17.1494 12.735 17.5979 12.4182 17.696C11.9441 17.8431 11.4013 17.7916 10.8929 17.8259ZM9.73365 9.852C10.2666 9.69022 10.7554 9.53334 11.2442 9.39116C15.4318 8.18025 19.5998 8.03807 23.4878 10.2467C27.7246 12.6513 31.9835 12.3645 36.3774 10.9256C37.2592 10.6364 37.5023 10.0726 37.2125 9.36175C36.542 7.72431 36.0139 5.9349 34.9603 4.56465C32.595 1.48343 29.9547 1.01034 26.3909 2.59384C24.372 3.491 22.3801 3.44933 20.3514 2.54972C19.4721 2.15997 18.5019 1.81925 17.5539 1.75307C13.6904 1.49078 9.95716 5.3417 9.73365 9.852ZM4.27865 38.186C5.88986 38.186 7.28492 38.186 8.76841 38.186C8.76841 36.7079 8.65788 35.318 8.80034 33.9576C8.94525 32.5726 8.41227 31.7809 7.20878 31.2122C6.28283 30.7759 4.34006 31.6265 4.30076 32.656C4.22707 34.4748 4.27865 36.2985 4.27865 38.186Z" fill="#2B2D42"/>
<path d="M10.8929 17.8262C11.4013 17.7919 11.9441 17.8434 12.4255 17.6963C12.7399 17.5983 13.2213 17.1497 13.1771 16.9708C13.0911 16.6276 12.735 16.2133 12.3985 16.1006C11.755 15.8848 10.7947 16.0883 10.4361 15.6937C10.0136 15.2279 10.0848 14.3136 9.95221 13.5905C9.84905 13.034 9.76063 12.4727 9.61572 11.605C11.3153 11.1956 12.9757 10.6392 14.6827 10.4186C17.5686 10.0411 20.371 10.3573 22.9794 11.8746C26.9779 14.2033 31.2147 14.2155 35.5423 12.9556C36.0016 12.8208 36.4585 12.6786 37.1339 12.4752C36.8318 14.0783 36.5714 15.5025 36.2964 16.9242C35.4637 21.2457 34.6287 25.5673 33.796 29.8888C33.575 31.036 33.0862 32.0067 31.8655 32.3376C30.8757 32.6073 29.9743 32.345 29.3456 31.5116C29.0582 31.1316 28.8691 30.6561 28.7242 30.1977C28.0586 28.1019 27.447 25.9889 26.774 23.8955C26.2091 22.1355 25.0179 21.231 23.3871 21.2359C21.8127 21.2408 20.5847 22.2532 20.0615 23.9764C19.4107 26.1213 18.7647 28.2686 18.1016 30.4085C17.6742 31.7861 16.7728 32.4774 15.5349 32.4259C14.3192 32.3744 13.5209 31.6145 13.2237 30.1609C12.4157 26.2095 11.6248 22.2557 10.8315 18.2993C10.802 18.189 10.8561 18.064 10.8929 17.8262ZM15.9574 15.6642C16.6328 14.7965 17.4458 14.044 17.8559 13.1174C18.0819 12.6026 17.3844 12.0511 16.7384 12.4801C16.1072 12.8992 15.557 13.4728 15.0756 14.0636C14.9037 14.2744 14.9577 14.7622 15.0683 15.0686C15.1395 15.2671 15.4932 15.3676 15.9574 15.6642ZM17.9616 15.9265C17.5882 15.9265 17.3009 15.8456 17.1093 15.9437C16.731 16.1373 16.4019 16.429 16.0532 16.6815C16.3946 16.9928 16.7114 17.3433 17.0921 17.5958C17.264 17.711 17.5735 17.6669 17.8093 17.6277C18.4994 17.5149 19.5973 17.9439 19.6121 16.7624C19.6268 15.5147 18.4872 16.0883 17.9616 15.9265ZM18.1777 20.1182C17.3574 19.4245 16.6009 18.7455 15.7904 18.1376C15.6798 18.0542 15.1862 18.2552 15.0855 18.4415C14.9553 18.6842 14.9062 19.1475 15.0535 19.3338C15.5325 19.9343 16.0826 20.4908 16.677 20.9785C16.8661 21.133 17.3131 21.1085 17.5759 21.0006C17.7773 20.9173 17.878 20.5814 18.1777 20.1182ZM32.369 21.8904C31.8213 22.5939 31.2294 23.0229 31.2663 23.393C31.3056 23.7999 31.922 24.1505 32.2855 24.5231C32.649 24.1652 33.2483 23.8416 33.3073 23.4396C33.3638 23.0695 32.8382 22.6135 32.369 21.8904ZM27.8474 17.4659C27.2997 18.1474 26.7347 18.5469 26.7691 18.8827C26.8158 19.3092 27.3463 19.6843 27.6681 20.0838C28.0291 19.7652 28.6431 19.4759 28.6824 19.123C28.7266 18.7087 28.2674 18.2405 27.8474 17.4659Z" fill="white"/>
<path d="M9.73401 9.85144C9.95997 5.34114 13.6908 1.49023 17.5591 1.75251C18.5072 1.81624 19.4774 2.15697 20.3566 2.54917C22.3854 3.44878 24.3773 3.49045 26.3962 2.59329C29.96 1.00733 32.6003 1.48287 34.9655 4.56409C36.0192 5.93434 36.5473 7.72376 37.2178 9.36119C37.5076 10.0696 37.2645 10.6358 36.3827 10.9251C31.9887 12.364 27.7299 12.6532 23.4931 10.2461C19.6051 8.03997 15.4346 8.18214 11.2494 9.39061C10.7533 9.53278 10.267 9.68966 9.73401 9.85144Z" fill="white"/>
<path d="M4.2794 38.1848C4.2794 36.2998 4.22782 34.4736 4.29905 32.6548C4.3408 31.6228 6.28112 30.7747 7.20707 31.211C8.41056 31.7772 8.94354 32.569 8.79863 33.9564C8.65617 35.3193 8.7667 36.7067 8.7667 38.1848C7.28567 38.1848 5.8906 38.1848 4.2794 38.1848Z" fill="#94DAFF"/>
<path d="M15.9571 15.6632C15.4929 15.3666 15.1393 15.2661 15.068 15.0651C14.9575 14.7612 14.9035 14.2709 15.0754 14.0601C15.5568 13.4694 16.107 12.8958 16.7382 12.4766C17.3841 12.0501 18.0817 12.6016 17.8557 13.1139C17.4455 14.0454 16.6326 14.798 15.9571 15.6632Z" fill="#2B2D42"/>
<path d="M17.9611 15.9259C18.4867 16.0901 19.6264 15.5141 19.6092 16.7618C19.5944 17.9433 18.499 17.5143 17.8064 17.6271C17.5706 17.6663 17.2612 17.7104 17.0892 17.5952C16.7085 17.3427 16.3917 16.9922 16.0503 16.6809C16.3991 16.4284 16.7282 16.1367 17.1064 15.9431C17.3029 15.845 17.5878 15.9259 17.9611 15.9259Z" fill="#2B2D42"/>
<path d="M18.1779 20.1172C17.8782 20.5805 17.7775 20.9163 17.5737 20.9996C17.3109 21.1075 16.8639 21.132 16.6748 20.9776C16.0804 20.4898 15.5302 19.9333 15.0513 19.3328C14.9039 19.1465 14.9506 18.6832 15.0832 18.4405C15.1839 18.2542 15.6776 18.0532 15.7881 18.1366C16.6011 18.7445 17.36 19.4235 18.1779 20.1172Z" fill="#2B2D42"/>
<path d="M32.3691 21.8906C32.8358 22.6137 33.3638 23.0697 33.3073 23.4398C33.2484 23.8418 32.6491 24.1654 32.2856 24.5233C31.9221 24.1482 31.3056 23.7977 31.2663 23.3932C31.2319 23.0231 31.8214 22.5941 32.3691 21.8906Z" fill="#2B2D42"/>
<path d="M27.8476 17.4648C28.2701 18.2419 28.7294 18.7076 28.6827 19.1194C28.6434 19.4724 28.0294 19.7641 27.6683 20.0803C27.3466 19.6832 26.8161 19.3082 26.7694 18.8792C26.7326 18.5458 27.2975 18.1463 27.8476 17.4648Z" fill="#2B2D42"/>
</svg>
