<svg width="110" height="117" viewBox="0 0 110 117" fill="none" xmlns="http://www.w3.org/2000/svg">
<path d="M110 60.4174C110 92.0621 106.124 108.281 84.284 115.312C79.6231 116.813 74.6873 117.244 69.808 116.876C36.8559 114.383 0 95.428 0 63.0443C0 28.2259 28.0087 0 62.5592 0C97.1098 0 110 25.599 110 60.4174Z" fill="white"/>
<path d="M58.697 81.2435C56.8653 83.0907 55.0432 84.4392 52.6009 84.4271C50.1658 84.415 48.3006 83.1561 46.512 81.2265C46.421 81.9189 46.3755 82.3281 46.3133 82.7348C45.832 85.8677 44.4887 88.6301 42.7169 91.2036C42.3721 91.7024 41.9818 92.2955 41.2755 91.8331C40.5404 91.3513 40.8349 90.7678 41.2372 90.1795C43.1886 87.3154 44.6252 84.2431 44.6635 80.6842C44.6683 80.1637 44.3786 79.5657 44.053 79.1323C43.2844 78.1082 42.3506 77.2052 41.6227 76.1544C41.3952 75.8252 41.6107 75.1788 41.6251 74.6776C42.0968 74.8277 42.6977 74.8374 43.021 75.1473C45.1616 77.1907 47.1776 79.372 49.3637 81.3645C51.0565 82.9067 53.5156 83.127 55.2299 81.7906C58.0673 79.5778 60.8807 77.2923 62.7818 74.1184C62.9614 73.8181 63.117 73.501 63.3876 73.0047C62.6717 72.3534 61.8839 71.7699 61.2901 71.0291C61.0363 70.7144 61.1824 70.0704 61.1465 69.5741C61.6086 69.6322 62.1784 69.5402 62.5041 69.7847C63.0332 70.1793 63.4044 70.7943 63.8425 71.3172C63.9886 71.2833 64.1323 71.2518 64.2783 71.2179C64.5992 69.8888 65.0397 68.5766 65.2145 67.2305C65.6192 64.1146 65.8778 60.9818 66.2393 57.8586C66.3399 57.0016 66.0885 56.4448 65.3965 55.9291C58.3786 50.6996 46.6652 50.6996 39.7622 55.9848C39.3935 56.268 38.9146 56.8103 38.9601 57.1735C39.5036 61.6403 40.1358 66.0974 40.7535 70.5546C40.787 70.7894 41.0145 71.0388 40.9642 71.2325C40.8517 71.6755 40.6218 72.0895 40.4398 72.518C40.0639 72.305 39.4581 72.1743 39.3528 71.8668C38.8955 70.5449 38.6057 69.1625 38.2083 67.8164C38.1101 67.4799 37.8922 66.9884 37.636 66.9206C34.7292 66.1459 33.5273 64.1073 33.3285 61.2457C33.2782 60.5266 32.9239 59.7931 33.0149 59.1079C33.1418 58.1613 33.2759 56.8684 33.9008 56.4036C35.7421 55.0333 35.754 53.0238 35.9312 51.1935C36.1707 48.7168 36.5538 46.3345 37.5929 44.0757C37.7103 43.8215 37.8491 43.5745 37.9736 43.3227C38.2801 42.7102 38.7805 42.255 39.3743 42.7271C39.6473 42.945 39.688 43.727 39.5467 44.1556C39.0296 45.7292 38.3903 47.2618 37.9521 48.9056C42.171 45.0901 46.9933 43.0927 52.5818 43.0903C58.1703 43.0903 62.9949 45.078 67.2545 49.1865C66.5961 45.2983 64.9535 42.2986 62.2239 39.9623C56.3912 34.9701 48.2551 35.1348 42.5637 40.2916C42.4439 40.3981 42.3386 40.5966 42.2141 40.6063C41.7568 40.6475 41.297 40.6281 40.8373 40.6305C40.878 40.1996 40.7583 39.5314 40.9834 39.3788C43.088 37.9432 44.1775 35.7691 45.5064 33.6894C47.3309 30.8205 50.2736 29.6777 53.6018 30.0772C57.1335 30.5009 59.5662 32.5273 60.9477 35.8708C61.2183 36.5244 61.6684 37.1951 62.2168 37.6187C66.4596 40.8847 68.8276 45.1288 69.1892 50.5471C69.2946 52.1329 69.7423 53.6969 70.0775 55.2609C70.123 55.4739 70.4032 55.6749 70.6186 55.8008C71.8661 56.5368 72.3665 57.648 72.1894 59.0571C72.0337 60.2942 71.823 61.5241 71.5956 62.7516C71.234 64.7029 70.1086 66.0321 68.241 66.6325C67.3982 66.9037 66.9481 67.2547 66.8427 68.2473C66.7206 69.3901 66.3806 70.5449 65.9352 71.6102C65.5426 72.5519 65.5737 73.2008 66.541 73.685C68.5475 72.8497 68.5475 72.8497 71.0329 75.0093C72.1558 74.5178 74.1959 75.5976 74.3491 76.8178C74.385 77.1059 74.1815 77.5248 73.9492 77.7184C73.7744 77.8661 73.3315 77.8468 73.0992 77.7257C72.7257 77.5296 72.4264 77.1882 72.1295 76.9364C70.8724 78.2365 69.6537 79.4955 68.2003 80.9989C69.0623 81.7809 70.0296 82.6089 70.9443 83.495C71.8637 84.386 72.7305 85.3326 73.5182 86.1485C74.8399 84.8048 76.0874 83.5362 77.5959 82.0037C77.1673 81.6599 76.4729 81.2241 75.9509 80.6334C75.7354 80.3888 75.8935 79.8102 75.8815 79.3841C76.3101 79.3914 76.88 79.2243 77.1386 79.4398C77.9981 80.154 78.829 80.9408 79.4946 81.8342C79.7508 82.178 79.5353 82.8825 79.5353 83.587C80.0477 84.0737 80.7134 84.7031 81.458 85.4077C81.4796 85.3931 81.6041 85.2479 81.7286 85.2479C82.1524 85.2479 82.5762 85.2987 83 85.3302C82.9354 85.7926 83.0359 86.4076 82.7797 86.6884C81.312 88.2839 79.7915 89.8309 78.2136 91.3126C77.8617 91.6418 77.2152 91.6491 76.7028 91.8065C76.6166 91.2642 76.528 90.7218 76.4418 90.1795C76.5376 90.1626 76.6357 90.1456 76.7315 90.1263C76.0802 89.4847 75.4314 88.8455 74.6987 88.1241C73.8702 88.8964 73.2237 88.388 72.515 87.6423C70.633 85.6667 68.7055 83.7323 66.7613 81.8197C66.1028 81.1708 65.7269 80.5753 66.8164 79.4858C66.3375 79.1662 65.861 78.9193 65.4731 78.5755C64.5178 77.7257 64.252 76.7428 64.9583 75.5637C65.0948 75.3361 64.9775 74.956 64.9775 74.5057C63.4187 76.3215 62.0348 77.9049 60.6963 79.527C60.5024 79.7642 60.4689 80.1927 60.4736 80.5293C60.5167 83.8195 61.7091 86.7271 63.4379 89.4484C63.6318 89.7534 63.9647 90.0294 64.0149 90.3538C64.0868 90.8284 63.9623 91.3344 63.9216 91.8283C63.4834 91.6927 62.8585 91.6975 62.6382 91.3997C60.6197 88.6446 59.1615 85.6304 58.8 82.1635C58.788 81.9674 58.7617 81.7737 58.697 81.2435ZM68.0758 55.4909C68.1476 53.5105 67.0726 51.4187 65.2145 49.7554C61.6373 46.5548 57.4687 44.9521 52.6847 44.9279C47.7667 44.9061 43.4855 46.5403 39.8389 49.8692C38.2298 51.3388 37.1763 53.1086 36.9704 55.5732C47.4075 48.2931 57.701 48.2641 68.0758 55.4909ZM46.2606 35.7473C50.5633 34.147 54.629 34.2099 58.9245 35.7231C57.2532 33.0236 55.1342 31.755 52.2992 31.8615C49.687 31.9584 47.7571 33.2246 46.2606 35.7473ZM37.8826 64.9305C37.66 62.7177 37.4517 60.6816 37.2553 58.6431C37.1859 57.9192 37.2697 57.1372 36.1324 57.2631C35.1411 57.372 34.6766 57.8514 34.8107 58.8513C34.9807 60.1272 35.098 61.4176 35.3949 62.6644C35.6774 63.8604 36.4221 64.715 37.8826 64.9305ZM67.3168 64.761C67.415 64.8676 67.5131 64.9765 67.6113 65.083C68.1764 64.6376 69.0767 64.2913 69.2419 63.7272C69.7639 61.9429 70.1182 60.0884 70.3146 58.2363C70.4008 57.4156 69.5148 57.3042 68.7941 57.2631C68.0136 57.2195 67.9968 57.7642 67.9441 58.2872C67.731 60.4467 67.5251 62.6039 67.3168 64.761ZM78.046 88.647C78.738 88.049 79.4204 87.4583 80.0429 86.9208C79.2983 86.163 78.6374 85.4876 78.0388 84.8775C77.3947 85.4754 76.7411 86.0831 76.1042 86.6739C76.8081 87.3881 77.469 88.0611 78.046 88.647ZM69.9698 76.3772C69.261 75.8784 68.5595 75.0359 68.1093 75.1546C67.4652 75.324 66.7086 76.1375 66.5697 76.7984C66.474 77.2439 67.3599 77.9024 67.7981 78.4569C68.5499 77.7378 69.1509 77.1592 69.9698 76.3772Z" fill="#2B2D42"/>
<path d="M68.0757 55.4909C57.7009 48.2641 47.4074 48.2932 36.9727 55.5733C37.1786 53.1086 38.2322 51.3389 39.8412 49.8693C43.4854 46.5404 47.7666 44.9062 52.6871 44.9279C57.471 44.9497 61.6396 46.5525 65.2169 49.7555C67.0725 51.4188 68.1452 53.5105 68.0757 55.4909Z" fill="#94DAFF"/>
<path d="M46.2606 35.7472C47.757 33.2244 49.6869 31.9582 52.2992 31.8614C55.1341 31.7573 57.2532 33.0235 58.9244 35.723C54.6289 34.2098 50.5633 34.1469 46.2606 35.7472Z" fill="white"/>
<path d="M37.8826 64.9324C36.422 64.7169 35.6798 63.8623 35.3948 62.6687C35.0979 61.4219 34.9806 60.1315 34.8106 58.8556C34.6765 57.8557 35.141 57.3763 36.1323 57.2674C37.272 57.1415 37.1882 57.9211 37.2553 58.6474C37.4492 60.6835 37.6599 62.722 37.8826 64.9324Z" fill="white"/>
<path d="M67.3168 64.7617C67.5251 62.6045 67.731 60.4474 67.9465 58.2902C67.9992 57.7649 68.0159 57.2226 68.7965 57.2661C69.5148 57.3049 70.4031 57.4187 70.3169 58.2394C70.1206 60.0915 69.7662 61.946 69.2443 63.7303C69.079 64.2944 68.1788 64.6406 67.6137 65.0861C67.5131 64.9747 67.4149 64.8682 67.3168 64.7617Z" fill="white"/>
<path d="M78.0461 88.6465C77.469 88.0582 76.8082 87.3876 76.1042 86.6734C76.7388 86.0826 77.3924 85.475 78.0389 84.877C78.6375 85.4871 79.3007 86.1625 80.043 86.9203C79.4205 87.4578 78.7381 88.0485 78.0461 88.6465Z" fill="white"/>
<path d="M69.9698 76.3785C69.1533 77.1605 68.55 77.7391 67.7981 78.4581C67.3599 77.9037 66.474 77.2452 66.5698 76.7997C66.7111 76.1388 67.4677 75.3277 68.1094 75.1558C68.5595 75.0372 69.2611 75.8797 69.9698 76.3785Z" fill="white"/>
</svg>
