<svg width="110" height="117" viewBox="0 0 110 117" fill="none" xmlns="http://www.w3.org/2000/svg">
<path d="M110 60.4174C110 92.0621 106.124 108.281 84.284 115.312C79.6231 116.813 74.6873 117.244 69.808 116.876C36.8559 114.383 0 95.428 0 63.0443C0 28.2259 28.0087 0 62.5592 0C97.1098 0 110 25.599 110 60.4174Z" fill="#7FC3E9" fill-opacity="0.18"/>
<path d="M47.6292 88.9953C44.1371 86.7106 42.7397 83.0372 41.5868 79.3161C40.7673 76.6759 40.3061 73.904 39.8727 71.1601C39.3616 67.9235 38.3337 64.9388 36.3334 62.335C32.7191 57.6312 33.6498 47.7701 36.764 43.9594C39.231 40.9384 42.3258 39.3677 46.1679 40.3896C51.0157 41.6803 55.7663 41.8735 60.6474 40.5968C67.8872 38.7041 72.0432 43.6711 73.1628 49.1504C74.2157 54.3049 73.8767 59.2103 70.5097 63.6201C68.4733 66.2856 68.0233 69.5586 67.6177 72.8205C67.0093 77.7258 65.5174 82.354 62.7115 86.4446C62.0087 87.4693 60.8197 88.1553 59.8529 88.9981C59.3889 88.9981 58.9278 88.9981 58.4638 88.9981C57.886 88.0545 56.9525 87.1642 56.797 86.1562C56.4219 83.6867 56.4497 81.1557 56.2274 78.6582C56.1247 77.5158 55.9719 76.3259 55.5385 75.2843C55.319 74.758 54.43 74.2344 53.8383 74.2316C53.2493 74.2288 52.4659 74.7496 52.1214 75.2759C51.7158 75.8919 51.5797 76.7571 51.5269 77.527C51.3741 79.7557 51.3991 81.9984 51.2074 84.2243C51.0491 86.0442 51.0602 88.0237 49.0183 88.9981C48.5543 88.9953 48.0932 88.9953 47.6292 88.9953ZM58.9861 42.8031C58.6166 42.8031 58.3777 42.7555 58.1666 42.8087C54.1716 43.8194 50.2351 43.2091 46.3985 42.1199C42.023 40.8796 38.2503 43.5647 37.0669 46.6865C35.0861 51.9111 34.7055 57.1048 38.1281 61.9906C39.8061 64.3873 40.9506 67.0163 41.2896 69.9394C41.7424 73.8368 42.423 77.6894 44.0621 81.262C44.9233 83.138 46.1429 84.8543 47.2847 86.5874C47.5181 86.9402 48.2071 87.2846 48.5571 87.1838C48.8932 87.0886 49.2294 86.4222 49.2738 85.977C49.4961 83.7091 49.5822 81.4244 49.7961 79.1565C49.9295 77.7314 50.0462 76.2727 50.449 74.912C50.9574 73.2012 52.1186 72.4873 53.7577 72.4733C55.4496 72.4593 56.6886 73.2152 57.2359 74.9064C57.6165 76.0823 57.786 77.3506 57.8832 78.591C58.0638 80.8645 58.0693 83.1548 58.2666 85.4282C58.3221 86.0526 58.8027 86.6378 59.0917 87.2426C59.6612 86.901 60.4168 86.691 60.7641 86.1926C61.742 84.7955 62.7088 83.3479 63.3977 81.7912C64.909 78.381 65.8675 74.8 66.2092 71.0565C66.5203 67.6491 67.6982 64.5581 69.6929 61.7722C70.8292 60.1847 71.7209 58.4795 71.7876 56.3936C63.4033 59.3419 55.6357 51.4407 58.9861 42.8031ZM59.8418 46.5941C59.8473 52.0175 64.3673 56.0745 69.0651 55.2765C72.0849 54.7613 72.1321 54.6997 71.846 51.6367C71.8209 51.3595 71.8321 51.0767 71.7904 50.8023C71.1875 46.9301 69.7346 43.6291 65.7563 42.1843C62.456 40.986 60.7558 41.9435 59.9973 45.337C59.8779 45.8773 59.8612 46.4401 59.8418 46.5941Z" fill="#2B2D42"/>
<path d="M74.5768 33C74.6324 33.5264 74.9213 34.1927 74.7074 34.5539C73.6879 36.2674 72.5655 37.9278 71.3904 39.5377C71.1542 39.8597 70.5236 39.8905 70.0763 40.0557C70.0763 39.5601 69.8902 38.9497 70.1069 38.5913C71.2626 36.693 72.521 34.8563 73.7434 33C74.0212 33 74.299 33 74.5768 33Z" fill="#2B2D42"/>
<path d="M75.6464 46.7312C75.4631 46.5716 74.9491 46.3308 74.9464 46.0789C74.9408 45.7345 75.2575 45.1577 75.5464 45.0737C77.6633 44.4605 79.8025 43.9118 81.9555 43.4358C82.2444 43.3714 82.65 43.8334 83.0001 44.049C82.8028 44.3709 82.6667 44.9057 82.4 44.9813C80.2359 45.5945 78.0439 46.1237 75.6464 46.7312Z" fill="#2B2D42"/>
<path d="M79.0635 51.4264C78.0051 51.3508 76.9383 51.334 75.8937 51.166C75.5381 51.11 75.2436 50.6676 74.9214 50.4016C75.2714 50.1133 75.6131 49.5953 75.9771 49.5785C77.03 49.5337 78.1051 49.6149 79.1441 49.7997C79.6775 49.8949 80.1553 50.312 80.6582 50.5864C80.2026 50.9672 79.7497 51.3452 79.2941 51.726C79.2191 51.6252 79.1413 51.5272 79.0635 51.4264Z" fill="#2B2D42"/>
<path d="M77.7162 40.0841C77.4579 40.5237 77.3884 40.7868 77.2189 40.9016C76.191 41.5988 75.1631 42.3072 74.0769 42.9035C73.8519 43.0267 73.2824 42.7999 73.0712 42.5592C72.9323 42.3968 73.0296 41.7556 73.224 41.6156C74.2686 40.8624 75.3465 40.1429 76.4855 39.5493C76.7272 39.4233 77.2578 39.8713 77.7162 40.0841Z" fill="#2B2D42"/>
<path d="M68.0624 35.7714C67.8124 36.8185 67.668 37.6977 67.3707 38.5209C67.2679 38.8064 66.7845 38.952 66.4734 39.162C66.265 38.812 65.8594 38.4481 65.8844 38.1149C65.9483 37.2917 66.1344 36.4518 66.4289 35.6818C66.5512 35.3626 67.0623 35.0574 67.4207 35.0238C67.6263 35.007 67.8819 35.5474 68.0624 35.7714Z" fill="#2B2D42"/>
<path d="M58.986 42.8032C55.6356 51.4408 63.4032 59.3421 71.7875 56.3966C71.7209 58.4797 70.8291 60.1876 69.6928 61.7751C67.6982 64.561 66.5175 67.6521 66.2091 71.0595C65.8674 74.8029 64.9117 78.3839 63.3976 81.7942C62.7087 83.3481 61.7419 84.7956 60.764 86.1956C60.4167 86.6939 59.6611 86.9039 59.0916 87.2455C58.8054 86.6407 58.322 86.0556 58.2665 85.4312C58.0665 83.1577 58.0637 80.8702 57.8831 78.5939C57.7859 77.3536 57.6164 76.0852 57.2358 74.9093C56.6885 73.2182 55.4523 72.4622 53.7576 72.4762C52.1158 72.4902 50.9573 73.2042 50.4489 74.9149C50.0433 76.2728 49.9294 77.7344 49.796 79.1595C49.5821 81.4302 49.496 83.7121 49.2738 85.98C49.2293 86.4251 48.8904 87.0887 48.557 87.1867C48.207 87.2875 47.518 86.9459 47.2846 86.5903C46.1401 84.86 44.9232 83.1409 44.062 81.265C42.4202 77.6924 41.7423 73.8398 41.2895 69.9423C40.9506 67.0193 39.806 64.3902 38.128 61.9935C34.7054 57.1078 35.086 51.914 37.0668 46.6895C38.2502 43.5676 42.0229 40.8797 46.3984 42.1229C50.235 43.212 54.1716 43.8224 58.1665 42.8116C58.3776 42.7556 58.6165 42.8032 58.986 42.8032ZM47.3652 44.0128C41.7423 43.8896 38.5253 47.3054 38.9837 52.0624C39.0198 52.4404 39.4893 52.7792 39.756 53.1347C40.031 52.8156 40.3283 52.516 40.5644 52.1716C40.6533 52.04 40.595 51.8076 40.6033 51.6228C40.7922 47.2438 43.2869 45.1467 47.6347 45.8075C49.0876 46.0287 50.4989 46.5159 51.9519 46.7539C52.3047 46.8127 52.7408 46.3731 53.1381 46.1631C52.8686 45.8411 52.6547 45.3175 52.3241 45.2279C50.4156 44.7016 48.482 44.2788 47.3652 44.0128Z" fill="white"/>
<path d="M59.8418 46.5949C59.8585 46.4409 59.8751 45.8781 59.9974 45.3378C60.7558 41.9443 62.456 40.9868 65.7564 42.1851C69.7346 43.6299 71.1876 46.9281 71.7904 50.8031C71.8321 51.0775 71.821 51.3603 71.846 51.6375C72.1321 54.7005 72.0849 54.7621 69.0651 55.2773C64.3673 56.0781 59.8474 52.021 59.8418 46.5949Z" fill="#94DAFF"/>
<path d="M47.3655 44.0149C48.4823 44.2809 50.4159 44.7037 52.3216 45.2273C52.6522 45.3197 52.8661 45.8405 53.1356 46.1624C52.7384 46.3724 52.305 46.812 51.9494 46.7532C50.4992 46.5152 49.0851 46.0281 47.6322 45.8069C43.2845 45.1433 40.7897 47.2404 40.6008 51.6222C40.5925 51.8098 40.6508 52.0422 40.5619 52.171C40.3258 52.5153 40.0285 52.8149 39.7535 53.1341C39.4868 52.7785 39.0173 52.4397 38.9812 52.0618C38.5256 47.3076 41.7426 43.8918 47.3655 44.0149Z" fill="#2B2D42"/>
</svg>
