<svg width="110" height="117" viewBox="0 0 110 117" fill="none" xmlns="http://www.w3.org/2000/svg">
<path d="M110 60.4174C110 92.0621 106.124 108.281 84.284 115.312C79.6231 116.813 74.6873 117.244 69.808 116.876C36.8559 114.383 0 95.428 0 63.0443C0 28.2259 28.0087 0 62.5592 0C97.1098 0 110 25.599 110 60.4174Z" fill="white"/>
<path d="M47.6292 88.9972C44.1371 86.7125 42.7397 83.0391 41.5868 79.3181C40.7673 76.6778 40.3061 73.906 39.8727 71.1621C39.3616 67.9254 38.3337 64.9408 36.3334 62.3369C32.7191 57.6331 33.6498 47.772 36.764 43.9614C39.231 40.9403 42.3258 39.3696 46.1679 40.3916C51.0157 41.6823 55.7663 41.8755 60.6474 40.5988C67.8872 38.706 72.0432 43.673 73.1628 49.1523C74.2157 54.3069 73.8767 59.2123 70.5097 63.622C68.4733 66.2875 68.0233 69.5606 67.6177 72.8224C67.0093 77.7278 65.5174 82.3559 62.7115 86.4466C62.0087 87.4713 60.8197 88.1573 59.8529 89C59.3889 89 58.9278 89 58.4638 89C57.886 88.0565 56.9525 87.1661 56.797 86.1582C56.4219 83.6887 56.4497 81.1576 56.2274 78.6601C56.1247 77.5178 55.9719 76.3278 55.5385 75.2863C55.319 74.7599 54.43 74.2363 53.8383 74.2335C53.2493 74.2307 52.4659 74.7515 52.1214 75.2779C51.7158 75.8939 51.5797 76.759 51.5269 77.529C51.3741 79.7577 51.3991 82.0004 51.2074 84.2263C51.0491 86.0462 51.0602 88.0257 49.0183 89C48.5543 88.9972 48.0932 88.9972 47.6292 88.9972ZM58.9861 42.805C58.6166 42.805 58.3777 42.7575 58.1666 42.8106C54.1716 43.8214 50.2351 43.211 46.3985 42.1219C42.023 40.8815 38.2503 43.5666 37.0669 46.6885C35.0861 51.913 34.7055 57.1068 38.1281 61.9925C39.8061 64.3892 40.9506 67.0183 41.2896 69.9413C41.7424 73.8388 42.423 77.6914 44.0621 81.264C44.9233 83.1399 46.1429 84.8562 47.2847 86.5893C47.5181 86.9421 48.2071 87.2865 48.5571 87.1857C48.8932 87.0905 49.2294 86.4242 49.2738 85.979C49.4961 83.7111 49.5822 81.4264 49.7961 79.1585C49.9295 77.7334 50.0462 76.2746 50.449 74.9139C50.9574 73.2032 52.1186 72.4892 53.7577 72.4752C55.4496 72.4612 56.6886 73.2172 57.2359 74.9083C57.6165 76.0842 57.786 77.3526 57.8832 78.5929C58.0638 80.8664 58.0693 83.1567 58.2666 85.4302C58.3221 86.0546 58.8027 86.6397 59.0917 87.2445C59.6612 86.9029 60.4168 86.6929 60.7641 86.1946C61.742 84.7974 62.7088 83.3499 63.3977 81.7932C64.909 78.3829 65.8675 74.8019 66.2092 71.0585C66.5203 67.6511 67.6982 64.56 69.6929 61.7741C70.8292 60.1866 71.7209 58.4815 71.7876 56.3956C63.4033 59.3439 55.6357 51.4426 58.9861 42.805ZM59.8418 46.5961C59.8473 52.0194 64.3673 56.0764 69.0651 55.2784C72.0849 54.7633 72.1321 54.7017 71.846 51.6386C71.8209 51.3614 71.8321 51.0787 71.7904 50.8043C71.1875 46.932 69.7346 43.631 65.7563 42.1863C62.456 40.9879 60.7558 41.9455 59.9973 45.3389C59.8779 45.8793 59.8612 46.4421 59.8418 46.5961Z" fill="#2B2D42"/>
<path d="M74.5768 33C74.6324 33.5264 74.9213 34.1927 74.7074 34.5539C73.6879 36.2674 72.5655 37.9278 71.3904 39.5377C71.1542 39.8597 70.5236 39.8905 70.0763 40.0557C70.0763 39.5601 69.8902 38.9497 70.1069 38.5913C71.2626 36.693 72.521 34.8563 73.7434 33C74.0212 33 74.299 33 74.5768 33Z" fill="#2B2D42"/>
<path d="M75.6462 46.7332C75.4628 46.5736 74.9489 46.3328 74.9461 46.0808C74.9406 45.7364 75.2573 45.1597 75.5462 45.0757C77.6631 44.4625 79.8022 43.9137 81.9553 43.4377C82.2442 43.3733 82.6498 43.8353 82.9998 44.0509C82.8026 44.3729 82.6665 44.9077 82.3998 44.9833C80.2356 45.5964 78.0437 46.1256 75.6462 46.7332Z" fill="#2B2D42"/>
<path d="M79.0635 51.4264C78.0051 51.3508 76.9383 51.334 75.8937 51.166C75.5381 51.11 75.2436 50.6676 74.9214 50.4016C75.2714 50.1133 75.6131 49.5953 75.9771 49.5785C77.03 49.5337 78.1051 49.6149 79.1441 49.7997C79.6775 49.8949 80.1553 50.312 80.6582 50.5864C80.2026 50.9672 79.7497 51.3452 79.2941 51.726C79.2191 51.6252 79.1413 51.5272 79.0635 51.4264Z" fill="#2B2D42"/>
<path d="M77.7162 40.0841C77.4579 40.5237 77.3884 40.7868 77.2189 40.9016C76.191 41.5988 75.1631 42.3072 74.0769 42.9035C73.8519 43.0267 73.2824 42.7999 73.0712 42.5592C72.9323 42.3968 73.0296 41.7556 73.224 41.6156C74.2686 40.8624 75.3465 40.1429 76.4855 39.5493C76.7272 39.4233 77.2578 39.8713 77.7162 40.0841Z" fill="#2B2D42"/>
<path d="M68.0622 35.7714C67.8122 36.8185 67.6677 37.6977 67.3704 38.5209C67.2677 38.8064 66.7843 38.952 66.4731 39.162C66.2648 38.812 65.8592 38.4481 65.8842 38.1149C65.9481 37.2917 66.1342 36.4518 66.4287 35.6818C66.5509 35.3626 67.0621 35.0574 67.4205 35.0238C67.626 35.007 67.8816 35.5474 68.0622 35.7714Z" fill="#2B2D42"/>
<path d="M58.986 42.8052C55.6356 51.4428 63.4032 59.344 71.7875 56.3985C71.7209 58.4816 70.8291 60.1896 69.6928 61.7771C67.6982 64.563 66.5175 67.654 66.2091 71.0614C65.8674 74.8049 64.9117 78.3859 63.3976 81.7961C62.7087 83.3501 61.7419 84.7976 60.764 86.1975C60.4167 86.6959 59.6611 86.9059 59.0916 87.2475C58.8054 86.6427 58.322 86.0575 58.2665 85.4332C58.0665 83.1597 58.0637 80.8722 57.8831 78.5959C57.7859 77.3555 57.6164 76.0872 57.2358 74.9113C56.6885 73.2201 55.4523 72.4642 53.7576 72.4782C52.1158 72.4922 50.9573 73.2061 50.4489 74.9169C50.0433 76.2748 49.9294 77.7363 49.796 79.1614C49.5821 81.4321 49.496 83.714 49.2738 85.9819C49.2293 86.4271 48.8904 87.0907 48.557 87.1887C48.207 87.2895 47.518 86.9479 47.2846 86.5923C46.1401 84.862 44.9232 83.1429 44.062 81.2669C42.4202 77.6943 41.7423 73.8417 41.2895 69.9443C40.9506 67.0212 39.806 64.3922 38.128 61.9955C34.7054 57.1097 35.086 51.916 37.0668 46.6914C38.2502 43.5696 42.0229 40.8817 46.3984 42.1248C50.235 43.214 54.1716 43.8243 58.1665 42.8136C58.3776 42.7576 58.6165 42.8052 58.986 42.8052ZM47.3652 44.0147C41.7423 43.8915 38.5253 47.3074 38.9837 52.0644C39.0198 52.4423 39.4893 52.7811 39.756 53.1367C40.031 52.8175 40.3283 52.5179 40.5644 52.1735C40.6533 52.042 40.595 51.8096 40.6033 51.6248C40.7922 47.2458 43.2869 45.1487 47.6347 45.8095C49.0876 46.0306 50.4989 46.5178 51.9519 46.7558C52.3047 46.8146 52.7408 46.375 53.1381 46.165C52.8686 45.8431 52.6547 45.3195 52.3241 45.2299C50.4156 44.7035 48.482 44.2807 47.3652 44.0147Z" fill="white"/>
<path d="M59.8418 46.5949C59.8585 46.4409 59.8751 45.8781 59.9974 45.3378C60.7558 41.9443 62.456 40.9868 65.7564 42.1851C69.7346 43.6299 71.1876 46.9281 71.7904 50.8031C71.8321 51.0775 71.821 51.3603 71.846 51.6375C72.1321 54.7005 72.0849 54.7621 69.0651 55.2773C64.3673 56.0781 59.8474 52.021 59.8418 46.5949Z" fill="#94DAFF"/>
<path d="M47.3655 44.0149C48.4823 44.2809 50.4159 44.7037 52.3216 45.2273C52.6522 45.3197 52.8661 45.8405 53.1356 46.1624C52.7384 46.3724 52.305 46.812 51.9494 46.7532C50.4992 46.5152 49.0851 46.0281 47.6322 45.8069C43.2845 45.1433 40.7897 47.2404 40.6008 51.6222C40.5925 51.8098 40.6508 52.0422 40.5619 52.171C40.3258 52.5153 40.0285 52.8149 39.7535 53.1341C39.4868 52.7785 39.0173 52.4397 38.9812 52.0618C38.5256 47.3076 41.7426 43.8918 47.3655 44.0149Z" fill="#2B2D42"/>
</svg>
