<svg width="110" height="117" viewBox="0 0 110 117" fill="none" xmlns="http://www.w3.org/2000/svg">
<path d="M110 60.4174C110 92.0621 106.124 108.281 84.284 115.312C79.6231 116.813 74.6873 117.244 69.808 116.876C36.8559 114.383 0 95.428 0 63.0443C0 28.2259 28.0087 0 62.5592 0C97.1098 0 110 25.599 110 60.4174Z" fill="white"/>
<path d="M33.0029 62.9994C33.0029 55.6143 32.9974 48.232 33.0057 40.847C33.0085 37.1503 35.0912 35.0214 38.7888 35.0158C51.2681 34.9962 63.7474 34.9934 76.2267 35.0158C79.9382 35.0214 81.9958 37.1334 81.9958 40.847C82.0013 55.7069 82.0013 70.5695 81.9958 85.4294C81.993 88.8849 79.8769 90.9941 76.4243 90.9941C63.8058 90.9997 51.1873 91.0026 38.5688 90.9969C35.1218 90.9969 33.0113 88.8905 33.0057 85.4294C32.9946 77.9546 33.0029 70.477 33.0029 62.9994ZM34.6262 63.0555C34.6262 70.4405 34.6206 77.8256 34.629 85.2106C34.6318 88.0014 35.9571 89.3533 38.708 89.3561C51.2346 89.3645 63.7641 89.3674 76.2907 89.3617C79.0332 89.3617 80.3697 88.0014 80.3697 85.2162C80.3753 70.4461 80.3753 55.676 80.3697 40.9059C80.3697 38.0422 79.0332 36.6482 76.2267 36.6454C63.7474 36.637 51.2653 36.637 38.7832 36.651C35.9766 36.6566 34.6318 38.0562 34.629 40.9003C34.6262 48.2853 34.629 55.6704 34.6262 63.0555Z" fill="black"/>
<path d="M34.6262 63.0557C34.6262 55.6706 34.6235 48.2855 34.629 40.9005C34.6318 38.0564 35.9766 36.6568 38.7832 36.6512C51.2653 36.6372 63.7474 36.6344 76.2267 36.6456C79.0333 36.6484 80.3698 38.0396 80.3698 40.9061C80.3753 55.6762 80.3753 70.4463 80.3698 85.2164C80.3698 88.0044 79.0333 89.3619 76.2907 89.3619C63.7641 89.3676 51.2347 89.3648 38.7081 89.3563C35.9599 89.3535 34.6318 88.0016 34.629 85.2108C34.6235 77.8258 34.6262 70.4407 34.6262 63.0557ZM69.0515 66.8674C71.4961 66.8674 73.6735 66.9123 75.8453 66.8309C76.3158 66.8141 76.7696 66.3429 77.2318 66.0792C76.7864 65.7932 76.3743 65.3584 75.8898 65.2546C75.2243 65.1116 74.506 65.2182 73.8099 65.2182C72.4567 65.2182 71.1008 65.2182 69.6167 65.2182C69.7949 64.8507 69.8367 64.7189 69.9119 64.6095C72.1031 61.398 72.1365 57.9397 70.001 54.9806C67.896 52.0636 64.3043 50.9277 60.7041 52.1141C58.4962 52.8406 56.3578 52.7143 54.1638 52.0244C48.197 50.1479 42.5059 55.407 43.8897 61.5495C44.1653 62.778 44.8503 63.9111 45.4043 65.2238C43.2326 65.2238 41.0692 65.1845 38.9113 65.263C38.5577 65.2771 38.2236 65.8016 37.8811 66.0877C38.2124 66.3429 38.5215 66.7664 38.8807 66.8169C39.6993 66.9291 40.5457 66.8618 41.381 66.8646C42.8762 66.8674 44.3741 66.8646 45.8331 66.8646C45.8721 67.1282 45.8944 67.1815 45.8804 67.218C45.705 67.6976 45.5018 68.1688 45.3431 68.6541C43.8479 73.2904 44.3825 77.5818 47.5483 81.3963C48.3418 82.3527 49.3664 82.7707 50.5108 82.1255C51.5883 81.5197 51.747 80.5408 51.4407 79.3432C50.6472 76.2298 51.5799 73.5288 53.6598 71.2064C55.6172 69.0215 59.2424 68.9345 61.2749 71.0381C63.5274 73.3689 64.449 76.1373 63.6806 79.374C63.4105 80.5128 63.5024 81.5337 64.6579 82.1452C65.8496 82.7763 66.9549 82.4004 67.5703 81.3626C68.6005 79.6265 69.6613 77.8286 70.2321 75.9129C71.1258 72.9146 70.4632 69.9274 69.0515 66.8674ZM68.9151 41.3044C67.7123 41.3044 66.5011 41.2287 65.3066 41.3408C64.8389 41.3857 64.4101 41.8457 63.9618 42.1178C64.424 42.3898 64.875 42.8779 65.3484 42.8975C67.4283 42.9845 69.5137 42.9368 71.5964 42.934C73.7626 42.9312 74.1496 43.3295 74.1524 45.5705C74.1552 47.7162 74.1162 49.8618 74.1886 52.0047C74.2025 52.3862 74.6675 52.7508 74.9236 53.1238C75.1993 52.7648 75.7088 52.4114 75.7172 52.0468C75.7784 49.4832 75.8285 46.914 75.7005 44.3588C75.603 42.4459 74.3027 41.3633 72.3843 41.31C71.2289 41.2763 70.0706 41.3044 68.9151 41.3044ZM57.0762 41.3016C57.0762 41.3044 57.0762 41.31 57.0762 41.3128C56.149 41.3128 55.2163 41.2539 54.3002 41.3436C53.98 41.3745 53.696 41.7728 53.3953 42.0028C53.6821 42.3029 53.9577 42.8526 54.2585 42.8639C56.0599 42.9424 57.8697 42.9396 59.6739 42.861C59.983 42.847 60.267 42.3281 60.5649 42.042C60.2364 41.7952 59.9301 41.3801 59.5765 41.3352C58.7523 41.2315 57.9087 41.3016 57.0762 41.3016Z" fill="white"/>
<path d="M69.0515 66.8685C70.4632 69.9286 71.1259 72.9157 70.2293 75.9196C69.6585 77.8353 68.5977 79.6332 67.5675 81.3694C66.9522 82.4044 65.8468 82.7802 64.6551 82.1519C63.4996 81.5405 63.4077 80.5167 63.6778 79.3808C64.4463 76.1412 63.5275 73.3757 61.2722 71.0449C59.2396 68.9413 55.6144 69.0282 53.6571 71.2132C51.5772 73.5355 50.6444 76.2366 51.438 79.3499C51.7442 80.5476 51.5828 81.5292 50.508 82.1323C49.3637 82.7746 48.339 82.3567 47.5455 81.403C44.3797 77.5885 43.8451 73.2999 45.3403 68.6608C45.4962 68.1756 45.6995 67.7044 45.8777 67.2247C45.8916 67.1883 45.8666 67.135 45.8304 66.8713C44.3714 66.8713 42.8734 66.8741 41.3782 66.8713C40.5429 66.8713 39.6993 66.9386 38.8779 66.8236C38.5187 66.7732 38.2097 66.3496 37.8784 66.0944C38.2208 65.8055 38.5549 65.281 38.9086 65.2698C41.0664 65.1912 43.2298 65.2305 45.4016 65.2305C44.8475 63.9179 44.1626 62.7847 43.8869 61.5562C42.5059 55.4137 48.1942 50.1519 54.161 52.0311C56.3523 52.7211 58.4934 52.8473 60.7014 52.1208C64.3015 50.9344 67.8933 52.0704 69.9982 54.9874C72.1366 57.9464 72.1032 61.4048 69.9091 64.6163C69.8339 64.7256 69.7894 64.8547 69.614 65.2249C71.1008 65.2249 72.454 65.2249 73.8072 65.2249C74.5032 65.2249 75.2216 65.1183 75.887 65.2614C76.3715 65.3651 76.7836 65.7999 77.2291 66.086C76.7669 66.3468 76.313 66.818 75.8425 66.8377C73.6735 66.9134 71.4962 66.8685 69.0515 66.8685ZM65.2343 80.6401C65.393 80.7243 65.5517 80.8056 65.7104 80.8898C66.1614 80.4101 66.696 79.9866 67.0468 79.4397C69.4664 75.6616 69.7448 71.6816 67.5174 67.8025C66.6153 66.229 66.8909 65.4325 68.0074 64.2769C70.3017 61.9068 70.5801 58.9253 68.9569 56.3617C67.2752 53.7056 64.4825 52.6874 61.3279 53.6635C58.8108 54.4432 56.3606 54.3843 53.813 53.6775C52.5823 53.3353 51.1317 53.3241 49.8815 53.6102C45.9724 54.5049 43.021 60.3221 47.4926 64.678C48.3975 65.5615 48.6008 66.1701 47.8156 67.3622C45.3709 71.0589 45.6828 76.5058 48.3669 79.8351C48.7038 80.2531 49.2328 80.5111 49.6727 80.8421C49.7702 80.7327 49.8648 80.6261 49.9623 80.5167C49.8788 80.0203 49.7924 79.5266 49.7089 79.0302C49.1381 75.5522 50.1655 72.5539 52.5489 70.052C55.3332 67.1294 59.8605 67.1153 62.6114 70.0548C65.0394 72.6492 66.0695 75.7401 65.3595 79.3219C65.2732 79.7566 65.2732 80.2026 65.2343 80.6401Z" fill="black"/>
<path d="M68.9151 41.3043C70.0733 41.3043 71.2316 41.279 72.3871 41.3099C74.3083 41.3632 75.6085 42.4458 75.7032 44.3587C75.8313 46.9167 75.784 49.4859 75.7199 52.0467C75.7116 52.4113 75.202 52.7647 74.9264 53.1237C74.6702 52.7507 74.2025 52.3861 74.1913 52.0046C74.1189 49.8618 74.1579 47.7161 74.1551 45.5704C74.1523 43.3294 73.7625 42.9311 71.5991 42.9339C69.5165 42.9367 67.431 42.9816 65.3511 42.8974C64.8778 42.8778 64.4267 42.3897 63.9645 42.1177C64.4128 41.8456 64.8416 41.3856 65.3094 41.3408C66.5011 41.2286 67.7094 41.3043 68.9151 41.3043Z" fill="black"/>
<path d="M57.0761 41.3017C57.9114 41.3017 58.7523 41.2288 59.5736 41.3353C59.9272 41.3802 60.2335 41.7953 60.5621 42.0422C60.2669 42.3282 59.9801 42.8471 59.6711 42.8612C57.8696 42.9425 56.0598 42.9453 54.2556 42.864C53.9549 42.8499 53.6792 42.303 53.3925 42.0029C53.6932 41.7729 53.9772 41.3746 54.2974 41.3438C55.2162 41.254 56.1489 41.3129 57.0733 41.3129C57.0761 41.3101 57.0761 41.3073 57.0761 41.3017Z" fill="black"/>
<path d="M65.2342 80.6394C65.2732 80.2019 65.2732 79.7559 65.3595 79.3268C66.0667 75.745 65.0365 72.6513 62.6114 70.0597C59.8605 67.1202 55.3359 67.1343 52.5488 70.0569C50.1655 72.5588 49.1408 75.5543 49.7088 79.0351C49.7896 79.5315 49.8759 80.0252 49.9622 80.5216C49.8648 80.631 49.7701 80.7376 49.6726 80.847C49.2327 80.516 48.7037 80.2552 48.3668 79.84C45.6827 76.5107 45.3709 71.0638 47.8155 67.3671C48.6035 66.175 48.3974 65.5664 47.4925 64.6829C43.0237 60.327 45.9723 54.5098 49.8815 53.6151C51.1316 53.329 52.5823 53.3402 53.8129 53.6824C56.3578 54.3892 58.8108 54.4481 61.3278 53.6684C64.4824 52.6923 67.2751 53.7105 68.9568 56.3666C70.5801 58.9302 70.3016 61.9117 68.0074 64.2818C66.8909 65.4374 66.6124 66.2339 67.5173 67.8074C69.742 71.6865 69.4663 75.6665 67.0468 79.4446C66.6987 79.9887 66.1614 80.415 65.7103 80.8947C65.5488 80.8049 65.3929 80.7208 65.2342 80.6394ZM57.5968 59.0873C58.7579 58.8517 59.9078 58.6946 61.0048 58.3496C61.3278 58.2486 61.4893 57.626 61.7232 57.2417C61.3306 57.1015 60.8795 56.7593 60.5565 56.8547C58.5825 57.4409 56.6501 57.4549 54.6705 56.8631C54.3419 56.7649 53.8575 57.1828 53.4482 57.3623C53.7405 57.7129 53.9744 58.2571 54.3392 58.3721C55.3916 58.7058 56.497 58.8601 57.5968 59.0873Z" fill="#94DAFF"/>
<path d="M57.5968 59.0862C56.497 58.859 55.3916 58.7019 54.3392 58.3738C53.9744 58.2588 53.7405 57.7118 53.4482 57.364C53.8603 57.1845 54.3419 56.7666 54.6705 56.8648C56.6474 57.4566 58.5825 57.4426 60.5565 56.8564C60.8795 56.761 61.3306 57.1032 61.7232 57.2434C61.4893 57.6277 61.3278 58.2504 61.0048 58.3513C59.9078 58.6935 58.7579 58.8506 57.5968 59.0862Z" fill="black"/>
</svg>
