<svg width="111" height="117" viewBox="0 0 111 117" fill="none" xmlns="http://www.w3.org/2000/svg">
<path d="M110.293 60.4174C110.293 92.0621 106.417 108.281 84.5767 115.312C79.9158 116.813 74.98 117.244 70.1007 116.876C37.1487 114.383 0.292725 95.428 0.292725 63.0443C0.292725 28.2259 28.3014 0 62.852 0C97.4025 0 110.293 25.599 110.293 60.4174Z" fill="#7FC3E9" fill-opacity="0.18"/>
<path d="M33.003 62.9994C33.003 55.6143 32.9974 48.232 33.0058 40.847C33.0086 37.1503 35.0912 35.0214 38.7888 35.0158C51.2681 34.9962 63.7474 34.9934 76.2267 35.0158C79.9382 35.0214 81.9958 37.1334 81.9958 40.847C82.0014 55.7069 82.0014 70.5695 81.9958 85.4294C81.993 88.8849 79.877 90.9941 76.4244 90.9941C63.8059 90.9997 51.1874 91.0026 38.5689 90.9969C35.1219 90.9969 33.0114 88.8905 33.0058 85.4294C32.9947 77.9546 33.003 70.477 33.003 62.9994ZM34.6263 63.0555C34.6263 70.4405 34.6207 77.8256 34.629 85.2106C34.6318 88.0014 35.9572 89.3533 38.7081 89.3561C51.2347 89.3645 63.7641 89.3674 76.2908 89.3617C79.0333 89.3617 80.3698 88.0014 80.3698 85.2162C80.3754 70.4461 80.3754 55.676 80.3698 40.9059C80.3698 38.0422 79.0333 36.6482 76.2267 36.6454C63.7474 36.637 51.2653 36.637 38.7832 36.651C35.9767 36.6566 34.6318 38.0562 34.629 40.9003C34.6263 48.2853 34.629 55.6704 34.6263 63.0555Z" fill="black"/>
<path d="M34.6263 63.0557C34.6263 55.6706 34.6235 48.2855 34.6291 40.9005C34.6319 38.0564 35.9767 36.6568 38.7833 36.6512C51.2654 36.6372 63.7475 36.6344 76.2268 36.6456C79.0334 36.6484 80.3698 38.0396 80.3698 40.9061C80.3754 55.6762 80.3754 70.4463 80.3698 85.2164C80.3698 88.0044 79.0334 89.3619 76.2908 89.3619C63.7642 89.3676 51.2347 89.3648 38.7081 89.3563C35.96 89.3535 34.6319 88.0016 34.6291 85.2108C34.6235 77.8258 34.6263 70.4407 34.6263 63.0557ZM69.0516 66.8674C71.4962 66.8674 73.6735 66.9123 75.8453 66.8309C76.3159 66.8141 76.7697 66.3429 77.2319 66.0792C76.7864 65.7932 76.3743 65.3584 75.8899 65.2546C75.2244 65.1116 74.5061 65.2182 73.81 65.2182C72.4568 65.2182 71.1008 65.2182 69.6168 65.2182C69.795 64.8507 69.8368 64.7189 69.9119 64.6095C72.1032 61.398 72.1366 57.9397 70.001 54.9806C67.8961 52.0636 64.3043 50.9277 60.7042 52.1141C58.4962 52.8406 56.3579 52.7143 54.1638 52.0244C48.1971 50.1479 42.5059 55.407 43.8897 61.5495C44.1654 62.778 44.8503 63.9111 45.4044 65.2238C43.2326 65.2238 41.0692 65.1845 38.9114 65.263C38.5578 65.2771 38.2236 65.8016 37.8812 66.0877C38.2125 66.3429 38.5216 66.7664 38.8807 66.8169C39.6993 66.9291 40.5458 66.8618 41.3811 66.8646C42.8762 66.8674 44.3742 66.8646 45.8332 66.8646C45.8722 67.1282 45.8944 67.1815 45.8805 67.218C45.7051 67.6976 45.5018 68.1688 45.3431 68.6541C43.848 73.2904 44.3825 77.5818 47.5483 81.3963C48.3418 82.3527 49.3665 82.7707 50.5108 82.1255C51.5884 81.5197 51.7471 80.5408 51.4408 79.3432C50.6473 76.2298 51.58 73.5288 53.6599 71.2064C55.6173 69.0215 59.2424 68.9345 61.275 71.0381C63.5275 73.3689 64.4491 76.1373 63.6806 79.374C63.4106 80.5128 63.5024 81.5337 64.6579 82.1452C65.8496 82.7763 66.955 82.4004 67.5703 81.3626C68.6005 79.6265 69.6613 77.8286 70.2321 75.9129C71.1259 72.9146 70.4632 69.9274 69.0516 66.8674ZM68.9151 41.3044C67.7123 41.3044 66.5011 41.2287 65.3067 41.3408C64.8389 41.3857 64.4101 41.8457 63.9619 42.1178C64.424 42.3898 64.8751 42.8779 65.3484 42.8975C67.4283 42.9845 69.5138 42.9368 71.5964 42.934C73.7626 42.9312 74.1497 43.3295 74.1525 45.5705C74.1552 47.7162 74.1162 49.8618 74.1886 52.0047C74.2026 52.3862 74.6675 52.7508 74.9237 53.1238C75.1994 52.7648 75.7089 52.4114 75.7172 52.0468C75.7785 49.4832 75.8286 46.914 75.7005 44.3588C75.6031 42.4459 74.3028 41.3633 72.3844 41.31C71.2289 41.2763 70.0706 41.3044 68.9151 41.3044ZM57.0762 41.3016C57.0762 41.3044 57.0762 41.31 57.0762 41.3128C56.1491 41.3128 55.2163 41.2539 54.3003 41.3436C53.9801 41.3745 53.6961 41.7728 53.3954 42.0028C53.6822 42.3029 53.9578 42.8526 54.2585 42.8639C56.06 42.9424 57.8698 42.9396 59.674 42.861C59.9831 42.847 60.2671 42.3281 60.565 42.042C60.2364 41.7952 59.9302 41.3801 59.5766 41.3352C58.7524 41.2315 57.9088 41.3016 57.0762 41.3016Z" fill="white"/>
<path d="M69.0516 66.8685C70.4633 69.9286 71.1259 72.9157 70.2294 75.9196C69.6586 77.8353 68.5978 79.6332 67.5676 81.3694C66.9522 82.4044 65.8469 82.7802 64.6552 82.1519C63.4997 81.5405 63.4078 80.5167 63.6779 79.3808C64.4464 76.1412 63.5275 73.3757 61.2722 71.0449C59.2397 68.9413 55.6145 69.0282 53.6571 71.2132C51.5773 73.5355 50.6445 76.2366 51.438 79.3499C51.7443 80.5476 51.5828 81.5292 50.5081 82.1323C49.3637 82.7746 48.3391 82.3567 47.5456 81.403C44.3798 77.5885 43.8452 73.2999 45.3404 68.6608C45.4963 68.1756 45.6996 67.7044 45.8778 67.2247C45.8917 67.1883 45.8666 67.135 45.8304 66.8713C44.3714 66.8713 42.8735 66.8741 41.3783 66.8713C40.543 66.8713 39.6994 66.9386 38.878 66.8236C38.5188 66.7732 38.2098 66.3496 37.8784 66.0944C38.2209 65.8055 38.555 65.281 38.9086 65.2698C41.0665 65.1912 43.2299 65.2305 45.4016 65.2305C44.8476 63.9179 44.1626 62.7847 43.887 61.5562C42.5059 55.4137 48.1943 50.1519 54.1611 52.0311C56.3524 52.7211 58.4935 52.8473 60.7015 52.1208C64.3016 50.9344 67.8933 52.0704 69.9983 54.9874C72.1366 57.9464 72.1032 61.4048 69.9092 64.6163C69.834 64.7256 69.7895 64.8547 69.614 65.2249C71.1009 65.2249 72.454 65.2249 73.8072 65.2249C74.5033 65.2249 75.2217 65.1183 75.8871 65.2614C76.3716 65.3651 76.7837 65.7999 77.2291 66.086C76.767 66.3468 76.3131 66.818 75.8426 66.8377C73.6736 66.9134 71.4962 66.8685 69.0516 66.8685ZM65.2343 80.6401C65.393 80.7243 65.5517 80.8056 65.7104 80.8898C66.1615 80.4101 66.6961 79.9866 67.0469 79.4397C69.4665 75.6616 69.7449 71.6816 67.5175 67.8025C66.6153 66.229 66.891 65.4325 68.0075 64.2769C70.3018 61.9068 70.5802 58.9253 68.9569 56.3617C67.2752 53.7056 64.4826 52.6874 61.3279 53.6635C58.8109 54.4432 56.3607 54.3843 53.8131 53.6775C52.5824 53.3353 51.1318 53.3241 49.8816 53.6102C45.9724 54.5049 43.021 60.3221 47.4927 64.678C48.3976 65.5615 48.6008 66.1701 47.8156 67.3622C45.371 71.0589 45.6829 76.5058 48.3669 79.8351C48.7038 80.2531 49.2329 80.5111 49.6728 80.8421C49.7702 80.7327 49.8649 80.6261 49.9623 80.5167C49.8788 80.0203 49.7925 79.5266 49.709 79.0302C49.1382 75.5522 50.1656 72.5539 52.549 70.052C55.3333 67.1294 59.8606 67.1153 62.6115 70.0548C65.0394 72.6492 66.0696 75.7401 65.3596 79.3219C65.2733 79.7566 65.2733 80.2026 65.2343 80.6401Z" fill="black"/>
<path d="M68.9151 41.3043C70.0734 41.3043 71.2317 41.279 72.3872 41.3099C74.3083 41.3632 75.6086 42.4458 75.7033 44.3587C75.8314 46.9167 75.784 49.4859 75.72 52.0467C75.7116 52.4113 75.2021 52.7647 74.9264 53.1237C74.6703 52.7507 74.2025 52.3861 74.1914 52.0046C74.119 49.8618 74.158 47.7161 74.1552 45.5704C74.1524 43.3294 73.7626 42.9311 71.5992 42.9339C69.5165 42.9367 67.4311 42.9816 65.3512 42.8974C64.8779 42.8778 64.4268 42.3897 63.9646 42.1177C64.4129 41.8456 64.8417 41.3856 65.3094 41.3408C66.5011 41.2286 67.7095 41.3043 68.9151 41.3043Z" fill="black"/>
<path d="M57.0762 41.3017C57.9115 41.3017 58.7524 41.2288 59.5738 41.3353C59.9274 41.3802 60.2336 41.7953 60.5622 42.0422C60.2671 42.3282 59.9803 42.8471 59.6712 42.8612C57.8698 42.9425 56.06 42.9453 54.2557 42.864C53.955 42.8499 53.6794 42.303 53.3926 42.0029C53.6933 41.7729 53.9773 41.3746 54.2975 41.3438C55.2163 41.254 56.1491 41.3129 57.0734 41.3129C57.0762 41.3101 57.0762 41.3073 57.0762 41.3017Z" fill="black"/>
<path d="M65.2343 80.6394C65.2733 80.2019 65.2733 79.7559 65.3596 79.3268C66.0668 75.745 65.0366 72.6513 62.6115 70.0597C59.8606 67.1202 55.3361 67.1343 52.549 70.0569C50.1656 72.5588 49.141 75.5543 49.709 79.0351C49.7897 79.5315 49.876 80.0252 49.9623 80.5216C49.8649 80.631 49.7702 80.7376 49.6728 80.847C49.2328 80.516 48.7038 80.2552 48.3669 79.84C45.6828 76.5107 45.371 71.0638 47.8156 67.3671C48.6036 66.175 48.3976 65.5664 47.4926 64.6829C43.0238 60.327 45.9724 54.5098 49.8816 53.6151C51.1318 53.329 52.5824 53.3402 53.813 53.6824C56.3579 54.3892 58.8109 54.4481 61.3279 53.6684C64.4825 52.6923 67.2752 53.7105 68.9569 56.3666C70.5802 58.9302 70.3018 61.9117 68.0075 64.2818C66.891 65.4374 66.6125 66.2339 67.5174 67.8074C69.7421 71.6865 69.4665 75.6665 67.0469 79.4446C66.6989 79.9887 66.1615 80.415 65.7104 80.8947C65.5489 80.8049 65.393 80.7208 65.2343 80.6394ZM57.5969 59.0873C58.758 58.8517 59.9079 58.6946 61.0049 58.3496C61.3279 58.2486 61.4894 57.626 61.7233 57.2417C61.3307 57.1015 60.8796 56.7593 60.5567 56.8547C58.5826 57.4409 56.6503 57.4549 54.6706 56.8631C54.3421 56.7649 53.8576 57.1828 53.4483 57.3623C53.7407 57.7129 53.9745 58.2571 54.3393 58.3721C55.3918 58.7058 56.4971 58.8601 57.5969 59.0873Z" fill="#94DAFF"/>
<path d="M57.5969 59.0862C56.4971 58.859 55.3917 58.7019 54.3392 58.3738C53.9745 58.2588 53.7406 57.7118 53.4482 57.364C53.8603 57.1845 54.342 56.7666 54.6706 56.8648C56.6474 57.4566 58.5825 57.4426 60.5566 56.8564C60.8796 56.761 61.3306 57.1032 61.7232 57.2434C61.4893 57.6277 61.3279 58.2504 61.0049 58.3513C59.9079 58.6935 58.7579 58.8506 57.5969 59.0862Z" fill="black"/>
</svg>
