<svg width="110" height="117" viewBox="0 0 110 117" fill="none" xmlns="http://www.w3.org/2000/svg">
<path d="M110 60.4174C110 92.0621 106.124 108.281 84.284 115.312C79.6231 116.813 74.6873 117.244 69.808 116.876C36.8559 114.383 0 95.428 0 63.0443C0 28.2259 28.0087 0 62.5592 0C97.1098 0 110 25.599 110 60.4174Z" fill="white"/>
<path d="M52.4167 80.2936C52.4167 82.1897 52.4453 84.0836 52.4102 85.9775C52.3399 89.7479 48.4919 92.1054 45.0675 90.4762C42.9602 89.4745 41.3753 87.8802 40.1219 85.9513C37.8193 82.4062 36.7393 78.4543 36.6229 74.2881C36.5 69.8726 36.4407 65.4549 34.8295 61.2756C33.9712 59.0471 32.9549 56.8535 31.7739 54.7781C27.3552 47.0012 31.3964 37.4987 40.1153 35.3686C42.4048 34.8088 44.6878 34.8831 46.9246 35.6158C52.487 37.4375 58.0231 37.3872 63.603 35.6267C68.8515 33.9711 74.302 35.7273 77.7483 40.0269C81.0278 44.1165 81.4998 49.9383 78.7822 54.5747C76.451 58.5506 74.8025 62.7431 74.2537 67.327C74.0649 68.9147 73.9683 70.5221 73.9705 72.1208C73.9793 76.1011 73.3757 79.9502 71.7008 83.5872C70.4584 86.2881 68.7308 88.6085 66.1011 90.1284C62.1938 92.3876 58.1021 90.03 58.0889 85.5248C58.0779 81.8813 58.1021 78.2356 58.0801 74.5921C58.067 72.4489 56.4097 71.0536 54.5262 71.5391C53.2728 71.8628 52.4497 72.9431 52.4299 74.3953C52.4036 76.3636 52.4233 78.3319 52.4233 80.2979C52.4211 80.2936 52.4189 80.2936 52.4167 80.2936ZM50.597 79.8015C50.6014 79.8015 50.6058 79.8015 50.6102 79.8015C50.6102 77.8704 50.5772 75.9393 50.6189 74.0082C50.6607 72.1077 51.8658 70.485 53.6241 69.8376C56.5567 68.7594 59.7989 70.8611 59.8735 74.0038C59.9635 77.7917 59.9109 81.5817 59.9087 85.3696C59.9087 86.8173 60.3455 88.0377 61.6911 88.7484C62.995 89.4351 64.2374 89.1246 65.4118 88.3679C67.3413 87.1257 68.6913 85.3805 69.7054 83.3663C71.444 79.913 71.9993 76.2017 72.1508 72.3833C72.2474 69.9185 72.3703 67.4363 72.7566 65.0044C73.3932 60.9782 75.0176 57.2909 77.0876 53.7808C79.4825 49.7218 79.1203 44.753 76.2754 41.1904C73.334 37.5053 68.6518 36.0007 64.0903 37.4288C58.1899 39.2724 52.3509 39.2374 46.4263 37.4747C44.7668 36.9804 42.8395 36.823 41.1427 37.1182C33.3281 38.4829 29.4208 46.9378 33.4246 53.7677C36.8073 59.5391 38.5283 65.6845 38.3966 72.3745C38.3417 75.187 38.7654 77.9622 39.6807 80.6391C40.7607 83.8015 42.3017 86.6642 45.2892 88.4576C47.9497 90.0541 50.5487 88.5844 50.5948 85.4855C50.6211 83.5915 50.597 81.6976 50.597 79.8015Z" fill="#2B2D42"/>
<path d="M50.5969 79.8009C50.5969 81.6949 50.621 83.591 50.5925 85.4849C50.5464 88.5839 47.9452 90.0535 45.2869 88.457C42.2994 86.6637 40.7584 83.8009 39.6784 80.6386C38.7652 77.9617 38.3394 75.1864 38.3942 72.374C38.5282 65.684 36.8072 59.5386 33.4223 53.7671C29.4206 46.9372 33.3279 38.4801 41.1403 37.1177C42.8372 36.8202 44.7645 36.9799 46.424 37.4741C52.3486 39.2368 58.1898 39.2718 64.088 37.4282C68.6517 36.0023 73.3316 37.5069 76.2731 41.1898C79.1179 44.7524 79.4801 49.7212 77.0853 53.7803C75.0131 57.2925 73.3909 60.9776 72.7543 65.0038C72.3702 67.4358 72.2472 69.918 72.1485 72.3827C71.997 76.2012 71.4416 79.9125 69.7031 83.3657C68.689 85.3821 67.339 87.1273 65.4095 88.3673C64.2351 89.124 62.9927 89.4346 61.6888 88.7479C60.341 88.0371 59.9041 86.8168 59.9063 85.369C59.9085 81.5811 59.9612 77.7889 59.8712 74.0033C59.7966 70.8606 56.5544 68.7589 53.6217 69.8371C51.8656 70.4844 50.6583 72.1071 50.6166 74.0076C50.5749 75.9366 50.6078 77.8698 50.6078 79.8009C50.6056 79.8009 50.6013 79.8009 50.5969 79.8009ZM58.9866 50.9088C58.9866 49.5572 59.0063 48.3937 58.98 47.2324C58.9537 46.0515 58.2402 45.3363 57.0615 45.3079C55.8937 45.2795 54.7237 45.2882 53.5537 45.3057C52.2344 45.3254 51.5386 46.0209 51.5188 47.3352C51.5013 48.4878 51.5144 49.6381 51.5144 50.9088C50.2961 50.9088 49.2074 50.8956 48.1208 50.9109C46.5359 50.935 45.8862 51.5911 45.8576 53.1898C45.8423 54.1367 45.8445 55.0815 45.8576 56.0285C45.8796 57.6556 46.5754 58.3598 48.191 58.3839C49.271 58.3992 50.3532 58.386 51.5144 58.386C51.5144 59.696 51.4925 60.8551 51.521 62.0121C51.5495 63.2171 52.2213 63.8841 53.4351 63.9147C54.5678 63.941 55.7005 63.9322 56.8332 63.9191C58.3237 63.9038 58.9646 63.2696 58.98 61.7999C58.991 60.6846 58.9822 59.5714 58.9822 58.3839C60.2246 58.3839 61.3156 58.4035 62.4066 58.3795C63.897 58.3467 64.5995 57.6381 64.6368 56.1422C64.6609 55.1602 64.6544 54.1761 64.639 53.1941C64.6127 51.5955 63.9629 50.935 62.3824 50.9109C61.3002 50.8956 60.2115 50.9088 58.9866 50.9088ZM33.7362 48.0526C33.644 48.081 33.5496 48.1094 33.4574 48.14C33.9096 49.5747 34.3289 51.0203 34.825 52.4396C35.0423 53.0607 35.4923 53.5703 36.2452 53.1701C36.9784 52.783 36.7786 52.2078 36.4757 51.5867C34.1752 46.8475 36.6865 41.8197 41.8998 40.7305C42.6111 40.5818 43.1181 40.326 42.9491 39.5343C42.7889 38.7798 42.2028 38.8016 41.5662 38.9022C37.1452 39.5889 33.7428 43.5539 33.7362 48.0526Z" fill="white"/>
<path d="M58.9867 50.9092C60.2094 50.9092 61.2982 50.8961 62.3869 50.9135C63.9674 50.9376 64.6172 51.5981 64.6435 53.1968C64.6589 54.1787 64.6655 55.1629 64.6413 56.1448C64.6062 57.6407 63.9016 58.3493 62.4111 58.3821C61.3201 58.4061 60.2292 58.3865 58.9867 58.3865C58.9867 59.5718 58.9955 60.6872 58.9845 61.8025C58.9692 63.2722 58.3282 63.9042 56.8377 63.9217C55.705 63.9348 54.5724 63.9436 53.4397 63.9173C52.2258 63.8889 51.5519 63.2197 51.5255 62.0147C51.4992 60.8577 51.519 59.6986 51.519 58.3886C50.3555 58.3886 49.2756 58.4018 48.1956 58.3865C46.58 58.3624 45.8841 57.6582 45.8622 56.0311C45.849 55.0841 45.8468 54.1393 45.8622 53.1924C45.8885 51.5959 46.5383 50.9398 48.1253 50.9135C49.2141 50.8961 50.3007 50.9114 51.519 50.9114C51.519 49.6429 51.5058 48.4904 51.5233 47.3378C51.5431 46.0213 52.239 45.328 53.5582 45.3083C54.726 45.2908 55.896 45.2843 57.066 45.3105C58.2448 45.3389 58.956 46.0541 58.9845 47.235C59.0087 48.3941 58.9867 49.5576 58.9867 50.9092ZM53.3738 47.1716C53.3738 48.6041 53.3826 49.9075 53.3716 51.211C53.3607 52.545 53.1653 52.7375 51.857 52.7419C50.5202 52.7462 49.1812 52.7441 47.8729 52.7441C47.8729 54.0803 47.8729 55.2569 47.8729 56.4685C49.1702 56.4685 50.3753 56.4663 51.5804 56.4685C53.2399 56.4707 53.3694 56.6019 53.3738 58.2968C53.376 59.5521 53.3738 60.8053 53.3738 62.03C54.7348 62.03 55.8828 62.03 57.1341 62.03C57.1341 60.9693 57.1341 59.9917 57.1341 59.0141C57.1341 56.4685 57.1341 56.4685 59.6321 56.4685C60.6396 56.4685 61.6494 56.4685 62.635 56.4685C62.635 55.1388 62.635 53.9622 62.635 52.7441C61.1928 52.7441 59.8428 52.7069 58.4928 52.7572C57.4809 52.7944 57.1099 52.3329 57.1297 51.3837C57.1516 50.2553 57.1714 49.1246 57.1055 47.9983C57.088 47.7118 56.7609 47.2263 56.5436 47.2088C55.536 47.1235 54.5175 47.1716 53.3738 47.1716Z" fill="#2B2D42"/>
<path d="M33.7364 48.0536C33.743 43.5549 37.1454 39.59 41.5686 38.9032C42.2052 38.8048 42.7913 38.7808 42.9515 39.5353C43.1183 40.327 42.6135 40.5828 41.9022 40.7316C36.6888 41.8185 34.1776 46.8485 36.4781 51.5877C36.7788 52.2088 36.9786 52.784 36.2476 53.1711C35.4947 53.5691 35.0447 53.0618 34.8274 52.4406C34.3313 51.0213 33.9098 49.5757 33.4598 48.141C33.5498 48.1104 33.6442 48.082 33.7364 48.0536Z" fill="#2B2D42"/>
<path d="M53.3738 47.1717C54.5174 47.1717 55.5359 47.1236 56.5435 47.2089C56.7608 47.2264 57.0901 47.7119 57.1054 47.9984C57.1713 49.1247 57.1515 50.2554 57.1296 51.3838C57.1098 52.333 57.483 52.7944 58.4928 52.7573C59.8405 52.7092 61.1927 52.7441 62.6349 52.7441C62.6349 53.9645 62.6349 55.1411 62.6349 56.4686C61.6493 56.4686 60.6396 56.4686 59.632 56.4686C57.134 56.4686 57.134 56.4686 57.134 59.0142C57.134 59.9918 57.134 60.9694 57.134 62.0301C55.8828 62.0301 54.7347 62.0301 53.3738 62.0301C53.3738 60.8075 53.3759 59.5522 53.3738 58.2969C53.3694 56.602 53.2398 56.4708 51.5803 56.4686C50.3752 56.4664 49.1701 56.4686 47.8728 56.4686C47.8728 55.257 47.8728 54.0782 47.8728 52.7441C49.1811 52.7441 50.5201 52.7485 51.8569 52.742C53.1652 52.7376 53.3606 52.5429 53.3716 51.2111C53.3825 49.9076 53.3738 48.6042 53.3738 47.1717Z" fill="#94DAFF"/>
</svg>
