<svg width="111" height="117" viewBox="0 0 111 117" fill="none" xmlns="http://www.w3.org/2000/svg">
<path d="M110.292 60.4174C110.292 92.0621 106.417 108.281 84.5765 115.312C79.9156 116.813 74.9798 117.244 70.1005 116.876C37.1484 114.383 0.29248 95.428 0.29248 63.0443C0.29248 28.2259 28.3012 0 62.8517 0C97.4023 0 110.292 25.599 110.292 60.4174Z" fill="#7FC3E9" fill-opacity="0.18"/>
<path d="M52.4474 80.2936C52.4474 82.1897 52.4759 84.0836 52.4408 85.9775C52.3706 89.7479 48.5225 92.1054 45.0982 90.4762C42.9908 89.4745 41.406 87.8802 40.1526 85.9513C37.8499 82.4062 36.7699 78.4543 36.6536 74.2881C36.5306 69.8726 36.4714 65.4549 34.8602 61.2756C34.0019 59.0471 32.9855 56.8535 31.8046 54.7781C27.3858 47.0012 31.427 37.4987 40.146 35.3686C42.4355 34.8088 44.7184 34.8831 46.9552 35.6158C52.5176 37.4375 58.0537 37.3872 63.6337 35.6267C68.8822 33.9711 74.3326 35.7273 77.779 40.0269C81.0585 44.1165 81.5304 49.9383 78.8129 54.5747C76.4817 58.5506 74.8331 62.7431 74.2843 67.327C74.0956 68.9147 73.999 70.5221 74.0012 72.1208C74.01 76.1011 73.4063 79.9502 71.7314 83.5872C70.489 86.2881 68.7614 88.6085 66.1317 90.1284C62.2244 92.3876 58.1327 90.03 58.1196 85.5248C58.1086 81.8813 58.1327 78.2356 58.1108 74.5921C58.0976 72.4489 56.4403 71.0536 54.5569 71.5391C53.3035 71.8628 52.4803 72.9431 52.4606 74.3953C52.4342 76.3636 52.454 78.3319 52.454 80.2979C52.4518 80.2936 52.4496 80.2936 52.4474 80.2936ZM50.6276 79.8015C50.632 79.8015 50.6364 79.8015 50.6408 79.8015C50.6408 77.8704 50.6079 75.9393 50.6496 74.0082C50.6913 72.1077 51.8964 70.485 53.6547 69.8376C56.5874 68.7594 59.8295 70.8611 59.9042 74.0038C59.9942 77.7917 59.9415 81.5817 59.9393 85.3696C59.9393 86.8173 60.3761 88.0377 61.7217 88.7484C63.0256 89.4351 64.2681 89.1246 65.4424 88.3679C67.3719 87.1257 68.7219 85.3805 69.7361 83.3663C71.4746 79.913 72.03 76.2017 72.1814 72.3833C72.278 69.9185 72.4009 67.4363 72.7873 65.0044C73.4239 60.9782 75.0482 57.2909 77.1182 53.7808C79.5131 49.7218 79.1509 44.753 76.306 41.1904C73.3646 37.5053 68.6824 36.0007 64.121 37.4288C58.2205 39.2724 52.3815 39.2374 46.4569 37.4747C44.7974 36.9804 42.8701 36.823 41.1733 37.1182C33.3587 38.4829 29.4514 46.9378 33.4553 53.7677C36.838 59.5391 38.5589 65.6845 38.4272 72.3745C38.3723 75.187 38.796 77.9622 39.7114 80.6391C40.7913 83.8015 42.3323 86.6642 45.3199 88.4576C47.9803 90.0541 50.5793 88.5844 50.6254 85.4855C50.6518 83.5915 50.6276 81.6976 50.6276 79.8015Z" fill="#2B2D42"/>
<path d="M50.6274 79.8029C50.6274 81.6968 50.6515 83.5929 50.623 85.4869C50.5769 88.5858 47.9757 90.0555 45.3174 88.459C42.3299 86.6656 40.7889 83.8029 39.7089 80.6405C38.7957 77.9636 38.3699 75.1884 38.4248 72.3759C38.5587 65.6859 36.8377 59.5405 33.4528 53.7691C29.4512 46.9392 33.3585 38.4821 41.1709 37.1196C42.8677 36.8222 44.795 36.9818 46.4545 37.4761C52.3791 39.2388 58.2203 39.2738 64.1185 37.4302C68.6822 36.0043 73.3621 37.5089 76.3036 41.1918C79.1485 44.7544 79.5107 49.7232 77.1158 53.7822C75.0436 57.2945 73.4214 60.9796 72.7848 65.0058C72.4007 67.4377 72.2778 69.9199 72.179 72.3847C72.0275 76.2031 71.4722 79.9144 69.7336 83.3677C68.7195 85.3841 67.3695 87.1293 65.44 88.3693C64.2656 89.126 63.0232 89.4365 61.7193 88.7498C60.3715 88.0391 59.9347 86.8187 59.9369 85.3709C59.939 81.5831 59.9917 77.7909 59.9017 74.0052C59.8271 70.8625 56.5849 68.7608 53.6523 69.839C51.8962 70.4864 50.6889 72.1091 50.6471 74.0096C50.6054 75.9385 50.6384 77.8718 50.6384 79.8029C50.6362 79.8029 50.6318 79.8029 50.6274 79.8029ZM59.0171 50.9107C59.0171 49.5592 59.0369 48.3957 59.0105 47.2344C58.9842 46.0534 58.2708 45.3383 57.092 45.3099C55.9242 45.2814 54.7542 45.2902 53.5842 45.3077C52.2649 45.3273 51.5691 46.0228 51.5493 47.3372C51.5318 48.4897 51.5449 49.6401 51.5449 50.9107C50.3267 50.9107 49.2379 50.8976 48.1513 50.9129C46.5664 50.937 45.9167 51.593 45.8881 53.1917C45.8728 54.1387 45.875 55.0835 45.8881 56.0304C45.9101 57.6575 46.6059 58.3617 48.2215 58.3858C49.3015 58.4011 50.3837 58.388 51.5449 58.388C51.5449 59.698 51.523 60.8571 51.5515 62.014C51.5801 63.219 52.2518 63.8861 53.4657 63.9167C54.5983 63.9429 55.731 63.9342 56.8637 63.9211C58.3542 63.9057 58.9952 63.2715 59.0105 61.8019C59.0215 60.6865 59.0127 59.5733 59.0127 58.3858C60.2551 58.3858 61.3461 58.4055 62.4371 58.3814C63.9276 58.3486 64.63 57.64 64.6673 56.1441C64.6915 55.1622 64.6849 54.1781 64.6695 53.1961C64.6432 51.5974 63.9934 50.937 62.4129 50.9129C61.3307 50.8976 60.242 50.9107 59.0171 50.9107ZM33.7667 48.0545C33.6745 48.0829 33.5802 48.1114 33.488 48.142C33.9402 49.5766 34.3594 51.0222 34.8555 52.4416C35.0728 53.0627 35.5228 53.5723 36.2758 53.172C37.0089 52.7849 36.8092 52.2098 36.5062 51.5887C34.2058 46.8495 36.717 41.8216 41.9304 40.7325C42.6416 40.5838 43.1486 40.3279 42.9796 39.5362C42.8194 38.7817 42.2333 38.8036 41.5967 38.9042C37.1757 39.5909 33.7733 43.5559 33.7667 48.0545Z" fill="white"/>
<path d="M59.0171 50.9092C60.2398 50.9092 61.3286 50.8961 62.4173 50.9135C63.9978 50.9376 64.6476 51.5981 64.6739 53.1968C64.6893 54.1787 64.6959 55.1629 64.6717 56.1448C64.6366 57.6407 63.932 58.3493 62.4415 58.3821C61.3505 58.4061 60.2596 58.3865 59.0171 58.3865C59.0171 59.5718 59.0259 60.6872 59.0149 61.8025C58.9996 63.2722 58.3586 63.9042 56.8681 63.9217C55.7354 63.9348 54.6028 63.9436 53.4701 63.9173C52.2562 63.8889 51.5823 63.2197 51.5559 62.0147C51.5296 60.8577 51.5494 59.6986 51.5494 58.3886C50.3859 58.3886 49.3059 58.4018 48.226 58.3865C46.6104 58.3624 45.9145 57.6582 45.8926 56.0311C45.8794 55.0841 45.8772 54.1393 45.8926 53.1924C45.9189 51.5959 46.5686 50.9398 48.1557 50.9135C49.2445 50.8961 50.3311 50.9114 51.5494 50.9114C51.5494 49.6429 51.5362 48.4904 51.5537 47.3378C51.5735 46.0213 52.2693 45.328 53.5886 45.3083C54.7564 45.2908 55.9264 45.2843 57.0964 45.3105C58.2752 45.3389 58.9864 46.0541 59.0149 47.235C59.0391 48.3941 59.0171 49.5576 59.0171 50.9092ZM53.4042 47.1716C53.4042 48.6041 53.413 49.9075 53.402 51.211C53.3911 52.545 53.1957 52.7375 51.8874 52.7419C50.5506 52.7462 49.2116 52.7441 47.9033 52.7441C47.9033 54.0803 47.9033 55.2569 47.9033 56.4685C49.2006 56.4685 50.4057 56.4663 51.6108 56.4685C53.2703 56.4707 53.3998 56.6019 53.4042 58.2968C53.4064 59.5521 53.4042 60.8053 53.4042 62.03C54.7652 62.03 55.9132 62.03 57.1644 62.03C57.1644 60.9693 57.1644 59.9917 57.1644 59.0141C57.1644 56.4685 57.1644 56.4685 59.6625 56.4685C60.67 56.4685 61.6798 56.4685 62.6654 56.4685C62.6654 55.1388 62.6654 53.9622 62.6654 52.7441C61.2232 52.7441 59.8732 52.7069 58.5232 52.7572C57.5113 52.7944 57.1403 52.3329 57.1601 51.3837C57.182 50.2553 57.2018 49.1246 57.1359 47.9983C57.1184 47.7118 56.7913 47.2263 56.574 47.2088C55.5664 47.1235 54.5479 47.1716 53.4042 47.1716Z" fill="#2B2D42"/>
<path d="M33.7668 48.0516C33.7734 43.553 37.1758 39.588 41.599 38.9013C42.2356 38.8029 42.8216 38.7788 42.9819 39.5333C43.1487 40.325 42.6438 40.5809 41.9326 40.7296C36.7192 41.8165 34.208 46.8466 36.5085 51.5858C36.8092 52.2069 37.009 52.7821 36.278 53.1691C35.5251 53.5672 35.0751 53.0598 34.8578 52.4387C34.3617 51.0193 33.9402 49.5738 33.4902 48.1391C33.5802 48.1085 33.6746 48.08 33.7668 48.0516Z" fill="#2B2D42"/>
<path d="M53.4043 47.1737C54.5479 47.1737 55.5665 47.1256 56.574 47.2109C56.7913 47.2284 57.1206 47.7139 57.136 48.0004C57.2018 49.1267 57.1821 50.2573 57.1601 51.3858C57.1403 52.3349 57.5135 52.7964 58.5233 52.7592C59.8711 52.7111 61.2233 52.7461 62.6654 52.7461C62.6654 53.9664 62.6654 55.143 62.6654 56.4705C61.6798 56.4705 60.6701 56.4705 59.6625 56.4705C57.1645 56.4705 57.1645 56.4705 57.1645 59.0162C57.1645 59.9938 57.1645 60.9713 57.1645 62.032C55.9133 62.032 54.7652 62.032 53.4043 62.032C53.4043 60.8095 53.4065 59.5542 53.4043 58.2988C53.3999 56.6039 53.2704 56.4727 51.6109 56.4705C50.4057 56.4683 49.2006 56.4705 47.9033 56.4705C47.9033 55.2589 47.9033 54.0802 47.9033 52.7461C49.2116 52.7461 50.5506 52.7505 51.8874 52.7439C53.1957 52.7395 53.3911 52.5449 53.4021 51.213C53.413 49.9096 53.4043 48.6061 53.4043 47.1737Z" fill="#94DAFF"/>
</svg>
