<svg width="110" height="117" viewBox="0 0 110 117" fill="none" xmlns="http://www.w3.org/2000/svg">
<path d="M110 60.4174C110 92.0621 106.124 108.281 84.284 115.312C79.6231 116.813 74.6873 117.244 69.808 116.876C36.8559 114.383 0 95.428 0 63.0443C0 28.2259 28.0087 0 62.5592 0C97.1098 0 110 25.599 110 60.4174Z" fill="#7FC3E9" fill-opacity="0.18"/>
<path d="M60.0353 80.9396C56.0405 80.8129 54.4281 77.5408 54.2257 74.6447C54.0718 72.4415 53.7154 70.247 53.3392 68.0657C53.1039 66.6996 52.2504 66.0024 51.1571 66.0111C50.0616 66.0177 49.2191 66.704 48.9925 68.0854C48.5504 70.7716 48.282 73.4841 47.8531 76.1726C47.4241 78.8545 44.9648 81.0118 42.5956 80.8457C40.926 80.7298 39.6106 79.814 38.5503 78.6424C37.2612 77.2173 36.1306 75.6502 34.8965 74.1005C34.8437 74.3584 34.8525 74.7278 34.6919 74.9945C34.5335 75.2589 34.1684 75.6152 33.955 75.578C33.6536 75.5278 33.2753 75.1999 33.1653 74.9048C32.9805 74.4065 33.0267 73.8273 32.8925 73.3027C32.3206 71.0601 30.4288 69.4689 28.1147 69.2766C27.5185 69.2263 26.874 69.117 27.028 68.4176C27.105 68.0657 27.7275 67.7728 28.1609 67.5739C28.5458 67.399 29.0254 67.4406 29.4345 67.3029C31.3483 66.6624 31.5617 66.2187 31.0117 64.3325C29.7227 59.9129 28.8494 55.4169 28.9946 50.7984C29.0496 49.0302 29.2937 47.2379 29.7029 45.5155C31.3967 38.3813 38.4667 35.9464 44.1421 37.4436C44.3884 37.5092 44.6436 37.5529 44.8812 37.6447C48.9441 39.2228 53.0137 39.1528 57.1096 37.7627C59.8945 36.8185 62.697 36.7573 65.5193 37.6644C65.7635 37.743 66.3376 37.4873 66.4146 37.2687C66.7863 36.2174 66.9953 35.1092 67.3605 34.0557C67.5013 33.6557 67.9082 33.3497 68.192 33C68.4582 33.3628 68.9245 33.7038 68.9619 34.0885C69.3271 37.8611 71.5444 40.2348 75.3038 40.7615C75.8581 40.8402 76.4785 40.8271 76.4499 41.6118C76.4213 42.3659 75.8185 42.3112 75.2642 42.4292C74.1797 42.6609 73.1216 43.0128 71.9866 43.3341C74.6857 51.406 72.8819 58.9862 70.6557 66.704C74.8924 66.8701 78.2449 68.6252 80.4622 72.2645C81.7623 74.3956 82.2066 76.7365 81.9229 79.1845C81.3333 84.2663 77.387 88.1307 72.0988 88.8913C67.0129 89.6236 62.455 86.6204 60.0353 80.9396ZM59.6811 79.1408C59.6965 79.0053 59.7273 78.8654 59.7273 78.7255C59.7119 72.5792 62.3164 69.0318 68.2448 67.0493C68.5505 66.9466 68.8651 66.5575 68.9773 66.2362C70.8669 60.7566 71.98 55.1458 71.5994 49.3274C71.5026 47.852 71.1045 46.3942 70.7987 44.6674C69.5404 46.1756 69.1379 47.6072 68.9641 49.1547C68.9223 49.5219 68.5 49.8498 68.2536 50.1951C67.9522 49.8607 67.6442 49.5329 67.3583 49.1853C67.2989 49.1132 67.3253 48.9733 67.3121 48.8662C66.8303 45.0259 64.6658 42.8904 60.8074 42.3746C60.4818 42.3309 60.2091 41.9069 59.9121 41.6599C60.2091 41.3714 60.462 41.0063 60.814 40.8184C61.1154 40.6566 61.5487 40.7593 61.8853 40.6391C62.8532 40.2916 63.7991 39.8894 64.7538 39.5091C64.7186 39.3998 64.6834 39.2905 64.6504 39.1812C62.4198 38.4031 60.1915 38.5867 57.9411 39.2206C55.1958 39.9922 52.4329 40.8774 49.5381 40.4053C47.5275 40.0774 45.5543 39.5069 43.5745 39.0064C38.1741 37.6381 32.9475 40.3462 31.4473 45.4171C31.0293 46.8313 30.8226 48.3351 30.7236 49.8105C30.4376 54.0595 31.0865 58.2212 32.1842 62.3194C32.3162 62.8134 32.4812 63.2964 32.6308 63.786C32.9453 63.2505 32.9563 62.7281 33.1411 62.2757C33.3039 61.8757 33.6646 61.5566 33.9374 61.2025C34.2168 61.5544 34.5159 61.8954 34.7623 62.2669C34.8525 62.4046 34.8261 62.621 34.8503 62.8003C35.2133 65.469 37.0523 67.257 39.7624 67.5586C40.3475 67.6242 40.9084 67.7225 40.8864 68.4613C40.8644 69.2066 40.2925 69.2416 39.7074 69.2831C38.2467 69.3902 37.0435 70.0416 36.1328 71.1672C35.948 71.3967 35.8116 71.8754 35.9282 72.1005C37.1183 74.4087 38.4733 76.6206 40.5521 78.2643C42.4813 79.79 44.5028 79.3943 45.6973 77.2414C46.0383 76.6272 46.2142 75.8884 46.3242 75.1846C46.7224 72.6404 46.9644 70.0678 47.4461 67.5411C47.8443 65.4494 49.2565 64.4024 51.2033 64.4177C53.0973 64.433 54.5007 65.48 54.8791 67.5105C55.3652 70.1115 55.6622 72.7497 55.9965 75.377C56.2737 77.5387 57.7981 79.1539 59.6811 79.1408ZM70.9879 87.2892C76.2497 87.1624 80.4952 82.8281 80.3654 77.7201C80.229 72.4 75.8823 68.2864 70.5127 68.3979C65.3895 68.505 61.1484 72.9923 61.3068 78.1419C61.4629 83.2674 65.8492 87.4138 70.9879 87.2892ZM68.1678 45.1417C69.3183 43.9746 70.5567 42.7178 71.661 41.5965C70.5611 40.4708 69.3029 39.1856 68.1722 38.0294C67.0657 39.1638 65.8097 40.4533 64.6944 41.5965C65.8119 42.7352 67.0481 43.9964 68.1678 45.1417ZM33.8824 70.5093C34.5357 69.9542 35.5212 69.1148 36.3395 68.4198C35.5168 67.6854 34.5379 66.8111 33.999 66.3302C33.3083 66.9379 32.3338 67.7947 31.6079 68.4329C32.369 69.128 33.3061 69.9826 33.8824 70.5093Z" fill="#2B2D42"/>
<path d="M59.681 79.1415C57.798 79.1546 56.2758 77.5393 55.9986 75.3689C55.6643 72.7416 55.3695 70.1035 54.8812 67.5024C54.5006 65.4741 53.0994 64.4249 51.2054 64.4096C49.2586 64.3943 47.8464 65.4413 47.4482 67.533C46.9665 70.0598 46.7223 72.6324 46.3263 75.1765C46.2163 75.8804 46.0404 76.6191 45.6994 77.2333C44.5049 79.3863 42.4833 79.7819 40.5542 78.2562C38.4754 76.6104 37.1225 74.4006 35.9303 72.0925C35.8137 71.8674 35.9501 71.3887 36.1349 71.1592C37.0456 70.0335 38.2488 69.3822 39.7095 69.2751C40.2946 69.2314 40.8665 69.1986 40.8885 68.4532C40.9105 67.7145 40.3496 67.6139 39.7645 67.5505C37.0544 67.2489 35.2154 65.461 34.8524 62.7922C34.8282 62.6108 34.8568 62.3966 34.7644 62.2589C34.5158 61.8851 34.2167 61.5463 33.9395 61.1944C33.6667 61.5485 33.3082 61.8698 33.1432 62.2676C32.9584 62.7201 32.9474 63.2425 32.6328 63.778C32.4833 63.2905 32.3183 62.8053 32.1863 62.3113C31.0886 58.2131 30.4397 54.0515 30.7257 49.8024C30.8246 48.327 31.0292 46.8232 31.4494 45.4091C32.9518 40.3382 38.1762 37.6279 43.5766 38.9983C45.5564 39.501 47.5296 40.0693 49.5402 40.3972C52.435 40.8693 55.1979 39.9841 57.9432 39.2125C60.1936 38.5808 62.4219 38.3972 64.6525 39.1732C64.6877 39.2825 64.7229 39.3918 64.7559 39.501C63.8012 39.8814 62.8531 40.2835 61.8874 40.6311C61.5508 40.7513 61.1175 40.6486 60.8161 40.8103C60.4641 40.9983 60.2112 41.3633 59.9142 41.6518C60.2112 41.8988 60.4839 42.3228 60.8095 42.3665C64.6679 42.8846 66.8324 45.0178 67.3142 48.8582C67.3274 48.9674 67.301 49.1073 67.3604 49.1773C67.6463 49.5248 67.9543 49.8527 68.2557 50.1871C68.502 49.8417 68.9266 49.5161 68.9662 49.1467C69.1378 47.597 69.5425 46.1675 70.8008 44.6594C71.1066 46.3883 71.5047 47.844 71.6015 49.3193C71.9821 55.1378 70.869 60.7507 68.9794 66.2282C68.8672 66.5517 68.5548 66.9407 68.2469 67.0413C62.3185 69.0237 59.7162 72.5712 59.7294 78.7174C59.725 78.8661 59.6964 79.006 59.681 79.1415ZM48.2137 58.0666C47.6 57.682 47.2722 57.3301 46.8961 57.2645C44.3641 56.8317 42.9497 55.4766 42.6373 53.0154C42.5647 52.434 42.5251 51.8482 41.8058 51.8417C41.0733 51.8351 41.0469 52.4537 40.9611 53.0154C40.5564 55.6011 39.2915 56.8164 36.7112 57.2689C36.3724 57.3279 36.0975 57.7432 35.7917 57.9945C36.0601 58.2765 36.2998 58.7726 36.599 58.8098C39.3597 59.1486 40.7037 60.7507 41.0359 63.402C41.0755 63.7102 41.5353 63.9659 41.8014 64.2435C42.0698 63.9659 42.5383 63.7124 42.5735 63.4064C42.8947 60.7463 44.2476 59.1486 47.006 58.8229C47.3316 58.7857 47.6176 58.4513 48.2137 58.0666Z" fill="white"/>
<path d="M70.9878 87.2897C65.8492 87.4143 61.4607 83.2702 61.3045 78.1446C61.1483 72.9951 65.3872 68.5078 70.5105 68.4007C75.8801 68.2892 80.2268 72.4027 80.3632 77.7228C80.4951 82.8287 76.2496 87.1608 70.9878 87.2897ZM69.7229 77.2157C69.1202 76.7021 68.6407 76.2562 68.1237 75.8584C66.8545 74.8835 65.5456 74.9972 64.5183 76.1403C63.4844 77.29 63.5416 78.6998 64.7339 79.8058C65.7766 80.7719 66.8699 81.6812 67.9499 82.6079C69.5558 83.9871 70.8888 83.9019 72.2901 82.2822C73.8871 80.4375 75.4467 78.5621 77.0173 76.6955C78.192 75.2988 78.1238 73.8344 76.8435 72.7699C75.5699 71.7098 74.162 71.9306 72.95 73.3776C71.8985 74.6322 70.8426 75.8846 69.7229 77.2157Z" fill="#94DAFF"/>
<path d="M68.1678 45.1436C67.0459 43.9983 65.8118 42.7393 64.6943 41.5984C65.8096 40.4552 67.0657 39.1678 68.1721 38.0312C69.3028 39.1875 70.5611 40.4727 71.661 41.5984C70.5567 42.7196 69.3182 43.9764 68.1678 45.1436Z" fill="#94DAFF"/>
<path d="M33.8825 70.5072C33.3061 69.9827 32.369 69.1259 31.6079 68.4308C32.3338 67.7926 33.3083 66.9358 33.999 66.3281C34.538 66.809 35.5169 67.6811 36.3396 68.4177C35.5213 69.1127 34.5336 69.9521 33.8825 70.5072Z" fill="white"/>
<path d="M48.214 58.0649C47.6179 58.4495 47.3297 58.784 47.0063 58.8211C44.2478 59.1468 42.895 60.7446 42.5738 63.4046C42.5364 63.7106 42.0679 63.9641 41.8017 64.2417C41.5356 63.962 41.0758 63.7062 41.0362 63.4002C40.704 60.7489 39.3578 59.1468 36.5993 58.808C36.3001 58.7709 36.0604 58.2747 35.792 57.9927C36.0978 57.7414 36.3727 57.3261 36.7115 57.2671C39.294 56.8124 40.5589 55.5972 40.9614 53.0136C41.0494 52.4519 41.0758 51.8333 41.8061 51.8399C42.5254 51.8465 42.565 52.4344 42.6376 53.0136C42.95 55.4726 44.3644 56.8299 46.8964 57.2627C47.2725 57.3283 47.6003 57.6802 48.214 58.0649ZM39.9825 58.0496C40.5743 58.6047 41.287 59.2714 41.7797 59.7326C42.3341 59.2736 43.0952 58.6397 43.6671 58.1632C42.9632 57.49 42.2857 56.8409 41.8369 56.4124C41.3376 56.854 40.6095 57.4966 39.9825 58.0496Z" fill="#2B2D42"/>
<path d="M69.7229 77.2155C70.8425 75.8822 71.8984 74.632 72.9499 73.3774C74.162 71.9326 75.572 71.7118 76.8435 72.7697C78.1215 73.8342 78.1919 75.2964 77.0172 76.6953C75.4466 78.5619 73.8848 80.4373 72.29 82.282C70.8887 83.9017 69.5535 83.9847 67.9499 82.6077C66.872 81.681 65.7765 80.7717 64.7338 79.8056C63.5415 78.6996 63.4844 77.2898 64.5182 76.1401C65.5455 74.997 66.8544 74.8855 68.1236 75.8582C68.6406 76.256 69.1201 76.7019 69.7229 77.2155ZM76.3243 74.6932C76.0472 74.3937 75.8382 73.9653 75.572 73.9282C75.2046 73.8779 74.6635 74.0025 74.4303 74.2604C73.1347 75.6921 71.9006 77.1805 70.6622 78.6625C70.1298 79.2985 69.5975 79.34 68.9837 78.7827C68.4162 78.2668 67.8267 77.7794 67.2525 77.2702C66.74 76.8155 66.2033 76.7128 65.7193 77.2614C65.2552 77.7838 65.4663 78.269 65.9371 78.68C67.0062 79.6198 68.0818 80.5509 69.1487 81.4952C69.7955 82.0656 70.3762 82.0329 70.9327 81.364C72.5451 79.434 74.1686 77.5128 75.7766 75.5784C75.979 75.3358 76.1131 75.0407 76.3243 74.6932Z" fill="#2B2D42"/>
<path d="M39.9824 58.0512C40.6094 57.4982 41.3375 56.8556 41.8368 56.4141C42.2856 56.8425 42.9631 57.4916 43.667 58.1648C43.0951 58.6391 42.334 59.273 41.7796 59.7342C41.2869 59.2752 40.5742 58.6085 39.9824 58.0512Z" fill="white"/>
<path d="M76.3244 74.6939C76.1133 75.0393 75.9769 75.3365 75.7767 75.5792C74.1687 77.5135 72.5453 79.4348 70.9328 81.3648C70.3763 82.0336 69.7956 82.0664 69.1488 81.4959C68.082 80.5539 67.0063 79.6206 65.9372 78.6807C65.4686 78.2698 65.2575 77.7846 65.7194 77.2622C66.2056 76.7136 66.7401 76.8163 67.2526 77.2709C67.8268 77.778 68.4163 78.2676 68.9839 78.7834C69.5976 79.3408 70.1299 79.2993 70.6623 78.6632C71.9029 77.1813 73.1348 75.6928 74.4305 74.2612C74.6636 74.0033 75.207 73.8787 75.5721 73.9289C75.8383 73.9661 76.0473 74.3945 76.3244 74.6939Z" fill="white"/>
</svg>
