<svg width="110" height="117" viewBox="0 0 110 117" fill="none" xmlns="http://www.w3.org/2000/svg">
<path d="M110 60.4174C110 92.0621 106.124 108.281 84.284 115.312C79.6231 116.813 74.6873 117.244 69.808 116.876C36.8559 114.383 0 95.428 0 63.0443C0 28.2259 28.0087 0 62.5592 0C97.1098 0 110 25.599 110 60.4174Z" fill="white"/>
<path d="M60.0355 80.9396C56.0408 80.8129 54.4284 77.5408 54.226 74.6447C54.072 72.4415 53.7156 70.247 53.3395 68.0657C53.1041 66.6996 52.2506 66.0024 51.1573 66.0111C50.0619 66.0177 49.2193 66.704 48.9928 68.0854C48.5506 70.7716 48.2823 73.4841 47.8533 76.1726C47.4243 78.8545 44.965 81.0118 42.5959 80.8457C40.9263 80.7298 39.6108 79.814 38.5505 78.6424C37.2615 77.2173 36.1308 75.6502 34.8967 74.1005C34.844 74.3584 34.8527 74.7278 34.6922 74.9945C34.5338 75.2589 34.1686 75.6152 33.9552 75.578C33.6539 75.5278 33.2755 75.1999 33.1655 74.9048C32.9808 74.4065 33.027 73.8273 32.8928 73.3027C32.3208 71.0601 30.429 69.4689 28.1149 69.2766C27.5188 69.2263 26.8742 69.117 27.0282 68.4176C27.1052 68.0657 27.7277 67.7728 28.1611 67.5739C28.5461 67.399 29.0256 67.4406 29.4348 67.3029C31.3485 66.6624 31.5619 66.2187 31.012 64.3325C29.7229 59.9129 28.8496 55.4169 28.9948 50.7984C29.0498 49.0302 29.294 47.2379 29.7031 45.5155C31.3969 38.3813 38.4669 35.9464 44.1423 37.4436C44.3887 37.5092 44.6439 37.5529 44.8814 37.6447C48.9444 39.2228 53.0139 39.1528 57.1099 37.7627C59.8948 36.8185 62.6972 36.7573 65.5195 37.6644C65.7637 37.743 66.3378 37.4873 66.4148 37.2687C66.7866 36.2174 66.9956 35.1092 67.3607 34.0557C67.5015 33.6557 67.9085 33.3497 68.1922 33C68.4584 33.3628 68.9248 33.7038 68.9621 34.0885C69.3273 37.8611 71.5447 40.2348 75.304 40.7615C75.8584 40.8402 76.4787 40.8271 76.4501 41.6118C76.4215 42.3659 75.8188 42.3112 75.2644 42.4292C74.18 42.6609 73.1219 43.0128 71.9868 43.3341C74.6859 51.406 72.8821 58.9862 70.656 66.704C74.8927 66.8701 78.2451 68.6252 80.4625 72.2645C81.7625 74.3956 82.2069 76.7365 81.9231 79.1845C81.3336 84.2663 77.3872 88.1307 72.099 88.8913C67.0132 89.6236 62.4553 86.6204 60.0355 80.9396ZM59.6814 79.1408C59.6968 79.0053 59.7276 78.8654 59.7276 78.7255C59.7122 72.5792 62.3167 69.0318 68.245 67.0493C68.5508 66.9466 68.8654 66.5575 68.9775 66.2362C70.8671 60.7566 71.9802 55.1458 71.5997 49.3274C71.5029 47.852 71.1047 46.3942 70.7989 44.6674C69.5407 46.1756 69.1381 47.6072 68.9643 49.1547C68.9226 49.5219 68.5002 49.8498 68.2538 50.1951C67.9525 49.8607 67.6445 49.5329 67.3585 49.1853C67.2991 49.1132 67.3255 48.9733 67.3123 48.8662C66.8306 45.0259 64.666 42.8904 60.8077 42.3746C60.4821 42.3309 60.2093 41.9069 59.9124 41.6599C60.2093 41.3714 60.4623 41.0063 60.8143 40.8184C61.1156 40.6566 61.549 40.7593 61.8855 40.6391C62.8534 40.2916 63.7993 39.8894 64.754 39.5091C64.7188 39.3998 64.6836 39.2905 64.6506 39.1812C62.4201 38.4031 60.1917 38.5867 57.9414 39.2206C55.1961 39.9922 52.4332 40.8774 49.5383 40.4053C47.5277 40.0774 45.5546 39.5069 43.5748 39.0064C38.1744 37.6381 32.9478 40.3462 31.4475 45.4171C31.0296 46.8313 30.8228 48.3351 30.7238 49.8105C30.4378 54.0595 31.0868 58.2212 32.1844 62.3194C32.3164 62.8134 32.4814 63.2964 32.631 63.786C32.9456 63.2505 32.9566 62.7281 33.1413 62.2757C33.3041 61.8757 33.6649 61.5566 33.9377 61.2025C34.217 61.5544 34.5162 61.8954 34.7626 62.2669C34.8527 62.4046 34.8264 62.621 34.8505 62.8003C35.2135 65.469 37.0525 67.257 39.7626 67.5586C40.3477 67.6242 40.9087 67.7225 40.8867 68.4613C40.8647 69.2066 40.2927 69.2416 39.7076 69.2831C38.247 69.3902 37.0437 70.0416 36.133 71.1672C35.9482 71.3967 35.8118 71.8754 35.9284 72.1005C37.1185 74.4087 38.4735 76.6206 40.5523 78.2643C42.4815 79.79 44.5031 79.3943 45.6975 77.2414C46.0385 76.6272 46.2145 75.8884 46.3245 75.1846C46.7226 72.6404 46.9646 70.0678 47.4463 67.5411C47.8445 65.4494 49.2567 64.4024 51.2035 64.4177C53.0975 64.433 54.501 65.48 54.8793 67.5105C55.3655 70.1115 55.6624 72.7497 55.9968 75.377C56.274 77.5387 57.7984 79.1539 59.6814 79.1408ZM70.9881 87.2892C76.2499 87.1624 80.4955 82.8281 80.3657 77.7201C80.2293 72.4 75.8826 68.2864 70.513 68.3979C65.3897 68.505 61.1486 72.9923 61.307 78.1419C61.4632 83.2674 65.8495 87.4138 70.9881 87.2892ZM68.168 45.1417C69.3185 43.9746 70.557 42.7178 71.6612 41.5965C70.5614 40.4708 69.3031 39.1856 68.1724 38.0294C67.066 39.1638 65.8099 40.4533 64.6946 41.5965C65.8121 42.7352 67.0484 43.9964 68.168 45.1417ZM33.8827 70.5093C34.536 69.9542 35.5215 69.1148 36.3398 68.4198C35.5171 67.6854 34.5382 66.8111 33.9992 66.3302C33.3085 66.9379 32.334 67.7947 31.6081 68.4329C32.3692 69.128 33.3063 69.9826 33.8827 70.5093Z" fill="#2B2D42"/>
<path d="M59.6814 79.1415C57.7984 79.1546 56.2762 77.5393 55.999 75.3689C55.6646 72.7416 55.3699 70.1035 54.8815 67.5024C54.501 65.4741 53.0997 64.4249 51.2057 64.4096C49.259 64.3943 47.8467 65.4413 47.4486 67.533C46.9668 70.0598 46.7226 72.6324 46.3267 75.1765C46.2167 75.8804 46.0407 76.6191 45.6998 77.2333C44.5053 79.3863 42.4837 79.7819 40.5545 78.2562C38.4758 76.6104 37.1229 74.4006 35.9306 72.0925C35.8141 71.8674 35.9504 71.3887 36.1352 71.1592C37.0459 70.0335 38.2492 69.3822 39.7098 69.2751C40.295 69.2314 40.8669 69.1986 40.8889 68.4532C40.9109 67.7145 40.35 67.6139 39.7648 67.5505C37.0547 67.2489 35.2157 65.461 34.8528 62.7922C34.8286 62.6108 34.8572 62.3966 34.7648 62.2589C34.5162 61.8851 34.217 61.5463 33.9399 61.1944C33.6671 61.5485 33.3085 61.8698 33.1436 62.2676C32.9588 62.7201 32.9478 63.2425 32.6332 63.778C32.4836 63.2905 32.3186 62.8053 32.1867 62.3113C31.089 58.2131 30.4401 54.0515 30.726 49.8024C30.825 48.327 31.0296 46.8232 31.4497 45.4091C32.9522 40.3382 38.1766 37.6279 43.577 38.9983C45.5568 39.501 47.53 40.0693 49.5405 40.3972C52.4354 40.8693 55.1983 39.9841 57.9436 39.2125C60.1939 38.5808 62.4223 38.3972 64.6528 39.1732C64.688 39.2825 64.7232 39.3918 64.7562 39.501C63.8015 39.8814 62.8534 40.2835 61.8878 40.6311C61.5512 40.7513 61.1178 40.6486 60.8165 40.8103C60.4645 40.9983 60.2115 41.3633 59.9146 41.6518C60.2115 41.8988 60.4843 42.3228 60.8099 42.3665C64.6682 42.8846 66.8328 45.0178 67.3145 48.8582C67.3277 48.9674 67.3014 49.1073 67.3607 49.1773C67.6467 49.5248 67.9547 49.8527 68.256 50.1871C68.5024 49.8417 68.927 49.5161 68.9666 49.1467C69.1381 47.597 69.5429 46.1675 70.8012 44.6594C71.1069 46.3883 71.5051 47.844 71.6019 49.3193C71.9824 55.1378 70.8694 60.7507 68.9798 66.2282C68.8676 66.5517 68.5552 66.9407 68.2472 67.0413C62.3189 69.0237 59.7166 72.5712 59.7298 78.7174C59.7254 78.8661 59.6968 79.006 59.6814 79.1415ZM48.2141 58.0666C47.6003 57.682 47.2726 57.3301 46.8964 57.2645C44.3645 56.8317 42.9501 55.4766 42.6377 53.0154C42.5651 52.434 42.5255 51.8482 41.8062 51.8417C41.0737 51.8351 41.0473 52.4537 40.9615 53.0154C40.5567 55.6011 39.2919 56.8164 36.7116 57.2689C36.3728 57.3279 36.0978 57.7432 35.7921 57.9945C36.0604 58.2765 36.3002 58.7726 36.5994 58.8098C39.3601 59.1486 40.7041 60.7507 41.0363 63.402C41.0759 63.7102 41.5356 63.9659 41.8018 64.2435C42.0702 63.9659 42.5387 63.7124 42.5739 63.4064C42.8951 60.7463 44.2479 59.1486 47.0064 58.8229C47.332 58.7857 47.6179 58.4513 48.2141 58.0666Z" fill="white"/>
<path d="M70.9882 87.2897C65.8495 87.4143 61.461 83.2702 61.3048 78.1446C61.1487 72.9951 65.3876 68.5078 70.5108 68.4007C75.8804 68.2892 80.2271 72.4027 80.3635 77.7228C80.4955 82.8287 76.25 87.1608 70.9882 87.2897ZM69.7233 77.2157C69.1206 76.7021 68.641 76.2562 68.1241 75.8584C66.8548 74.8835 65.546 74.9972 64.5187 76.1403C63.4848 77.29 63.542 78.6998 64.7343 79.8058C65.7769 80.7719 66.8702 81.6812 67.9503 82.6079C69.5561 83.9871 70.8892 83.9019 72.2904 82.2822C73.8874 80.4375 75.4471 78.5621 77.0177 76.6955C78.1924 75.2988 78.1242 73.8344 76.8439 72.7699C75.5703 71.7098 74.1624 71.9306 72.9503 73.3776C71.8989 74.6322 70.843 75.8846 69.7233 77.2157Z" fill="#94DAFF"/>
<path d="M68.168 45.1417C67.0461 43.9963 65.8121 42.7374 64.6946 41.5964C65.8099 40.4533 67.0659 39.1659 68.1724 38.0293C69.3031 39.1855 70.5613 40.4708 71.6612 41.5964C70.5569 42.7177 69.3185 43.9745 68.168 45.1417Z" fill="#94DAFF"/>
<path d="M33.8825 70.5092C33.3061 69.9846 32.369 69.1278 31.6079 68.4328C32.3338 67.7945 33.3083 66.9377 33.999 66.3301C34.538 66.8109 35.5169 67.683 36.3396 68.4196C35.5213 69.1147 34.5336 69.954 33.8825 70.5092Z" fill="white"/>
<path d="M48.2141 58.0649C47.618 58.4495 47.3298 58.784 47.0065 58.8211C44.248 59.1468 42.8951 60.7446 42.574 63.4046C42.5366 63.7106 42.068 63.9641 41.8018 64.2417C41.5357 63.962 41.0759 63.7062 41.0363 63.4002C40.7042 60.7489 39.3579 59.1468 36.5994 58.808C36.3003 58.7709 36.0605 58.2747 35.7921 57.9927C36.0979 57.7414 36.3728 57.3261 36.7116 57.2671C39.2941 56.8124 40.559 55.5972 40.9615 53.0136C41.0495 52.4519 41.0759 51.8333 41.8062 51.8399C42.5256 51.8465 42.5652 52.4344 42.6378 53.0136C42.9501 55.4726 44.3646 56.8299 46.8965 57.2627C47.2726 57.3283 47.6004 57.6802 48.2141 58.0649ZM39.9826 58.0496C40.5744 58.6047 41.2871 59.2714 41.7798 59.7326C42.3342 59.2736 43.0953 58.6397 43.6672 58.1632C42.9633 57.49 42.2858 56.8409 41.837 56.4124C41.3377 56.854 40.6096 57.4966 39.9826 58.0496Z" fill="#2B2D42"/>
<path d="M69.7232 77.2155C70.8429 75.8822 71.8988 74.632 72.9503 73.3774C74.1623 71.9326 75.5724 71.7118 76.8438 72.7697C78.1219 73.8342 78.1923 75.2964 77.0176 76.6953C75.447 78.5619 73.8852 80.4373 72.2903 82.282C70.8891 83.9017 69.5538 83.9847 67.9502 82.6077C66.8723 81.681 65.7769 80.7717 64.7342 79.8056C63.5419 78.6996 63.4847 77.2898 64.5186 76.1401C65.5459 74.997 66.8547 74.8855 68.124 75.8582C68.6409 76.256 69.1205 76.7019 69.7232 77.2155ZM76.3247 74.6932C76.0475 74.3937 75.8385 73.9653 75.5724 73.9282C75.205 73.8779 74.6639 74.0025 74.4307 74.2604C73.135 75.6921 71.901 77.1805 70.6625 78.6625C70.1302 79.2985 69.5978 79.34 68.9841 78.7827C68.4166 78.2668 67.827 77.7794 67.2529 77.2702C66.7404 76.8155 66.2036 76.7128 65.7197 77.2614C65.2555 77.7838 65.4667 78.269 65.9374 78.68C67.0065 79.6198 68.0822 80.5509 69.1491 81.4952C69.7958 82.0656 70.3766 82.0329 70.9331 81.364C72.5455 79.434 74.1689 77.5128 75.777 75.5784C75.9793 75.3358 76.1135 75.0407 76.3247 74.6932Z" fill="#2B2D42"/>
<path d="M39.9827 58.0512C40.6096 57.4982 41.3377 56.8556 41.8371 56.4141C42.2858 56.8425 42.9633 57.4916 43.6673 58.1648C43.0953 58.6391 42.3342 59.273 41.7799 59.7342C41.2871 59.2752 40.5744 58.6085 39.9827 58.0512Z" fill="white"/>
<path d="M76.3247 74.6939C76.1135 75.0393 75.9771 75.3365 75.7769 75.5792C74.1689 77.5135 72.5455 79.4348 70.9331 81.3648C70.3765 82.0336 69.7958 82.0664 69.1491 81.4959C68.0822 80.5539 67.0065 79.6206 65.9374 78.6807C65.4689 78.2698 65.2577 77.7846 65.7197 77.2622C66.2058 76.7136 66.7404 76.8163 67.2529 77.2709C67.827 77.778 68.4166 78.2676 68.9841 78.7834C69.5978 79.3408 70.1302 79.2993 70.6625 78.6632C71.9032 77.1813 73.135 75.6928 74.4307 74.2612C74.6639 74.0033 75.2072 73.8787 75.5724 73.9289C75.8385 73.9661 76.0475 74.3945 76.3247 74.6939Z" fill="white"/>
</svg>
