<svg width="110" height="117" viewBox="0 0 110 117" fill="none" xmlns="http://www.w3.org/2000/svg">
<path d="M110 60.4174C110 92.0621 106.124 108.281 84.284 115.312C79.6231 116.813 74.6873 117.244 69.808 116.876C36.8559 114.383 0 95.428 0 63.0443C0 28.2259 28.0087 0 62.5592 0C97.1098 0 110 25.599 110 60.4174Z" fill="#7FC3E9" fill-opacity="0.18"/>
<path d="M91.2682 62.9097C90.0635 61.6591 88.8615 60.4085 87.7103 59.2113C86.5511 60.3925 85.507 61.4533 84.3719 62.6104C84.3853 62.6265 84.5325 62.8295 84.6932 63.0219C86.0317 64.636 85.9943 66.1378 84.5058 67.6369C81.4592 70.7073 78.3885 73.7537 75.3286 76.8107C71.8884 80.2446 68.451 83.6811 65.0109 87.1149C62.7996 89.3222 61.6832 89.381 59.3059 87.4249C58.4733 88.0609 57.7184 88.9962 56.7814 89.242C55.9541 89.4585 54.9234 88.9053 53.5581 88.598C52.3882 89.7791 50.8702 91.3264 49.3362 92.8602C48.8383 93.3573 48.2895 94.0708 47.564 93.2905C46.892 92.569 47.5131 92.0078 48.0325 91.4921C49.5504 89.9903 51.063 88.4831 52.5595 86.9947C50.9506 84.6538 50.9506 84.6538 53.5019 81.5967C51.8768 80.1136 51.5904 78.4114 53.0494 76.4152C52.4123 76.3858 51.9464 76.3484 51.4779 76.3484C47.149 76.3431 42.8201 76.311 38.4938 76.3671C37.2356 76.3832 36.7457 75.977 36.751 74.6836C36.7912 67.7785 36.7296 60.8708 36.7858 53.9657C36.8313 48.6586 39.8458 44.7251 44.8788 43.1084C45.2429 42.9908 45.6793 42.4643 45.7167 42.0902C45.8292 40.9919 45.7569 39.8749 45.7569 38.5736C44.1908 38.5736 42.6916 38.5842 41.1924 38.5709C39.554 38.5575 38.8178 37.8387 38.7856 36.2353C38.7696 35.4791 38.7669 34.7202 38.7856 33.9639C38.8231 32.4541 39.5808 31.6524 41.1094 31.6498C50.3027 31.6337 59.496 31.6311 68.6866 31.6498C70.1563 31.6524 70.8899 32.4354 70.9247 33.8864C70.9461 34.7335 70.9488 35.5806 70.9247 36.4251C70.8818 37.8146 70.1537 38.5442 68.7508 38.5682C67.2008 38.5949 65.648 38.5736 63.9534 38.5736C63.9534 39.8803 63.9132 41.0721 63.9829 42.2586C63.9989 42.5499 64.3255 42.9694 64.6066 43.0736C70.5954 45.3076 72.9941 48.6987 73.0102 55.0346C73.0102 55.4328 73.0102 55.8309 73.0102 56.173C73.982 55.8764 74.927 55.3259 75.8319 55.3873C76.7689 55.4515 77.663 56.1088 78.6161 56.5257C79.5397 55.6198 80.5838 54.5937 81.9732 53.2308C80.8274 52.2261 79.6896 51.2534 78.584 50.2433C78.0539 49.7596 77.4328 49.1877 78.2092 48.4662C78.9239 47.8008 79.4192 48.4529 79.8877 48.9178C83.6839 52.6884 87.4747 56.4642 91.2682 60.2375C91.2682 61.1273 91.2682 62.0172 91.2682 62.9097ZM38.6678 74.3149C38.9811 74.3897 39.1069 74.4458 39.2327 74.4458C44.3166 74.4538 49.4005 74.4752 54.4844 74.4244C54.9743 74.4191 55.5579 74.053 55.93 73.6869C59.9912 69.6812 63.8838 65.4911 68.1083 61.6671C70.4696 59.5293 71.353 57.2926 71.1897 54.1554C70.8979 48.5678 67.1927 44.6957 61.6002 44.677C57.1401 44.6609 52.68 44.6636 48.2199 44.677C42.4962 44.6903 38.7107 48.4716 38.6732 54.2249C38.6518 57.608 38.6678 60.9937 38.6678 64.3794C38.6678 67.669 38.6678 70.9585 38.6678 74.3149ZM81.6868 68.011C82.1526 67.4472 82.4123 67.0784 82.7255 66.7631C84.1042 65.3628 84.1176 65.0956 82.7603 63.7354C80.8381 61.8087 78.9186 59.8821 76.983 57.9687C75.9389 56.9346 75.4223 56.9292 74.4103 57.9393C67.8406 64.489 61.287 71.0547 54.7066 77.5937C53.8231 78.4729 53.7856 79.1971 54.6905 80.0709C56.4226 81.7437 58.1065 83.4646 59.8119 85.1669C62.157 87.5077 62.2106 87.5051 64.4112 84.9905C64.4594 84.9344 64.4487 84.8248 64.4942 84.5923C63.086 83.2188 61.6136 81.7918 60.1545 80.3515C59.6807 79.8838 59.0462 79.3654 59.7289 78.6733C60.433 77.9598 61.0086 78.521 61.5279 79.0527C62.9816 80.5332 64.4406 82.0109 65.8515 83.4432C66.7778 82.4866 67.5729 81.6635 68.4724 80.7336C67.6934 79.9854 66.7805 79.2478 66.0603 78.3553C65.7685 77.9945 65.8917 77.2971 65.8247 76.7546C66.3307 76.8535 67 76.7813 67.3079 77.0833C68.1538 77.909 68.8445 78.8897 69.4389 79.6166C70.6998 78.5156 71.5645 77.7621 72.6407 76.8214C72.1936 76.4981 71.8322 76.3003 71.5458 76.0197C70.3009 74.8039 69.0373 73.604 67.8808 72.308C67.5836 71.974 67.4016 71.1429 67.6077 70.8409C68.0655 70.1702 68.6919 70.5363 69.1792 71.0173C69.4951 71.33 69.8163 71.6426 70.1269 71.9633C71.3262 73.1952 72.5202 74.4298 73.5402 75.48C74.6138 74.558 75.4758 73.8178 76.4181 73.0081C75.5079 72.1263 74.6325 71.4101 73.9418 70.5497C73.642 70.1755 73.7116 69.5048 73.6125 68.9677C74.1586 69.0612 74.8574 68.9757 75.2188 69.2857C76.0889 70.0312 76.801 70.9612 77.6095 71.851C78.608 70.8436 79.4219 70.0232 80.3294 69.1066C78.9186 67.7198 77.5104 66.3569 76.129 64.9673C75.5936 64.4275 74.6539 63.861 75.449 62.9952C76.3084 62.0599 76.8679 63.0781 77.3873 63.5938C78.7767 64.97 80.118 66.3943 81.6868 68.011ZM69.0105 33.6326C59.4879 33.6326 50.1073 33.6326 40.7533 33.6326C40.7533 34.7068 40.7533 35.6635 40.7533 36.6041C50.2304 36.6041 59.6138 36.6041 69.0105 36.6041C69.0105 35.5726 69.0105 34.6454 69.0105 33.6326ZM62.0339 38.6831C57.1749 38.6831 52.4417 38.6831 47.7139 38.6831C47.7139 40.0647 47.7139 41.3393 47.7139 42.6888C52.5194 42.6888 57.2552 42.6888 62.0339 42.6888C62.0339 41.3206 62.0339 40.0406 62.0339 38.6831ZM82.6184 60.8441C83.7455 59.7591 84.8217 58.7196 85.9273 57.6561C85.0359 56.7689 84.0989 55.8363 83.3974 55.1388C82.2463 56.1997 81.1272 57.2312 80.0457 58.2253C80.9291 59.1231 81.8286 60.0397 82.6184 60.8441ZM53.4269 84.4053C54.487 85.5623 55.3705 86.527 56.0933 87.3153C56.6555 86.8477 57.2204 86.3801 57.796 85.9017C56.8269 84.9317 55.8952 83.9964 54.9127 83.013C54.3478 83.5421 53.8044 84.0525 53.4269 84.4053Z" fill="#2B2D42"/>
<path d="M38.6681 74.3149C38.6681 70.9586 38.6681 67.669 38.6681 64.3768C38.6681 60.9911 38.6493 57.608 38.6734 54.2223C38.7109 48.4716 42.4964 44.6904 48.2201 44.677C52.6802 44.6663 57.1403 44.6637 61.6004 44.677C67.193 44.6957 70.8981 48.5705 71.1899 54.1555C71.3532 57.2954 70.4725 59.532 68.1086 61.6672C63.884 65.4911 59.9915 69.6786 55.9303 73.6869C55.5581 74.0557 54.9745 74.4191 54.4846 74.4245C49.4007 74.4752 44.3168 74.4512 39.233 74.4458C39.1098 74.4458 38.984 74.3897 38.6681 74.3149ZM50.659 63.5003C50.7687 63.7462 50.833 63.8263 50.8357 63.9038C50.8544 64.9273 50.8571 65.9481 50.8731 66.9716C50.8999 68.8368 51.6227 69.5717 53.4485 69.585C54.4284 69.593 55.4082 69.5957 56.388 69.585C58.0854 69.5637 58.8323 68.8341 58.8537 67.1586C58.8698 65.9748 58.8564 64.791 58.8564 63.7328C59.0705 63.5858 59.1053 63.5404 59.1428 63.5377C60.2993 63.519 61.4585 63.511 62.6151 63.4843C64.1384 63.4496 64.8264 62.8216 64.9013 61.3118C64.9549 60.2028 64.9442 59.0858 64.9094 57.9768C64.8558 56.2959 64.1919 55.6626 62.516 55.6412C61.33 55.6252 60.1441 55.6386 58.859 55.6386C58.859 54.2143 58.8858 52.9743 58.851 51.7344C58.8109 50.3609 58.0532 49.5966 56.6906 49.5485C55.6224 49.5111 54.5515 49.5352 53.4834 49.5405C51.6388 49.5539 50.8999 50.2807 50.8785 52.1219C50.8651 53.2576 50.8758 54.396 50.8758 55.6359C49.5185 55.6359 48.3673 55.6225 47.2162 55.6386C45.5563 55.6626 44.9165 56.3147 44.8897 58.0008C44.8737 59.0671 44.871 60.136 44.8924 61.2049C44.9245 62.7922 45.5804 63.4549 47.1707 63.487C48.354 63.519 49.5453 63.5003 50.659 63.5003Z" fill="white"/>
<path d="M81.6868 68.0128C80.1207 66.3961 78.7768 64.9718 77.3873 63.5929C76.8653 63.0772 76.3085 62.0591 75.4491 62.9944C74.654 63.8602 75.5937 64.4267 76.1291 64.9665C77.5078 66.356 78.916 67.7189 80.3295 69.1058C79.422 70.0224 78.6081 70.8454 77.6095 71.8502C76.801 70.9577 76.0889 70.0304 75.2189 69.2848C74.8574 68.9748 74.1587 69.0604 73.6126 68.9668C73.7116 69.504 73.642 70.1747 73.9419 70.5488C74.6352 71.4093 75.508 72.1254 76.4182 73.0073C75.4759 73.8143 74.6138 74.5572 73.5403 75.4791C72.5203 74.4289 71.3236 73.1943 70.1269 71.9624C69.8164 71.6417 69.4951 71.3318 69.1792 71.0164C68.692 70.5328 68.0655 70.1693 67.6078 70.8401C67.4016 71.142 67.5837 71.9758 67.8808 72.3071C69.0373 73.6032 70.301 74.803 71.5458 76.0189C71.8323 76.2968 72.1937 76.4972 72.6408 76.8206C71.5646 77.7585 70.7025 78.5121 69.4389 79.6157C68.8446 78.8889 68.1512 77.9082 67.3079 77.0824C67 76.7832 66.3308 76.8526 65.8248 76.7538C65.8917 77.2989 65.7686 77.9937 66.0604 78.3544C66.7805 79.247 67.6934 79.9845 68.4725 80.7327C67.573 81.6627 66.7778 82.4831 65.8516 83.4424C64.4407 82.0101 62.9817 80.5323 61.528 79.0519C61.0059 78.5228 60.433 77.9589 59.7289 78.6724C59.0463 79.3619 59.6808 79.883 60.1546 80.3506C61.6136 81.7883 63.0861 83.2153 64.4942 84.5915C64.4487 84.8239 64.4621 84.9335 64.4113 84.9896C62.2107 87.5042 62.1571 87.5042 59.8119 85.166C58.1066 83.4638 56.4227 81.7428 54.6906 80.07C53.7857 79.1962 53.8232 78.472 54.7066 77.5928C61.287 71.0539 67.8433 64.4908 74.4104 57.9385C75.4223 56.9284 75.939 56.9364 76.9831 57.9679C78.916 59.8812 80.8382 61.8079 82.7603 63.7346C84.1177 65.0947 84.107 65.362 82.7255 66.7622C82.4123 67.0802 82.1526 67.449 81.6868 68.0128Z" fill="white"/>
<path d="M69.0101 33.6328C69.0101 34.6457 69.0101 35.573 69.0101 36.6045C59.6134 36.6045 50.23 36.6045 40.7529 36.6045C40.7529 35.6638 40.7529 34.7071 40.7529 33.6328C50.1068 33.6328 59.4849 33.6328 69.0101 33.6328Z" fill="white"/>
<path d="M62.0334 38.6836C62.0334 40.0412 62.0334 41.3186 62.0334 42.6895C57.252 42.6895 52.5188 42.6895 47.7134 42.6895C47.7134 41.3373 47.7134 40.0652 47.7134 38.6836C52.4412 38.6836 57.1744 38.6836 62.0334 38.6836Z" fill="white"/>
<path d="M82.6186 60.842C81.8262 60.0376 80.9294 59.121 80.0459 58.2232C81.1275 57.2264 82.2465 56.1949 83.3977 55.1367C84.0991 55.8342 85.0361 56.7668 85.9276 57.654C84.8246 58.7175 83.7457 59.757 82.6186 60.842Z" fill="white"/>
<path d="M53.4272 84.404C53.802 84.0512 54.3482 83.5408 54.9131 83.0117C55.8956 83.9951 56.8272 84.9304 57.7963 85.9004C57.2207 86.3788 56.6559 86.8491 56.0937 87.314C55.3708 86.5257 54.4874 85.561 53.4272 84.404Z" fill="white"/>
<path d="M50.6594 63.5003C49.5457 63.5003 48.3544 63.519 47.1657 63.495C45.5755 63.4629 44.9196 62.8002 44.8875 61.2129C44.866 60.1467 44.8687 59.0778 44.8848 58.0089C44.9116 56.32 45.5514 55.668 47.2112 55.6466C48.3624 55.6306 49.5136 55.6439 50.8709 55.6439C50.8709 54.404 50.8602 53.2656 50.8735 52.1299C50.8976 50.2887 51.6365 49.5619 53.4784 49.5485C54.5466 49.5405 55.6174 49.5191 56.6856 49.5565C58.0483 49.602 58.8086 50.3689 58.8461 51.7424C58.8809 52.9797 58.8541 54.2223 58.8541 55.6466C60.1391 55.6466 61.3251 55.6332 62.511 55.6493C64.1896 55.6706 64.8509 56.304 64.9044 57.9848C64.9392 59.0965 64.9499 60.2108 64.8964 61.3198C64.8241 62.8296 64.1334 63.4576 62.6101 63.4923C61.4536 63.519 60.2944 63.5244 59.1379 63.5458C59.1004 63.5458 59.0656 63.5912 58.8514 63.7408C58.8514 64.7964 58.8648 65.9802 58.8487 67.1667C58.8273 68.8422 58.0804 69.5717 56.3831 69.5931C55.4033 69.6037 54.4234 69.6011 53.4436 69.5931C51.6178 69.577 50.895 68.8421 50.8682 66.9796C50.8521 65.9561 50.8494 64.9353 50.8307 63.9119C50.8334 63.8237 50.7691 63.7462 50.6594 63.5003ZM56.9828 67.6557C56.9828 66.063 57.0256 64.5986 56.9694 63.1396C56.9265 62.044 57.3817 61.5897 58.4579 61.611C59.9249 61.6404 61.392 61.6191 62.9126 61.6191C62.9126 60.2054 62.9126 58.9067 62.9126 57.5172C61.3304 57.5172 59.8634 57.5038 58.3963 57.5225C57.3924 57.5359 56.9373 57.1056 56.9721 56.0688C57.0202 54.5697 56.9854 53.0652 56.9854 51.5046C55.5264 51.5046 54.2173 51.5046 52.7582 51.5046C52.7582 52.9984 52.6993 54.4147 52.777 55.8256C52.8493 57.1217 52.3085 57.5893 51.0502 57.5332C49.6474 57.4691 48.2366 57.5198 46.8766 57.5198C46.8766 59.0083 46.8766 60.2749 46.8766 61.6217C48.4025 61.6217 49.8268 61.6458 51.2483 61.6137C52.3058 61.5897 52.8091 61.9985 52.7716 63.1102C52.7208 64.6066 52.7582 66.1084 52.7582 67.6583C54.2253 67.6557 55.505 67.6557 56.9828 67.6557Z" fill="#2B2D42"/>
<path d="M56.9822 67.6576C55.5044 67.6576 54.2247 67.6576 52.7523 67.6576C52.7523 66.1051 52.7148 64.6059 52.7657 63.1095C52.8031 61.9978 52.2998 61.589 51.2424 61.613C49.8208 61.6451 48.3966 61.621 46.8706 61.621C46.8706 60.2742 46.8706 59.0102 46.8706 57.5191C48.2333 57.5191 49.6414 57.471 51.0443 57.5325C52.3025 57.5886 52.8406 57.121 52.771 55.8249C52.6934 54.414 52.7523 52.9977 52.7523 51.5039C54.214 51.5039 55.5231 51.5039 56.9795 51.5039C56.9795 53.0645 57.0143 54.569 56.9661 56.0681C56.934 57.1049 57.3864 57.5325 58.3903 57.5218C59.8574 57.5031 61.3271 57.5165 62.9067 57.5165C62.9067 58.906 62.9067 60.2047 62.9067 61.6184C61.386 61.6184 59.919 61.6397 58.4519 61.6103C57.3757 61.589 56.9206 62.0432 56.9634 63.1389C57.025 64.6006 56.9822 66.065 56.9822 67.6576Z" fill="#94DAFF"/>
</svg>
