<svg width="68" height="23" viewBox="0 0 68 23" fill="none" xmlns="http://www.w3.org/2000/svg">
<path d="M5.80356 5.32219C19.874 21.2521 48.8568 20.6344 62.0217 5.17896C61.7763 4.82898 61.511 4.48771 61.2831 4.12153C60.8173 3.3705 60.699 2.53726 60.7612 1.67039C60.8073 1.0302 61.2246 0.584312 61.7552 0.610468C62.3106 0.637869 62.7403 1.08749 62.6544 1.72893C62.4763 3.05663 63.4802 4.29715 64.7369 4.32455C65.26 4.33576 65.8279 4.14395 66.3062 3.90606C66.9638 3.57849 67.5193 3.58348 67.8407 4.08417C68.1632 4.58486 67.9777 5.1279 67.3437 5.54389C66.1468 6.33105 64.9561 6.46432 63.398 5.99726C62.343 7.28759 61.3404 8.60907 60.2394 9.84336C56.1292 14.448 51.2892 18.03 45.464 20.1897C42.9705 21.1139 40.3911 21.6507 37.7432 21.9359C35.4016 22.1875 33.0663 22.2249 30.726 22.0268C25.7801 21.6084 21.1506 20.1798 16.8748 17.6377C12.0809 14.7867 8.10649 11.0428 4.8246 6.55026C4.55432 6.18159 4.32515 6.07572 3.86058 6.18284C2.64373 6.46432 1.51655 6.17412 0.516413 5.43055C-0.0328522 5.02203 -0.143702 4.49767 0.182619 4.0331C0.491503 3.59344 1.09682 3.50999 1.62242 3.88115C2.42826 4.45034 3.27146 4.54251 4.13334 4.07919C4.99772 3.61461 5.44237 2.85984 5.32529 1.87091C5.24184 1.16472 5.67403 0.625414 6.29553 0.61545C6.86971 0.606731 7.2309 1.09746 7.2446 1.84476C7.27076 3.26587 6.98803 3.95464 5.80356 5.32219Z" fill="#0184C9"/>
</svg>
